<?xml version="1.0" encoding="UTF-8" standalone="no"?><svg xmlns="http://www.w3.org/2000/svg" xmlns:xlink="http://www.w3.org/1999/xlink" contentStyleType="text/css" height="1593px" preserveAspectRatio="none" style="width:970px;height:1593px;background:#FFFFFF;" version="1.1" viewBox="0 0 970 1593" width="970px" zoomAndPan="magnify"><defs/><g><rect fill="#FFFFFF" height="1574.625" style="stroke:#181818;stroke-width:0.5;" width="265.5" x="48" y="6"/><text fill="#000000" font-family="sans-serif" font-size="13" font-weight="bold" lengthAdjust="spacing" textLength="66" x="145.25" y="18.0669">Domain1</text><rect fill="#DDDDDD" height="1574.625" style="stroke:#181818;stroke-width:0.5;" width="336" x="315.5" y="6"/><text fill="#000000" font-family="sans-serif" font-size="13" font-weight="bold" lengthAdjust="spacing" textLength="66" x="450.5" y="18.0669">Domain2</text><rect fill="#FFFFFF" height="1574.625" style="stroke:#181818;stroke-width:0.5;" width="255.5" x="653.5" y="6"/><text fill="#000000" font-family="sans-serif" font-size="13" font-weight="bold" lengthAdjust="spacing" textLength="65" x="746.25" y="18.0669">Domain3</text><rect fill="#FFFFFF" height="172.9297" style="stroke:#181818;stroke-width:1.0;" width="10" x="86" y="113.7266"/><rect fill="#FFFFFF" height="188.9297" style="stroke:#181818;stroke-width:1.0;" width="10" x="86" y="819.7109"/><rect fill="#FFFFFF" height="159.7969" style="stroke:#181818;stroke-width:1.0;" width="10" x="86" y="1321.2344"/><rect fill="#FFFFFF" height="29.1328" style="stroke:#181818;stroke-width:1.0;" width="10" x="264" y="979.5078"/><rect fill="#FFFFFF" height="29.1328" style="stroke:#181818;stroke-width:1.0;" width="10" x="264" y="1451.8984"/><rect fill="#FFFFFF" height="436.3906" style="stroke:#181818;stroke-width:1.0;" width="10" x="353" y="134.8594"/><rect fill="#FFFFFF" height="162.7969" style="stroke:#181818;stroke-width:1.0;" width="10" x="353" y="772.4453"/><rect fill="#FFFFFF" height="188.9297" style="stroke:#181818;stroke-width:1.0;" width="10" x="353" y="1103.1719"/><rect fill="#FFFFFF" height="29.1328" style="stroke:#181818;stroke-width:1.0;" width="10" x="521" y="1262.9688"/><rect fill="#FFFFFF" height="619.4531" style="stroke:#181818;stroke-width:1.0;" width="10" x="607" y="315.7891"/><rect fill="#FFFFFF" height="240.3281" style="stroke:#181818;stroke-width:1.0;" width="10" x="691.5" y="484.8516"/><rect fill="#FFFFFF" height="351.7266" style="stroke:#181818;stroke-width:1.0;" width="10" x="691.5" y="1055.9063"/><rect fill="#FFFFFF" height="618.3203" style="stroke:#181818;stroke-width:1.0;" width="10" x="864.5" y="600.3828"/><line style="stroke:#181818;stroke-width:0.5;stroke-dasharray:5.0,5.0;" x1="91" x2="91" y1="103.7266" y2="1499.0313"/><line style="stroke:#181818;stroke-width:0.5;stroke-dasharray:5.0,5.0;" x1="268.5" x2="268.5" y1="103.7266" y2="1499.0313"/><line style="stroke:#181818;stroke-width:0.5;stroke-dasharray:5.0,5.0;" x1="357.5" x2="357.5" y1="103.7266" y2="1499.0313"/><line style="stroke:#181818;stroke-width:0.5;stroke-dasharray:5.0,5.0;" x1="525.5" x2="525.5" y1="103.7266" y2="1499.0313"/><line style="stroke:#181818;stroke-width:0.5;stroke-dasharray:5.0,5.0;" x1="611.5" x2="611.5" y1="103.7266" y2="1499.0313"/><line style="stroke:#181818;stroke-width:0.5;stroke-dasharray:5.0,5.0;" x1="696.5" x2="696.5" y1="103.7266" y2="1499.0313"/><line style="stroke:#181818;stroke-width:0.5;stroke-dasharray:5.0,5.0;" x1="869" x2="869" y1="103.7266" y2="1499.0313"/><rect fill="#E2E2F0" height="30.2969" rx="2.5" ry="2.5" style="stroke:#181818;stroke-width:0.5;" width="78" x="52" y="72.4297"/><text fill="#000000" font-family="sans-serif" font-size="14" lengthAdjust="spacing" textLength="64" x="59" y="92.4248">Domain1</text><rect fill="#E2E2F0" height="30.2969" rx="2.5" ry="2.5" style="stroke:#181818;stroke-width:0.5;" width="78" x="52" y="1498.0313"/><text fill="#000000" font-family="sans-serif" font-size="14" lengthAdjust="spacing" textLength="64" x="59" y="1518.0264">Domain1</text><text fill="#000000" font-family="sans-serif" font-size="14" lengthAdjust="spacing" textLength="51" x="240.5" y="84.1279">Anchor</text><text fill="#000000" font-family="sans-serif" font-size="14" lengthAdjust="spacing" textLength="75" x="228.5" y="100.4248">Reference</text><path d="M251,35.1328 C251,25.1328 269,25.1328 269,25.1328 C269,25.1328 287,25.1328 287,35.1328 L287,61.1328 C287,71.1328 269,71.1328 269,71.1328 C269,71.1328 251,71.1328 251,61.1328 L251,35.1328 " fill="#E2E2F0" style="stroke:#181818;stroke-width:1.5;"/><path d="M251,35.1328 C251,45.1328 269,45.1328 269,45.1328 C269,45.1328 287,45.1328 287,35.1328 " fill="none" style="stroke:#181818;stroke-width:1.5;"/><text fill="#000000" font-family="sans-serif" font-size="14" lengthAdjust="spacing" textLength="51" x="240.5" y="1511.0264">Anchor</text><text fill="#000000" font-family="sans-serif" font-size="14" lengthAdjust="spacing" textLength="75" x="228.5" y="1527.3232">Reference</text><path d="M251,1540.625 C251,1530.625 269,1530.625 269,1530.625 C269,1530.625 287,1530.625 287,1540.625 L287,1566.625 C287,1576.625 269,1576.625 269,1576.625 C269,1576.625 251,1576.625 251,1566.625 L251,1540.625 " fill="#E2E2F0" style="stroke:#181818;stroke-width:1.5;"/><path d="M251,1540.625 C251,1550.625 269,1550.625 269,1550.625 C269,1550.625 287,1550.625 287,1540.625 " fill="none" style="stroke:#181818;stroke-width:1.5;"/><rect fill="#E2E2F0" height="30.2969" rx="2.5" ry="2.5" style="stroke:#181818;stroke-width:0.5;" width="77" x="319.5" y="72.4297"/><text fill="#000000" font-family="sans-serif" font-size="14" lengthAdjust="spacing" textLength="63" x="326.5" y="92.4248">Domain2</text><rect fill="#E2E2F0" height="30.2969" rx="2.5" ry="2.5" style="stroke:#181818;stroke-width:0.5;" width="77" x="319.5" y="1498.0313"/><text fill="#000000" font-family="sans-serif" font-size="14" lengthAdjust="spacing" textLength="63" x="326.5" y="1518.0264">Domain2</text><text fill="#000000" font-family="sans-serif" font-size="14" lengthAdjust="spacing" textLength="51" x="497.5" y="84.1279">Anchor</text><text fill="#000000" font-family="sans-serif" font-size="14" lengthAdjust="spacing" textLength="75" x="485.5" y="100.4248">Reference</text><path d="M508,35.1328 C508,25.1328 526,25.1328 526,25.1328 C526,25.1328 544,25.1328 544,35.1328 L544,61.1328 C544,71.1328 526,71.1328 526,71.1328 C526,71.1328 508,71.1328 508,61.1328 L508,35.1328 " fill="#E2E2F0" style="stroke:#181818;stroke-width:1.5;"/><path d="M508,35.1328 C508,45.1328 526,45.1328 526,45.1328 C526,45.1328 544,45.1328 544,35.1328 " fill="none" style="stroke:#181818;stroke-width:1.5;"/><text fill="#000000" font-family="sans-serif" font-size="14" lengthAdjust="spacing" textLength="51" x="497.5" y="1511.0264">Anchor</text><text fill="#000000" font-family="sans-serif" font-size="14" lengthAdjust="spacing" textLength="75" x="485.5" y="1527.3232">Reference</text><path d="M508,1540.625 C508,1530.625 526,1530.625 526,1530.625 C526,1530.625 544,1530.625 544,1540.625 L544,1566.625 C544,1576.625 526,1576.625 526,1576.625 C526,1576.625 508,1576.625 508,1566.625 L508,1540.625 " fill="#E2E2F0" style="stroke:#181818;stroke-width:1.5;"/><path d="M508,1540.625 C508,1550.625 526,1550.625 526,1550.625 C526,1550.625 544,1550.625 544,1540.625 " fill="none" style="stroke:#181818;stroke-width:1.5;"/><path d="M581.5,77.4297 L642.5,77.4297 C647.5,77.4297 647.5,90.5781 647.5,90.5781 C647.5,90.5781 647.5,103.7266 642.5,103.7266 L581.5,103.7266 C576.5,103.7266 576.5,90.5781 576.5,90.5781 C576.5,90.5781 576.5,77.4297 581.5,77.4297 " fill="#E2E2F0" style="stroke:#181818;stroke-width:0.5;"/><path d="M642.5,77.4297 C637.5,77.4297 637.5,90.5781 637.5,90.5781 C637.5,103.7266 642.5,103.7266 642.5,103.7266 " fill="none" style="stroke:#181818;stroke-width:0.5;"/><text fill="#000000" font-family="sans-serif" font-size="14" lengthAdjust="spacing" textLength="51" x="581.5" y="95.4248">Anchor</text><path d="M581.5,1498.0313 L642.5,1498.0313 C647.5,1498.0313 647.5,1511.1797 647.5,1511.1797 C647.5,1511.1797 647.5,1524.3281 642.5,1524.3281 L581.5,1524.3281 C576.5,1524.3281 576.5,1511.1797 576.5,1511.1797 C576.5,1511.1797 576.5,1498.0313 581.5,1498.0313 " fill="#E2E2F0" style="stroke:#181818;stroke-width:0.5;"/><path d="M642.5,1498.0313 C637.5,1498.0313 637.5,1511.1797 637.5,1511.1797 C637.5,1524.3281 642.5,1524.3281 642.5,1524.3281 " fill="none" style="stroke:#181818;stroke-width:0.5;"/><text fill="#000000" font-family="sans-serif" font-size="14" lengthAdjust="spacing" textLength="51" x="581.5" y="1516.0264">Anchor</text><rect fill="#E2E2F0" height="30.2969" rx="2.5" ry="2.5" style="stroke:#181818;stroke-width:0.5;" width="78" x="657.5" y="72.4297"/><text fill="#000000" font-family="sans-serif" font-size="14" lengthAdjust="spacing" textLength="64" x="664.5" y="92.4248">Domain3</text><rect fill="#E2E2F0" height="30.2969" rx="2.5" ry="2.5" style="stroke:#181818;stroke-width:0.5;" width="78" x="657.5" y="1498.0313"/><text fill="#000000" font-family="sans-serif" font-size="14" lengthAdjust="spacing" textLength="64" x="664.5" y="1518.0264">Domain3</text><path d="M839,77.4297 L900,77.4297 C905,77.4297 905,90.5781 905,90.5781 C905,90.5781 905,103.7266 900,103.7266 L839,103.7266 C834,103.7266 834,90.5781 834,90.5781 C834,90.5781 834,77.4297 839,77.4297 " fill="#E2E2F0" style="stroke:#181818;stroke-width:0.5;"/><path d="M900,77.4297 C895,77.4297 895,90.5781 895,90.5781 C895,103.7266 900,103.7266 900,103.7266 " fill="none" style="stroke:#181818;stroke-width:0.5;"/><text fill="#000000" font-family="sans-serif" font-size="14" lengthAdjust="spacing" textLength="51" x="839" y="95.4248">Anchor</text><path d="M839,1498.0313 L900,1498.0313 C905,1498.0313 905,1511.1797 905,1511.1797 C905,1511.1797 905,1524.3281 900,1524.3281 L839,1524.3281 C834,1524.3281 834,1511.1797 834,1511.1797 C834,1511.1797 834,1498.0313 839,1498.0313 " fill="#E2E2F0" style="stroke:#181818;stroke-width:0.5;"/><path d="M900,1498.0313 C895,1498.0313 895,1511.1797 895,1511.1797 C895,1524.3281 900,1524.3281 900,1524.3281 " fill="none" style="stroke:#181818;stroke-width:0.5;"/><text fill="#000000" font-family="sans-serif" font-size="14" lengthAdjust="spacing" textLength="51" x="839" y="1516.0264">Anchor</text><rect fill="#FFFFFF" height="172.9297" style="stroke:#181818;stroke-width:1.0;" width="10" x="86" y="113.7266"/><rect fill="#FFFFFF" height="188.9297" style="stroke:#181818;stroke-width:1.0;" width="10" x="86" y="819.7109"/><rect fill="#FFFFFF" height="159.7969" style="stroke:#181818;stroke-width:1.0;" width="10" x="86" y="1321.2344"/><rect fill="#FFFFFF" height="29.1328" style="stroke:#181818;stroke-width:1.0;" width="10" x="264" y="979.5078"/><rect fill="#FFFFFF" height="29.1328" style="stroke:#181818;stroke-width:1.0;" width="10" x="264" y="1451.8984"/><rect fill="#FFFFFF" height="436.3906" style="stroke:#181818;stroke-width:1.0;" width="10" x="353" y="134.8594"/><rect fill="#FFFFFF" height="162.7969" style="stroke:#181818;stroke-width:1.0;" width="10" x="353" y="772.4453"/><rect fill="#FFFFFF" height="188.9297" style="stroke:#181818;stroke-width:1.0;" width="10" x="353" y="1103.1719"/><rect fill="#FFFFFF" height="29.1328" style="stroke:#181818;stroke-width:1.0;" width="10" x="521" y="1262.9688"/><rect fill="#FFFFFF" height="619.4531" style="stroke:#181818;stroke-width:1.0;" width="10" x="607" y="315.7891"/><rect fill="#FFFFFF" height="240.3281" style="stroke:#181818;stroke-width:1.0;" width="10" x="691.5" y="484.8516"/><rect fill="#FFFFFF" height="351.7266" style="stroke:#181818;stroke-width:1.0;" width="10" x="691.5" y="1055.9063"/><rect fill="#FFFFFF" height="618.3203" style="stroke:#181818;stroke-width:1.0;" width="10" x="864.5" y="600.3828"/><polygon fill="#181818" points="341,130.8594,351,134.8594,341,138.8594,345,134.8594" style="stroke:#181818;stroke-width:1.0;"/><line style="stroke:#181818;stroke-width:1.0;" x1="96" x2="347" y1="134.8594" y2="134.8594"/><text fill="#000000" font-family="sans-serif" font-size="13" lengthAdjust="spacing" textLength="81" x="103" y="129.7935">Post(Create)</text><path d="M5,147.8594 L5,202.8594 L177,202.8594 L177,157.8594 L167,147.8594 L5,147.8594 " fill="#FEFFDD" style="stroke:#181818;stroke-width:0.5;"/><path d="M167,147.8594 L167,157.8594 L177,157.8594 L167,147.8594 " fill="#FEFFDD" style="stroke:#181818;stroke-width:0.5;"/><text fill="#000000" font-family="sans-serif" font-size="13" lengthAdjust="spacing" textLength="150" x="11" y="164.9263">Post Create (containing</text><text fill="#000000" font-family="sans-serif" font-size="13" lengthAdjust="spacing" textLength="131" x="11" y="180.0591">an anchor linkset) to</text><text fill="#000000" font-family="sans-serif" font-size="13" lengthAdjust="spacing" textLength="151" x="11" y="195.1919">servers in followers list.</text><line style="stroke:#181818;stroke-width:1.0;" x1="363" x2="405" y1="244.5234" y2="244.5234"/><line style="stroke:#181818;stroke-width:1.0;" x1="405" x2="405" y1="244.5234" y2="257.5234"/><line style="stroke:#181818;stroke-width:1.0;" x1="364" x2="405" y1="257.5234" y2="257.5234"/><polygon fill="#181818" points="374,253.5234,364,257.5234,374,261.5234,370,257.5234" style="stroke:#181818;stroke-width:1.0;"/><text fill="#000000" font-family="sans-serif" font-size="13" lengthAdjust="spacing" textLength="144" x="370" y="224.3247">Authenticate Domain1</text><text fill="#000000" font-family="sans-serif" font-size="13" lengthAdjust="spacing" textLength="135" x="370" y="239.4575">using HTTP signature</text><polygon fill="#181818" points="102,282.6563,92,286.6563,102,290.6563,98,286.6563" style="stroke:#181818;stroke-width:1.0;"/><line style="stroke:#181818;stroke-width:1.0;stroke-dasharray:2.0,2.0;" x1="96" x2="352" y1="286.6563" y2="286.6563"/><text fill="#000000" font-family="sans-serif" font-size="13" lengthAdjust="spacing" textLength="18" x="108" y="281.5903">OK</text><polygon fill="#181818" points="595,311.7891,605,315.7891,595,319.7891,599,315.7891" style="stroke:#181818;stroke-width:1.0;"/><line style="stroke:#181818;stroke-width:1.0;" x1="363" x2="601" y1="315.7891" y2="315.7891"/><text fill="#000000" font-family="sans-serif" font-size="13" lengthAdjust="spacing" textLength="144" x="370" y="310.7231">Publish(anchorLinkset)</text><path d="M535,328.7891 L535,428.7891 L688,428.7891 L688,338.7891 L678,328.7891 L535,328.7891 " fill="#FEFFDD" style="stroke:#181818;stroke-width:0.5;"/><path d="M678,328.7891 L678,338.7891 L688,338.7891 L678,328.7891 " fill="#FEFFDD" style="stroke:#181818;stroke-width:0.5;"/><text fill="#000000" font-family="sans-serif" font-size="13" lengthAdjust="spacing" textLength="132" x="541" y="345.856">The anchor linkset in</text><text fill="#000000" font-family="sans-serif" font-size="13" lengthAdjust="spacing" textLength="119" x="541" y="360.9888">the Create activity</text><text fill="#000000" font-family="sans-serif" font-size="13" lengthAdjust="spacing" textLength="100" x="541" y="376.1216">is posted to the</text><text fill="#000000" font-family="sans-serif" font-size="13" lengthAdjust="spacing" textLength="125" x="541" y="391.2544">anchor queue to be</text><text fill="#000000" font-family="sans-serif" font-size="13" lengthAdjust="spacing" textLength="111" x="541" y="406.3872">processed by the</text><text fill="#000000" font-family="sans-serif" font-size="13" lengthAdjust="spacing" textLength="63" x="541" y="421.52">Observer.</text><polygon fill="#181818" points="374,451.7188,364,455.7188,374,459.7188,370,455.7188" style="stroke:#181818;stroke-width:1.0;"/><line style="stroke:#181818;stroke-width:1.0;stroke-dasharray:2.0,2.0;" x1="368" x2="606" y1="455.7188" y2="455.7188"/><text fill="#000000" font-family="sans-serif" font-size="13" lengthAdjust="spacing" textLength="18" x="380" y="450.6528">OK</text><polygon fill="#181818" points="679.5,480.8516,689.5,484.8516,679.5,488.8516,683.5,484.8516" style="stroke:#181818;stroke-width:1.0;"/><line style="stroke:#181818;stroke-width:1.0;" x1="363" x2="685.5" y1="484.8516" y2="484.8516"/><text fill="#000000" font-family="sans-serif" font-size="13" lengthAdjust="spacing" textLength="102" x="370" y="479.7856">Post(Announce)</text><line style="stroke:#181818;stroke-width:1.0;" x1="701.5" x2="743.5" y1="529.1172" y2="529.1172"/><line style="stroke:#181818;stroke-width:1.0;" x1="743.5" x2="743.5" y1="529.1172" y2="542.1172"/><line style="stroke:#181818;stroke-width:1.0;" x1="702.5" x2="743.5" y1="542.1172" y2="542.1172"/><polygon fill="#181818" points="712.5,538.1172,702.5,542.1172,712.5,546.1172,708.5,542.1172" style="stroke:#181818;stroke-width:1.0;"/><text fill="#000000" font-family="sans-serif" font-size="13" lengthAdjust="spacing" textLength="144" x="708.5" y="508.9185">Authenticate Domain2</text><text fill="#000000" font-family="sans-serif" font-size="13" lengthAdjust="spacing" textLength="135" x="708.5" y="524.0513">using HTTP signature</text><polygon fill="#181818" points="369,567.25,359,571.25,369,575.25,365,571.25" style="stroke:#181818;stroke-width:1.0;"/><line style="stroke:#181818;stroke-width:1.0;stroke-dasharray:2.0,2.0;" x1="363" x2="690.5" y1="571.25" y2="571.25"/><text fill="#000000" font-family="sans-serif" font-size="13" lengthAdjust="spacing" textLength="18" x="375" y="566.1841">OK</text><polygon fill="#181818" points="852.5,596.3828,862.5,600.3828,852.5,604.3828,856.5,600.3828" style="stroke:#181818;stroke-width:1.0;"/><line style="stroke:#181818;stroke-width:1.0;" x1="701.5" x2="858.5" y1="600.3828" y2="600.3828"/><text fill="#000000" font-family="sans-serif" font-size="13" lengthAdjust="spacing" textLength="144" x="708.5" y="595.3169">Publish(anchorLinkset)</text><path d="M775,613.3828 L775,698.3828 L963,698.3828 L963,623.3828 L953,613.3828 L775,613.3828 " fill="#FEFFDD" style="stroke:#181818;stroke-width:0.5;"/><path d="M953,613.3828 L953,623.3828 L963,623.3828 L953,613.3828 " fill="#FEFFDD" style="stroke:#181818;stroke-width:0.5;"/><text fill="#000000" font-family="sans-serif" font-size="13" lengthAdjust="spacing" textLength="132" x="781" y="630.4497">The anchor linkset in</text><text fill="#000000" font-family="sans-serif" font-size="13" lengthAdjust="spacing" textLength="140" x="781" y="645.5825">the Announce activity</text><text fill="#000000" font-family="sans-serif" font-size="13" lengthAdjust="spacing" textLength="148" x="781" y="660.7153">is posted to the anchor</text><text fill="#000000" font-family="sans-serif" font-size="13" lengthAdjust="spacing" textLength="167" x="781" y="675.8481">queue to be processed by</text><text fill="#000000" font-family="sans-serif" font-size="13" lengthAdjust="spacing" textLength="88" x="781" y="690.981">the Observer.</text><polygon fill="#181818" points="707.5,721.1797,697.5,725.1797,707.5,729.1797,703.5,725.1797" style="stroke:#181818;stroke-width:1.0;"/><line style="stroke:#181818;stroke-width:1.0;stroke-dasharray:2.0,2.0;" x1="701.5" x2="863.5" y1="725.1797" y2="725.1797"/><text fill="#000000" font-family="sans-serif" font-size="13" lengthAdjust="spacing" textLength="18" x="713.5" y="720.1138">OK</text><polygon fill="#181818" points="374,768.4453,364,772.4453,374,776.4453,370,772.4453" style="stroke:#181818;stroke-width:1.0;"/><line style="stroke:#181818;stroke-width:1.0;" x1="368" x2="606" y1="772.4453" y2="772.4453"/><text fill="#000000" font-family="sans-serif" font-size="13" lengthAdjust="spacing" textLength="89" x="380" y="767.3794">anchorLinkset</text><path d="M202,738.1797 L202,793.1797 L348,793.1797 L348,748.1797 L338,738.1797 L202,738.1797 " fill="#FEFFDD" style="stroke:#181818;stroke-width:0.5;"/><path d="M338,738.1797 L338,748.1797 L348,748.1797 L338,738.1797 " fill="#FEFFDD" style="stroke:#181818;stroke-width:0.5;"/><text fill="#000000" font-family="sans-serif" font-size="13" lengthAdjust="spacing" textLength="117" x="208" y="755.2466">The anchor linkset</text><text fill="#000000" font-family="sans-serif" font-size="13" lengthAdjust="spacing" textLength="125" x="208" y="770.3794">is processed by the</text><text fill="#000000" font-family="sans-serif" font-size="13" lengthAdjust="spacing" textLength="63" x="208" y="785.5122">Observer.</text><polygon fill="#181818" points="107,815.7109,97,819.7109,107,823.7109,103,819.7109" style="stroke:#181818;stroke-width:1.0;"/><line style="stroke:#181818;stroke-width:1.0;" x1="101" x2="352" y1="819.7109" y2="819.7109"/><text fill="#000000" font-family="sans-serif" font-size="13" lengthAdjust="spacing" textLength="76" x="113" y="814.645">Like activity</text><line style="stroke:#181818;stroke-width:1.0;" x1="96" x2="138" y1="863.9766" y2="863.9766"/><line style="stroke:#181818;stroke-width:1.0;" x1="138" x2="138" y1="863.9766" y2="876.9766"/><line style="stroke:#181818;stroke-width:1.0;" x1="97" x2="138" y1="876.9766" y2="876.9766"/><polygon fill="#181818" points="107,872.9766,97,876.9766,107,880.9766,103,876.9766" style="stroke:#181818;stroke-width:1.0;"/><text fill="#000000" font-family="sans-serif" font-size="13" lengthAdjust="spacing" textLength="144" x="103" y="843.7778">Authenticate Domain2</text><text fill="#000000" font-family="sans-serif" font-size="13" lengthAdjust="spacing" textLength="135" x="103" y="858.9106">using HTTP signature</text><polygon fill="#181818" points="341,902.1094,351,906.1094,341,910.1094,345,906.1094" style="stroke:#181818;stroke-width:1.0;"/><line style="stroke:#181818;stroke-width:1.0;stroke-dasharray:2.0,2.0;" x1="96" x2="347" y1="906.1094" y2="906.1094"/><text fill="#000000" font-family="sans-serif" font-size="13" lengthAdjust="spacing" textLength="18" x="103" y="901.0435">OK</text><polygon fill="#181818" points="600,931.2422,610,935.2422,600,939.2422,604,935.2422" style="stroke:#181818;stroke-width:1.0;"/><line style="stroke:#181818;stroke-width:1.0;stroke-dasharray:2.0,2.0;" x1="358" x2="606" y1="935.2422" y2="935.2422"/><text fill="#000000" font-family="sans-serif" font-size="13" lengthAdjust="spacing" textLength="26" x="365" y="930.1763">ACK</text><polygon fill="#181818" points="252,975.5078,262,979.5078,252,983.5078,256,979.5078" style="stroke:#181818;stroke-width:1.0;"/><line style="stroke:#181818;stroke-width:1.0;" x1="96" x2="258" y1="979.5078" y2="979.5078"/><text fill="#000000" font-family="sans-serif" font-size="13" lengthAdjust="spacing" textLength="104" x="103" y="959.3091">Add Domain2 to</text><text fill="#000000" font-family="sans-serif" font-size="13" lengthAdjust="spacing" textLength="132" x="103" y="974.4419">anchor reference DB</text><polygon fill="#181818" points="102,1004.6406,92,1008.6406,102,1012.6406,98,1008.6406" style="stroke:#181818;stroke-width:1.0;"/><line style="stroke:#181818;stroke-width:1.0;stroke-dasharray:2.0,2.0;" x1="96" x2="268" y1="1008.6406" y2="1008.6406"/><text fill="#000000" font-family="sans-serif" font-size="13" lengthAdjust="spacing" textLength="18" x="108" y="1003.5747">OK</text><polygon fill="#181818" points="712.5,1051.9063,702.5,1055.9063,712.5,1059.9063,708.5,1055.9063" style="stroke:#181818;stroke-width:1.0;"/><line style="stroke:#181818;stroke-width:1.0;" x1="706.5" x2="863.5" y1="1055.9063" y2="1055.9063"/><text fill="#000000" font-family="sans-serif" font-size="13" lengthAdjust="spacing" textLength="89" x="718.5" y="1050.8403">anchorLinkset</text><path d="M541,1021.6406 L541,1076.6406 L686,1076.6406 L686,1031.6406 L676,1021.6406 L541,1021.6406 " fill="#FEFFDD" style="stroke:#181818;stroke-width:0.5;"/><path d="M676,1021.6406 L676,1031.6406 L686,1031.6406 L676,1021.6406 " fill="#FEFFDD" style="stroke:#181818;stroke-width:0.5;"/><text fill="#000000" font-family="sans-serif" font-size="13" lengthAdjust="spacing" textLength="124" x="547" y="1038.7075">The AnchorEvent is</text><text fill="#000000" font-family="sans-serif" font-size="13" lengthAdjust="spacing" textLength="111" x="547" y="1053.8403">processed by the</text><text fill="#000000" font-family="sans-serif" font-size="13" lengthAdjust="spacing" textLength="63" x="547" y="1068.9731">Observer.</text><polygon fill="#181818" points="374,1099.1719,364,1103.1719,374,1107.1719,370,1103.1719" style="stroke:#181818;stroke-width:1.0;"/><line style="stroke:#181818;stroke-width:1.0;" x1="368" x2="690.5" y1="1103.1719" y2="1103.1719"/><text fill="#000000" font-family="sans-serif" font-size="13" lengthAdjust="spacing" textLength="76" x="380" y="1098.106">Like activity</text><line style="stroke:#181818;stroke-width:1.0;" x1="363" x2="405" y1="1147.4375" y2="1147.4375"/><line style="stroke:#181818;stroke-width:1.0;" x1="405" x2="405" y1="1147.4375" y2="1160.4375"/><line style="stroke:#181818;stroke-width:1.0;" x1="364" x2="405" y1="1160.4375" y2="1160.4375"/><polygon fill="#181818" points="374,1156.4375,364,1160.4375,374,1164.4375,370,1160.4375" style="stroke:#181818;stroke-width:1.0;"/><text fill="#000000" font-family="sans-serif" font-size="13" lengthAdjust="spacing" textLength="144" x="370" y="1127.2388">Authenticate Domain3</text><text fill="#000000" font-family="sans-serif" font-size="13" lengthAdjust="spacing" textLength="135" x="370" y="1142.3716">using HTTP signature</text><polygon fill="#181818" points="679.5,1185.5703,689.5,1189.5703,679.5,1193.5703,683.5,1189.5703" style="stroke:#181818;stroke-width:1.0;"/><line style="stroke:#181818;stroke-width:1.0;stroke-dasharray:2.0,2.0;" x1="363" x2="685.5" y1="1189.5703" y2="1189.5703"/><text fill="#000000" font-family="sans-serif" font-size="13" lengthAdjust="spacing" textLength="18" x="370" y="1184.5044">OK</text><polygon fill="#181818" points="857.5,1214.7031,867.5,1218.7031,857.5,1222.7031,861.5,1218.7031" style="stroke:#181818;stroke-width:1.0;"/><line style="stroke:#181818;stroke-width:1.0;stroke-dasharray:2.0,2.0;" x1="701.5" x2="863.5" y1="1218.7031" y2="1218.7031"/><text fill="#000000" font-family="sans-serif" font-size="13" lengthAdjust="spacing" textLength="26" x="708.5" y="1213.6372">ACK</text><polygon fill="#181818" points="509,1258.9688,519,1262.9688,509,1266.9688,513,1262.9688" style="stroke:#181818;stroke-width:1.0;"/><line style="stroke:#181818;stroke-width:1.0;" x1="363" x2="515" y1="1262.9688" y2="1262.9688"/><text fill="#000000" font-family="sans-serif" font-size="13" lengthAdjust="spacing" textLength="104" x="370" y="1242.77">Add Domain3 to</text><text fill="#000000" font-family="sans-serif" font-size="13" lengthAdjust="spacing" textLength="132" x="370" y="1257.9028">anchor reference DB</text><polygon fill="#181818" points="369,1288.1016,359,1292.1016,369,1296.1016,365,1292.1016" style="stroke:#181818;stroke-width:1.0;"/><line style="stroke:#181818;stroke-width:1.0;stroke-dasharray:2.0,2.0;" x1="363" x2="525" y1="1292.1016" y2="1292.1016"/><text fill="#000000" font-family="sans-serif" font-size="13" lengthAdjust="spacing" textLength="18" x="375" y="1287.0356">OK</text><polygon fill="#181818" points="107,1317.2344,97,1321.2344,107,1325.2344,103,1321.2344" style="stroke:#181818;stroke-width:1.0;"/><line style="stroke:#181818;stroke-width:1.0;" x1="101" x2="690.5" y1="1321.2344" y2="1321.2344"/><text fill="#000000" font-family="sans-serif" font-size="13" lengthAdjust="spacing" textLength="76" x="113" y="1316.1685">Like activity</text><line style="stroke:#181818;stroke-width:1.0;" x1="96" x2="138" y1="1365.5" y2="1365.5"/><line style="stroke:#181818;stroke-width:1.0;" x1="138" x2="138" y1="1365.5" y2="1378.5"/><line style="stroke:#181818;stroke-width:1.0;" x1="97" x2="138" y1="1378.5" y2="1378.5"/><polygon fill="#181818" points="107,1374.5,97,1378.5,107,1382.5,103,1378.5" style="stroke:#181818;stroke-width:1.0;"/><text fill="#000000" font-family="sans-serif" font-size="13" lengthAdjust="spacing" textLength="144" x="103" y="1345.3013">Authenticate Domain3</text><text fill="#000000" font-family="sans-serif" font-size="13" lengthAdjust="spacing" textLength="135" x="103" y="1360.4341">using HTTP signature</text><polygon fill="#181818" points="684.5,1403.6328,694.5,1407.6328,684.5,1411.6328,688.5,1407.6328" style="stroke:#181818;stroke-width:1.0;"/><line style="stroke:#181818;stroke-width:1.0;stroke-dasharray:2.0,2.0;" x1="96" x2="690.5" y1="1407.6328" y2="1407.6328"/><text fill="#000000" font-family="sans-serif" font-size="13" lengthAdjust="spacing" textLength="18" x="103" y="1402.5669">OK</text><polygon fill="#181818" points="252,1447.8984,262,1451.8984,252,1455.8984,256,1451.8984" style="stroke:#181818;stroke-width:1.0;"/><line style="stroke:#181818;stroke-width:1.0;" x1="96" x2="258" y1="1451.8984" y2="1451.8984"/><text fill="#000000" font-family="sans-serif" font-size="13" lengthAdjust="spacing" textLength="87" x="103" y="1431.6997">Add Domain3</text><text fill="#000000" font-family="sans-serif" font-size="13" lengthAdjust="spacing" textLength="149" x="103" y="1446.8325">to anchor reference DB</text><polygon fill="#181818" points="102,1477.0313,92,1481.0313,102,1485.0313,98,1481.0313" style="stroke:#181818;stroke-width:1.0;"/><line style="stroke:#181818;stroke-width:1.0;stroke-dasharray:2.0,2.0;" x1="96" x2="268" y1="1481.0313" y2="1481.0313"/><text fill="#000000" font-family="sans-serif" font-size="13" lengthAdjust="spacing" textLength="18" x="108" y="1475.9653">OK</text><!--MD5=[9ef95c4e3a736f0e6263933e5a89e908]
@startuml
'https://plantuml.com/sequence-diagram

box Domain1 #White
participant Domain1
database "Anchor\nReference" as Domain1DB
end box

box Domain2
participant Domain2
database "Anchor\nReference" as Domain2DB
queue "Anchor" as anchor_2
end box

box Domain3 #White
participant Domain3
queue "Anchor" as anchor_3
end box

activate Domain1
Domain1 -> Domain2: Post(Create)
note over Domain1
Post Create (containing
an anchor linkset) to
servers in followers list.
end note

activate Domain2
Domain2 -> Domain2: Authenticate Domain1\nusing HTTP signature
Domain2 - -> Domain1: OK

deactivate Domain1

Domain2 -> anchor_2: Publish(anchorLinkset)

note over anchor_2
The anchor linkset in
the Create activity
is posted to the
anchor queue to be
processed by the
Observer.
end note

activate anchor_2

anchor_2 - -> Domain2: OK

Domain2 -> Domain3: Post(Announce)

activate Domain3

Domain3 -> Domain3: Authenticate Domain2\nusing HTTP signature
Domain3 - -> Domain2: OK

deactivate Domain2

Domain3 -> anchor_3: Publish(anchorLinkset)

activate anchor_3

note over anchor_3
The anchor linkset in
the Announce activity
is posted to the anchor
queue to be processed by
the Observer.
end note
anchor_3 - -> Domain3: OK

deactivate Domain3

anchor_2 -> Domain2: anchorLinkset

note left
The anchor linkset
is processed by the
Observer.
end note

activate Domain2

Domain2 -> Domain1: Like activity

activate Domain1
Domain1 -> Domain1: Authenticate Domain2\nusing HTTP signature
Domain1 - -> Domain2: OK

Domain2 - -> anchor_2: ACK

deactivate anchor_2

deactivate Domain2

Domain1 -> Domain1DB: Add Domain2 to\nanchor reference DB
activate Domain1DB
Domain1DB - -> Domain1: OK
deactivate Domain1DB
deactivate Domain1

anchor_3 -> Domain3: anchorLinkset

activate Domain3

note left
The AnchorEvent is
processed by the
Observer.
end note

Domain3 -> Domain2: Like activity

activate Domain2

Domain2 -> Domain2: Authenticate Domain3\nusing HTTP signature
Domain2 - -> Domain3: OK

Domain3 - -> anchor_3: ACK

deactivate anchor_3

Domain2 -> Domain2DB: Add Domain3 to\nanchor reference DB
activate Domain2DB
Domain2DB - -> Domain2: OK
deactivate Domain2DB
deactivate Domain2

Domain3 -> Domain1: Like activity

activate Domain1
Domain1 -> Domain1: Authenticate Domain3\nusing HTTP signature
Domain1 - -> Domain3: OK

deactivate Domain3

Domain1 -> Domain1DB: Add Domain3\nto anchor reference DB
activate Domain1DB
Domain1DB - -> Domain1: OK
deactivate Domain1DB
deactivate Domain1
@enduml

@startuml

box Domain1 #White
participant Domain1
database "Anchor\nReference" as Domain1DB
end box

box Domain2
participant Domain2
database "Anchor\nReference" as Domain2DB
queue "Anchor" as anchor_2
end box

box Domain3 #White
participant Domain3
queue "Anchor" as anchor_3
end box

activate Domain1
Domain1 -> Domain2: Post(Create)
note over Domain1
Post Create (containing
an anchor linkset) to
servers in followers list.
end note

activate Domain2
Domain2 -> Domain2: Authenticate Domain1\nusing HTTP signature
Domain2 - -> Domain1: OK

deactivate Domain1

Domain2 -> anchor_2: Publish(anchorLinkset)

note over anchor_2
The anchor linkset in
the Create activity
is posted to the
anchor queue to be
processed by the
Observer.
end note

activate anchor_2

anchor_2 - -> Domain2: OK

Domain2 -> Domain3: Post(Announce)

activate Domain3

Domain3 -> Domain3: Authenticate Domain2\nusing HTTP signature
Domain3 - -> Domain2: OK

deactivate Domain2

Domain3 -> anchor_3: Publish(anchorLinkset)

activate anchor_3

note over anchor_3
The anchor linkset in
the Announce activity
is posted to the anchor
queue to be processed by
the Observer.
end note
anchor_3 - -> Domain3: OK

deactivate Domain3

anchor_2 -> Domain2: anchorLinkset

note left
The anchor linkset
is processed by the
Observer.
end note

activate Domain2

Domain2 -> Domain1: Like activity

activate Domain1
Domain1 -> Domain1: Authenticate Domain2\nusing HTTP signature
Domain1 - -> Domain2: OK

Domain2 - -> anchor_2: ACK

deactivate anchor_2

deactivate Domain2

Domain1 -> Domain1DB: Add Domain2 to\nanchor reference DB
activate Domain1DB
Domain1DB - -> Domain1: OK
deactivate Domain1DB
deactivate Domain1

anchor_3 -> Domain3: anchorLinkset

activate Domain3

note left
The AnchorEvent is
processed by the
Observer.
end note

Domain3 -> Domain2: Like activity

activate Domain2

Domain2 -> Domain2: Authenticate Domain3\nusing HTTP signature
Domain2 - -> Domain3: OK

Domain3 - -> anchor_3: ACK

deactivate anchor_3

Domain2 -> Domain2DB: Add Domain3 to\nanchor reference DB
activate Domain2DB
Domain2DB - -> Domain2: OK
deactivate Domain2DB
deactivate Domain2

Domain3 -> Domain1: Like activity

activate Domain1
Domain1 -> Domain1: Authenticate Domain3\nusing HTTP signature
Domain1 - -> Domain3: OK

deactivate Domain3

Domain1 -> Domain1DB: Add Domain3\nto anchor reference DB
activate Domain1DB
Domain1DB - -> Domain1: OK
deactivate Domain1DB
deactivate Domain1
@enduml

PlantUML version 1.2022.4beta2(Unknown compile time)
(GPL source distribution)
Java Runtime: Java(TM) SE Runtime Environment
JVM: Java HotSpot(TM) 64-Bit Server VM
Default Encoding: UTF-8
Language: en
Country: US
--></g></svg>