<?xml version="1.0" encoding="UTF-8" standalone="no"?><svg xmlns="http://www.w3.org/2000/svg" xmlns:xlink="http://www.w3.org/1999/xlink" contentStyleType="text/css" height="1811px" preserveAspectRatio="none" style="width:1005px;height:1811px;background:#FFFFFF;" version="1.1" viewBox="0 0 1005 1811" width="1005px" zoomAndPan="magnify"><defs/><g><rect fill="#FFFFFF" height="1792.8203" style="stroke:#181818;stroke-width:0.5;" width="265.5" x="48" y="6"/><text fill="#000000" font-family="sans-serif" font-size="13" font-weight="bold" lengthAdjust="spacing" textLength="66" x="145.25" y="18.0669">Domain1</text><rect fill="#DDDDDD" height="1792.8203" style="stroke:#181818;stroke-width:0.5;" width="364" x="315.5" y="6"/><text fill="#000000" font-family="sans-serif" font-size="13" font-weight="bold" lengthAdjust="spacing" textLength="66" x="464.5" y="18.0669">Domain2</text><rect fill="#FFFFFF" height="1792.8203" style="stroke:#181818;stroke-width:0.5;" width="270.5" x="681.5" y="6"/><text fill="#000000" font-family="sans-serif" font-size="13" font-weight="bold" lengthAdjust="spacing" textLength="65" x="781.75" y="18.0669">Domain3</text><rect fill="#FFFFFF" height="172.9297" style="stroke:#181818;stroke-width:1.0;" width="10" x="86" y="113.7266"/><rect fill="#FFFFFF" height="188.9297" style="stroke:#181818;stroke-width:1.0;" width="10" x="86" y="978.5078"/><rect fill="#FFFFFF" height="159.7969" style="stroke:#181818;stroke-width:1.0;" width="10" x="86" y="1539.4297"/><rect fill="#FFFFFF" height="29.1328" style="stroke:#181818;stroke-width:1.0;" width="10" x="264" y="1138.3047"/><rect fill="#FFFFFF" height="29.1328" style="stroke:#181818;stroke-width:1.0;" width="10" x="264" y="1670.0938"/><rect fill="#FFFFFF" height="478.5234" style="stroke:#181818;stroke-width:1.0;" width="10" x="353" y="134.8594"/><rect fill="#FFFFFF" height="240.3281" style="stroke:#181818;stroke-width:1.0;" width="10" x="353" y="853.7109"/><rect fill="#FFFFFF" height="188.9297" style="stroke:#181818;stroke-width:1.0;" width="10" x="353" y="1321.3672"/><rect fill="#FFFFFF" height="29.1328" style="stroke:#181818;stroke-width:1.0;" width="10" x="521" y="1481.1641"/><rect fill="#FFFFFF" height="705.8516" style="stroke:#181818;stroke-width:1.0;" width="10" x="621" y="388.1875"/><rect fill="#FFFFFF" height="297.5938" style="stroke:#181818;stroke-width:1.0;" width="10" x="719.5" y="526.9844"/><rect fill="#FFFFFF" height="429.2578" style="stroke:#181818;stroke-width:1.0;" width="10" x="719.5" y="1196.5703"/><rect fill="#FFFFFF" height="721.9844" style="stroke:#181818;stroke-width:1.0;" width="10" x="893.5" y="714.9141"/><line style="stroke:#181818;stroke-width:0.5;stroke-dasharray:5.0,5.0;" x1="91" x2="91" y1="103.7266" y2="1717.2266"/><line style="stroke:#181818;stroke-width:0.5;stroke-dasharray:5.0,5.0;" x1="268.5" x2="268.5" y1="103.7266" y2="1717.2266"/><line style="stroke:#181818;stroke-width:0.5;stroke-dasharray:5.0,5.0;" x1="357.5" x2="357.5" y1="103.7266" y2="1717.2266"/><line style="stroke:#181818;stroke-width:0.5;stroke-dasharray:5.0,5.0;" x1="525.5" x2="525.5" y1="103.7266" y2="1717.2266"/><line style="stroke:#181818;stroke-width:0.5;stroke-dasharray:5.0,5.0;" x1="625.5" x2="625.5" y1="103.7266" y2="1717.2266"/><line style="stroke:#181818;stroke-width:0.5;stroke-dasharray:5.0,5.0;" x1="724.5" x2="724.5" y1="103.7266" y2="1717.2266"/><line style="stroke:#181818;stroke-width:0.5;stroke-dasharray:5.0,5.0;" x1="898" x2="898" y1="103.7266" y2="1717.2266"/><rect fill="#E2E2F0" height="30.2969" rx="2.5" ry="2.5" style="stroke:#181818;stroke-width:0.5;" width="78" x="52" y="72.4297"/><text fill="#000000" font-family="sans-serif" font-size="14" lengthAdjust="spacing" textLength="64" x="59" y="92.4248">Domain1</text><rect fill="#E2E2F0" height="30.2969" rx="2.5" ry="2.5" style="stroke:#181818;stroke-width:0.5;" width="78" x="52" y="1716.2266"/><text fill="#000000" font-family="sans-serif" font-size="14" lengthAdjust="spacing" textLength="64" x="59" y="1736.2217">Domain1</text><text fill="#000000" font-family="sans-serif" font-size="14" lengthAdjust="spacing" textLength="51" x="240.5" y="84.1279">Anchor</text><text fill="#000000" font-family="sans-serif" font-size="14" lengthAdjust="spacing" textLength="75" x="228.5" y="100.4248">Reference</text><path d="M251,35.1328 C251,25.1328 269,25.1328 269,25.1328 C269,25.1328 287,25.1328 287,35.1328 L287,61.1328 C287,71.1328 269,71.1328 269,71.1328 C269,71.1328 251,71.1328 251,61.1328 L251,35.1328 " fill="#E2E2F0" style="stroke:#181818;stroke-width:1.5;"/><path d="M251,35.1328 C251,45.1328 269,45.1328 269,45.1328 C269,45.1328 287,45.1328 287,35.1328 " fill="none" style="stroke:#181818;stroke-width:1.5;"/><text fill="#000000" font-family="sans-serif" font-size="14" lengthAdjust="spacing" textLength="51" x="240.5" y="1729.2217">Anchor</text><text fill="#000000" font-family="sans-serif" font-size="14" lengthAdjust="spacing" textLength="75" x="228.5" y="1745.5186">Reference</text><path d="M251,1758.8203 C251,1748.8203 269,1748.8203 269,1748.8203 C269,1748.8203 287,1748.8203 287,1758.8203 L287,1784.8203 C287,1794.8203 269,1794.8203 269,1794.8203 C269,1794.8203 251,1794.8203 251,1784.8203 L251,1758.8203 " fill="#E2E2F0" style="stroke:#181818;stroke-width:1.5;"/><path d="M251,1758.8203 C251,1768.8203 269,1768.8203 269,1768.8203 C269,1768.8203 287,1768.8203 287,1758.8203 " fill="none" style="stroke:#181818;stroke-width:1.5;"/><rect fill="#E2E2F0" height="30.2969" rx="2.5" ry="2.5" style="stroke:#181818;stroke-width:0.5;" width="77" x="319.5" y="72.4297"/><text fill="#000000" font-family="sans-serif" font-size="14" lengthAdjust="spacing" textLength="63" x="326.5" y="92.4248">Domain2</text><rect fill="#E2E2F0" height="30.2969" rx="2.5" ry="2.5" style="stroke:#181818;stroke-width:0.5;" width="77" x="319.5" y="1716.2266"/><text fill="#000000" font-family="sans-serif" font-size="14" lengthAdjust="spacing" textLength="63" x="326.5" y="1736.2217">Domain2</text><text fill="#000000" font-family="sans-serif" font-size="14" lengthAdjust="spacing" textLength="51" x="497.5" y="84.1279">Anchor</text><text fill="#000000" font-family="sans-serif" font-size="14" lengthAdjust="spacing" textLength="75" x="485.5" y="100.4248">Reference</text><path d="M508,35.1328 C508,25.1328 526,25.1328 526,25.1328 C526,25.1328 544,25.1328 544,35.1328 L544,61.1328 C544,71.1328 526,71.1328 526,71.1328 C526,71.1328 508,71.1328 508,61.1328 L508,35.1328 " fill="#E2E2F0" style="stroke:#181818;stroke-width:1.5;"/><path d="M508,35.1328 C508,45.1328 526,45.1328 526,45.1328 C526,45.1328 544,45.1328 544,35.1328 " fill="none" style="stroke:#181818;stroke-width:1.5;"/><text fill="#000000" font-family="sans-serif" font-size="14" lengthAdjust="spacing" textLength="51" x="497.5" y="1729.2217">Anchor</text><text fill="#000000" font-family="sans-serif" font-size="14" lengthAdjust="spacing" textLength="75" x="485.5" y="1745.5186">Reference</text><path d="M508,1758.8203 C508,1748.8203 526,1748.8203 526,1748.8203 C526,1748.8203 544,1748.8203 544,1758.8203 L544,1784.8203 C544,1794.8203 526,1794.8203 526,1794.8203 C526,1794.8203 508,1794.8203 508,1784.8203 L508,1758.8203 " fill="#E2E2F0" style="stroke:#181818;stroke-width:1.5;"/><path d="M508,1758.8203 C508,1768.8203 526,1768.8203 526,1768.8203 C526,1768.8203 544,1768.8203 544,1758.8203 " fill="none" style="stroke:#181818;stroke-width:1.5;"/><path d="M581.5,77.4297 L670.5,77.4297 C675.5,77.4297 675.5,90.5781 675.5,90.5781 C675.5,90.5781 675.5,103.7266 670.5,103.7266 L581.5,103.7266 C576.5,103.7266 576.5,90.5781 576.5,90.5781 C576.5,90.5781 576.5,77.4297 581.5,77.4297 " fill="#E2E2F0" style="stroke:#181818;stroke-width:0.5;"/><path d="M670.5,77.4297 C665.5,77.4297 665.5,90.5781 665.5,90.5781 C665.5,103.7266 670.5,103.7266 670.5,103.7266 " fill="none" style="stroke:#181818;stroke-width:0.5;"/><text fill="#000000" font-family="sans-serif" font-size="14" lengthAdjust="spacing" textLength="79" x="581.5" y="95.4248">orb.anchor</text><path d="M581.5,1716.2266 L670.5,1716.2266 C675.5,1716.2266 675.5,1729.375 675.5,1729.375 C675.5,1729.375 675.5,1742.5234 670.5,1742.5234 L581.5,1742.5234 C576.5,1742.5234 576.5,1729.375 576.5,1729.375 C576.5,1729.375 576.5,1716.2266 581.5,1716.2266 " fill="#E2E2F0" style="stroke:#181818;stroke-width:0.5;"/><path d="M670.5,1716.2266 C665.5,1716.2266 665.5,1729.375 665.5,1729.375 C665.5,1742.5234 670.5,1742.5234 670.5,1742.5234 " fill="none" style="stroke:#181818;stroke-width:0.5;"/><text fill="#000000" font-family="sans-serif" font-size="14" lengthAdjust="spacing" textLength="79" x="581.5" y="1734.2217">orb.anchor</text><rect fill="#E2E2F0" height="30.2969" rx="2.5" ry="2.5" style="stroke:#181818;stroke-width:0.5;" width="78" x="685.5" y="72.4297"/><text fill="#000000" font-family="sans-serif" font-size="14" lengthAdjust="spacing" textLength="64" x="692.5" y="92.4248">Domain3</text><rect fill="#E2E2F0" height="30.2969" rx="2.5" ry="2.5" style="stroke:#181818;stroke-width:0.5;" width="78" x="685.5" y="1716.2266"/><text fill="#000000" font-family="sans-serif" font-size="14" lengthAdjust="spacing" textLength="64" x="692.5" y="1736.2217">Domain3</text><path d="M854,77.4297 L943,77.4297 C948,77.4297 948,90.5781 948,90.5781 C948,90.5781 948,103.7266 943,103.7266 L854,103.7266 C849,103.7266 849,90.5781 849,90.5781 C849,90.5781 849,77.4297 854,77.4297 " fill="#E2E2F0" style="stroke:#181818;stroke-width:0.5;"/><path d="M943,77.4297 C938,77.4297 938,90.5781 938,90.5781 C938,103.7266 943,103.7266 943,103.7266 " fill="none" style="stroke:#181818;stroke-width:0.5;"/><text fill="#000000" font-family="sans-serif" font-size="14" lengthAdjust="spacing" textLength="79" x="854" y="95.4248">orb.anchor</text><path d="M854,1716.2266 L943,1716.2266 C948,1716.2266 948,1729.375 948,1729.375 C948,1729.375 948,1742.5234 943,1742.5234 L854,1742.5234 C849,1742.5234 849,1729.375 849,1729.375 C849,1729.375 849,1716.2266 854,1716.2266 " fill="#E2E2F0" style="stroke:#181818;stroke-width:0.5;"/><path d="M943,1716.2266 C938,1716.2266 938,1729.375 938,1729.375 C938,1742.5234 943,1742.5234 943,1742.5234 " fill="none" style="stroke:#181818;stroke-width:0.5;"/><text fill="#000000" font-family="sans-serif" font-size="14" lengthAdjust="spacing" textLength="79" x="854" y="1734.2217">orb.anchor</text><rect fill="#FFFFFF" height="172.9297" style="stroke:#181818;stroke-width:1.0;" width="10" x="86" y="113.7266"/><rect fill="#FFFFFF" height="188.9297" style="stroke:#181818;stroke-width:1.0;" width="10" x="86" y="978.5078"/><rect fill="#FFFFFF" height="159.7969" style="stroke:#181818;stroke-width:1.0;" width="10" x="86" y="1539.4297"/><rect fill="#FFFFFF" height="29.1328" style="stroke:#181818;stroke-width:1.0;" width="10" x="264" y="1138.3047"/><rect fill="#FFFFFF" height="29.1328" style="stroke:#181818;stroke-width:1.0;" width="10" x="264" y="1670.0938"/><rect fill="#FFFFFF" height="478.5234" style="stroke:#181818;stroke-width:1.0;" width="10" x="353" y="134.8594"/><rect fill="#FFFFFF" height="240.3281" style="stroke:#181818;stroke-width:1.0;" width="10" x="353" y="853.7109"/><rect fill="#FFFFFF" height="188.9297" style="stroke:#181818;stroke-width:1.0;" width="10" x="353" y="1321.3672"/><rect fill="#FFFFFF" height="29.1328" style="stroke:#181818;stroke-width:1.0;" width="10" x="521" y="1481.1641"/><rect fill="#FFFFFF" height="705.8516" style="stroke:#181818;stroke-width:1.0;" width="10" x="621" y="388.1875"/><rect fill="#FFFFFF" height="297.5938" style="stroke:#181818;stroke-width:1.0;" width="10" x="719.5" y="526.9844"/><rect fill="#FFFFFF" height="429.2578" style="stroke:#181818;stroke-width:1.0;" width="10" x="719.5" y="1196.5703"/><rect fill="#FFFFFF" height="721.9844" style="stroke:#181818;stroke-width:1.0;" width="10" x="893.5" y="714.9141"/><polygon fill="#181818" points="341,130.8594,351,134.8594,341,138.8594,345,134.8594" style="stroke:#181818;stroke-width:1.0;"/><line style="stroke:#181818;stroke-width:1.0;" x1="96" x2="347" y1="134.8594" y2="134.8594"/><text fill="#000000" font-family="sans-serif" font-size="13" lengthAdjust="spacing" textLength="81" x="103" y="129.7935">Post(Create)</text><path d="M5,147.8594 L5,202.8594 L177,202.8594 L177,157.8594 L167,147.8594 L5,147.8594 " fill="#FEFFDD" style="stroke:#181818;stroke-width:0.5;"/><path d="M167,147.8594 L167,157.8594 L177,157.8594 L167,147.8594 " fill="#FEFFDD" style="stroke:#181818;stroke-width:0.5;"/><text fill="#000000" font-family="sans-serif" font-size="13" lengthAdjust="spacing" textLength="150" x="11" y="164.9263">Post Create (containing</text><text fill="#000000" font-family="sans-serif" font-size="13" lengthAdjust="spacing" textLength="131" x="11" y="180.0591">an anchor linkset) to</text><text fill="#000000" font-family="sans-serif" font-size="13" lengthAdjust="spacing" textLength="151" x="11" y="195.1919">servers in followers list.</text><line style="stroke:#181818;stroke-width:1.0;" x1="363" x2="405" y1="244.5234" y2="244.5234"/><line style="stroke:#181818;stroke-width:1.0;" x1="405" x2="405" y1="244.5234" y2="257.5234"/><line style="stroke:#181818;stroke-width:1.0;" x1="364" x2="405" y1="257.5234" y2="257.5234"/><polygon fill="#181818" points="374,253.5234,364,257.5234,374,261.5234,370,257.5234" style="stroke:#181818;stroke-width:1.0;"/><text fill="#000000" font-family="sans-serif" font-size="13" lengthAdjust="spacing" textLength="144" x="370" y="224.3247">Authenticate Domain1</text><text fill="#000000" font-family="sans-serif" font-size="13" lengthAdjust="spacing" textLength="135" x="370" y="239.4575">using HTTP signature</text><polygon fill="#181818" points="102,282.6563,92,286.6563,102,290.6563,98,286.6563" style="stroke:#181818;stroke-width:1.0;"/><line style="stroke:#181818;stroke-width:1.0;stroke-dasharray:2.0,2.0;" x1="96" x2="352" y1="286.6563" y2="286.6563"/><text fill="#000000" font-family="sans-serif" font-size="13" lengthAdjust="spacing" textLength="18" x="108" y="281.5903">OK</text><line style="stroke:#181818;stroke-width:1.0;" x1="363" x2="405" y1="346.0547" y2="346.0547"/><line style="stroke:#181818;stroke-width:1.0;" x1="405" x2="405" y1="346.0547" y2="359.0547"/><line style="stroke:#181818;stroke-width:1.0;" x1="364" x2="405" y1="359.0547" y2="359.0547"/><polygon fill="#181818" points="374,355.0547,364,359.0547,374,363.0547,370,359.0547" style="stroke:#181818;stroke-width:1.0;"/><text fill="#000000" font-family="sans-serif" font-size="13" lengthAdjust="spacing" textLength="139" x="370" y="310.7231">Extract anchor linkset</text><text fill="#000000" font-family="sans-serif" font-size="13" lengthAdjust="spacing" textLength="129" x="370" y="325.856">from Create activity</text><text fill="#000000" font-family="sans-serif" font-size="13" lengthAdjust="spacing" textLength="108" x="370" y="340.9888">and store to CAS</text><polygon fill="#181818" points="609,384.1875,619,388.1875,609,392.1875,613,388.1875" style="stroke:#181818;stroke-width:1.0;"/><line style="stroke:#181818;stroke-width:1.0;" x1="363" x2="615" y1="388.1875" y2="388.1875"/><text fill="#000000" font-family="sans-serif" font-size="13" lengthAdjust="spacing" textLength="123" x="370" y="383.1216">Publish(anchorInfo)</text><path d="M526,401.1875 L526,471.1875 L725,471.1875 L725,411.1875 L715,401.1875 L526,401.1875 " fill="#FEFFDD" style="stroke:#181818;stroke-width:0.5;"/><path d="M715,401.1875 L715,411.1875 L725,411.1875 L715,401.1875 " fill="#FEFFDD" style="stroke:#181818;stroke-width:0.5;"/><text fill="#000000" font-family="sans-serif" font-size="13" lengthAdjust="spacing" textLength="170" x="532" y="418.2544">The hashlink of the anchor</text><text fill="#000000" font-family="sans-serif" font-size="13" lengthAdjust="spacing" textLength="120" x="532" y="433.3872">linkset is posted to</text><text fill="#000000" font-family="sans-serif" font-size="13" lengthAdjust="spacing" textLength="150" x="532" y="448.52">the anchor queue to be</text><text fill="#000000" font-family="sans-serif" font-size="13" lengthAdjust="spacing" textLength="178" x="532" y="463.6528">processed by the Observer.</text><polygon fill="#181818" points="374,493.8516,364,497.8516,374,501.8516,370,497.8516" style="stroke:#181818;stroke-width:1.0;"/><line style="stroke:#181818;stroke-width:1.0;stroke-dasharray:2.0,2.0;" x1="368" x2="620" y1="497.8516" y2="497.8516"/><text fill="#000000" font-family="sans-serif" font-size="13" lengthAdjust="spacing" textLength="18" x="380" y="492.7856">OK</text><polygon fill="#181818" points="707.5,522.9844,717.5,526.9844,707.5,530.9844,711.5,526.9844" style="stroke:#181818;stroke-width:1.0;"/><line style="stroke:#181818;stroke-width:1.0;" x1="363" x2="713.5" y1="526.9844" y2="526.9844"/><text fill="#000000" font-family="sans-serif" font-size="13" lengthAdjust="spacing" textLength="102" x="370" y="521.9185">Post(Announce)</text><line style="stroke:#181818;stroke-width:1.0;" x1="729.5" x2="771.5" y1="571.25" y2="571.25"/><line style="stroke:#181818;stroke-width:1.0;" x1="771.5" x2="771.5" y1="571.25" y2="584.25"/><line style="stroke:#181818;stroke-width:1.0;" x1="730.5" x2="771.5" y1="584.25" y2="584.25"/><polygon fill="#181818" points="740.5,580.25,730.5,584.25,740.5,588.25,736.5,584.25" style="stroke:#181818;stroke-width:1.0;"/><text fill="#000000" font-family="sans-serif" font-size="13" lengthAdjust="spacing" textLength="144" x="736.5" y="551.0513">Authenticate Domain2</text><text fill="#000000" font-family="sans-serif" font-size="13" lengthAdjust="spacing" textLength="135" x="736.5" y="566.1841">using HTTP signature</text><polygon fill="#181818" points="369,609.3828,359,613.3828,369,617.3828,365,613.3828" style="stroke:#181818;stroke-width:1.0;"/><line style="stroke:#181818;stroke-width:1.0;stroke-dasharray:2.0,2.0;" x1="363" x2="718.5" y1="613.3828" y2="613.3828"/><text fill="#000000" font-family="sans-serif" font-size="13" lengthAdjust="spacing" textLength="18" x="375" y="608.3169">OK</text><line style="stroke:#181818;stroke-width:1.0;" x1="729.5" x2="771.5" y1="672.7813" y2="672.7813"/><line style="stroke:#181818;stroke-width:1.0;" x1="771.5" x2="771.5" y1="672.7813" y2="685.7813"/><line style="stroke:#181818;stroke-width:1.0;" x1="730.5" x2="771.5" y1="685.7813" y2="685.7813"/><polygon fill="#181818" points="740.5,681.7813,730.5,685.7813,740.5,689.7813,736.5,685.7813" style="stroke:#181818;stroke-width:1.0;"/><text fill="#000000" font-family="sans-serif" font-size="13" lengthAdjust="spacing" textLength="139" x="736.5" y="637.4497">Extract anchor linkset</text><text fill="#000000" font-family="sans-serif" font-size="13" lengthAdjust="spacing" textLength="150" x="736.5" y="652.5825">from Announce activity</text><text fill="#000000" font-family="sans-serif" font-size="13" lengthAdjust="spacing" textLength="108" x="736.5" y="667.7153">and store to CAS</text><polygon fill="#181818" points="881.5,710.9141,891.5,714.9141,881.5,718.9141,885.5,714.9141" style="stroke:#181818;stroke-width:1.0;"/><line style="stroke:#181818;stroke-width:1.0;" x1="729.5" x2="887.5" y1="714.9141" y2="714.9141"/><text fill="#000000" font-family="sans-serif" font-size="13" lengthAdjust="spacing" textLength="123" x="736.5" y="709.8481">Publish(anchorInfo)</text><path d="M799,727.9141 L799,797.9141 L998,797.9141 L998,737.9141 L988,727.9141 L799,727.9141 " fill="#FEFFDD" style="stroke:#181818;stroke-width:0.5;"/><path d="M988,727.9141 L988,737.9141 L998,737.9141 L988,727.9141 " fill="#FEFFDD" style="stroke:#181818;stroke-width:0.5;"/><text fill="#000000" font-family="sans-serif" font-size="13" lengthAdjust="spacing" textLength="170" x="805" y="744.981">The hashlink of the anchor</text><text fill="#000000" font-family="sans-serif" font-size="13" lengthAdjust="spacing" textLength="120" x="805" y="760.1138">linkset is posted to</text><text fill="#000000" font-family="sans-serif" font-size="13" lengthAdjust="spacing" textLength="150" x="805" y="775.2466">the anchor queue to be</text><text fill="#000000" font-family="sans-serif" font-size="13" lengthAdjust="spacing" textLength="178" x="805" y="790.3794">processed by the Observer.</text><polygon fill="#181818" points="735.5,820.5781,725.5,824.5781,735.5,828.5781,731.5,824.5781" style="stroke:#181818;stroke-width:1.0;"/><line style="stroke:#181818;stroke-width:1.0;stroke-dasharray:2.0,2.0;" x1="729.5" x2="892.5" y1="824.5781" y2="824.5781"/><text fill="#000000" font-family="sans-serif" font-size="13" lengthAdjust="spacing" textLength="18" x="741.5" y="819.5122">OK</text><polygon fill="#181818" points="374,849.7109,364,853.7109,374,857.7109,370,853.7109" style="stroke:#181818;stroke-width:1.0;"/><line style="stroke:#181818;stroke-width:1.0;" x1="368" x2="620" y1="853.7109" y2="853.7109"/><text fill="#000000" font-family="sans-serif" font-size="13" lengthAdjust="spacing" textLength="68" x="380" y="848.645">anchorInfo</text><path d="M250,866.7109 L250,951.7109 L466,951.7109 L466,876.7109 L456,866.7109 L250,866.7109 " fill="#FEFFDD" style="stroke:#181818;stroke-width:0.5;"/><path d="M456,866.7109 L456,876.7109 L466,876.7109 L456,866.7109 " fill="#FEFFDD" style="stroke:#181818;stroke-width:0.5;"/><text fill="#000000" font-family="sans-serif" font-size="13" lengthAdjust="spacing" textLength="193" x="256" y="883.7778">The anchor linkset is retrieved</text><text fill="#000000" font-family="sans-serif" font-size="13" lengthAdjust="spacing" textLength="195" x="256" y="898.9106">from CAS using the hashlink in</text><text fill="#000000" font-family="sans-serif" font-size="13" lengthAdjust="spacing" textLength="194" x="256" y="914.0435">the anchorInfo and the anchor</text><text fill="#000000" font-family="sans-serif" font-size="13" lengthAdjust="spacing" textLength="170" x="256" y="929.1763">linkset is processed by the</text><text fill="#000000" font-family="sans-serif" font-size="13" lengthAdjust="spacing" textLength="63" x="256" y="944.3091">Observer.</text><polygon fill="#181818" points="107,974.5078,97,978.5078,107,982.5078,103,978.5078" style="stroke:#181818;stroke-width:1.0;"/><line style="stroke:#181818;stroke-width:1.0;" x1="101" x2="352" y1="978.5078" y2="978.5078"/><text fill="#000000" font-family="sans-serif" font-size="13" lengthAdjust="spacing" textLength="76" x="113" y="973.4419">Like activity</text><line style="stroke:#181818;stroke-width:1.0;" x1="96" x2="138" y1="1022.7734" y2="1022.7734"/><line style="stroke:#181818;stroke-width:1.0;" x1="138" x2="138" y1="1022.7734" y2="1035.7734"/><line style="stroke:#181818;stroke-width:1.0;" x1="97" x2="138" y1="1035.7734" y2="1035.7734"/><polygon fill="#181818" points="107,1031.7734,97,1035.7734,107,1039.7734,103,1035.7734" style="stroke:#181818;stroke-width:1.0;"/><text fill="#000000" font-family="sans-serif" font-size="13" lengthAdjust="spacing" textLength="144" x="103" y="1002.5747">Authenticate Domain2</text><text fill="#000000" font-family="sans-serif" font-size="13" lengthAdjust="spacing" textLength="135" x="103" y="1017.7075">using HTTP signature</text><polygon fill="#181818" points="341,1060.9063,351,1064.9063,341,1068.9063,345,1064.9063" style="stroke:#181818;stroke-width:1.0;"/><line style="stroke:#181818;stroke-width:1.0;stroke-dasharray:2.0,2.0;" x1="96" x2="347" y1="1064.9063" y2="1064.9063"/><text fill="#000000" font-family="sans-serif" font-size="13" lengthAdjust="spacing" textLength="18" x="103" y="1059.8403">OK</text><polygon fill="#181818" points="614,1090.0391,624,1094.0391,614,1098.0391,618,1094.0391" style="stroke:#181818;stroke-width:1.0;"/><line style="stroke:#181818;stroke-width:1.0;stroke-dasharray:2.0,2.0;" x1="358" x2="620" y1="1094.0391" y2="1094.0391"/><text fill="#000000" font-family="sans-serif" font-size="13" lengthAdjust="spacing" textLength="26" x="365" y="1088.9731">ACK</text><polygon fill="#181818" points="252,1134.3047,262,1138.3047,252,1142.3047,256,1138.3047" style="stroke:#181818;stroke-width:1.0;"/><line style="stroke:#181818;stroke-width:1.0;" x1="96" x2="258" y1="1138.3047" y2="1138.3047"/><text fill="#000000" font-family="sans-serif" font-size="13" lengthAdjust="spacing" textLength="104" x="103" y="1118.106">Add Domain2 to</text><text fill="#000000" font-family="sans-serif" font-size="13" lengthAdjust="spacing" textLength="132" x="103" y="1133.2388">anchor reference DB</text><polygon fill="#181818" points="102,1163.4375,92,1167.4375,102,1171.4375,98,1167.4375" style="stroke:#181818;stroke-width:1.0;"/><line style="stroke:#181818;stroke-width:1.0;stroke-dasharray:2.0,2.0;" x1="96" x2="268" y1="1167.4375" y2="1167.4375"/><text fill="#000000" font-family="sans-serif" font-size="13" lengthAdjust="spacing" textLength="18" x="108" y="1162.3716">OK</text><polygon fill="#181818" points="740.5,1192.5703,730.5,1196.5703,740.5,1200.5703,736.5,1196.5703" style="stroke:#181818;stroke-width:1.0;"/><line style="stroke:#181818;stroke-width:1.0;" x1="734.5" x2="892.5" y1="1196.5703" y2="1196.5703"/><text fill="#000000" font-family="sans-serif" font-size="13" lengthAdjust="spacing" textLength="68" x="746.5" y="1191.5044">anchorInfo</text><path d="M616,1209.5703 L616,1294.5703 L832,1294.5703 L832,1219.5703 L822,1209.5703 L616,1209.5703 " fill="#FEFFDD" style="stroke:#181818;stroke-width:0.5;"/><path d="M822,1209.5703 L822,1219.5703 L832,1219.5703 L822,1209.5703 " fill="#FEFFDD" style="stroke:#181818;stroke-width:0.5;"/><text fill="#000000" font-family="sans-serif" font-size="13" lengthAdjust="spacing" textLength="193" x="622" y="1226.6372">The anchor linkset is retrieved</text><text fill="#000000" font-family="sans-serif" font-size="13" lengthAdjust="spacing" textLength="195" x="622" y="1241.77">from CAS using the hashlink in</text><text fill="#000000" font-family="sans-serif" font-size="13" lengthAdjust="spacing" textLength="194" x="622" y="1256.9028">the anchorInfo and the anchor</text><text fill="#000000" font-family="sans-serif" font-size="13" lengthAdjust="spacing" textLength="170" x="622" y="1272.0356">linkset is processed by the</text><text fill="#000000" font-family="sans-serif" font-size="13" lengthAdjust="spacing" textLength="63" x="622" y="1287.1685">Observer.</text><polygon fill="#181818" points="374,1317.3672,364,1321.3672,374,1325.3672,370,1321.3672" style="stroke:#181818;stroke-width:1.0;"/><line style="stroke:#181818;stroke-width:1.0;" x1="368" x2="718.5" y1="1321.3672" y2="1321.3672"/><text fill="#000000" font-family="sans-serif" font-size="13" lengthAdjust="spacing" textLength="76" x="380" y="1316.3013">Like activity</text><line style="stroke:#181818;stroke-width:1.0;" x1="363" x2="405" y1="1365.6328" y2="1365.6328"/><line style="stroke:#181818;stroke-width:1.0;" x1="405" x2="405" y1="1365.6328" y2="1378.6328"/><line style="stroke:#181818;stroke-width:1.0;" x1="364" x2="405" y1="1378.6328" y2="1378.6328"/><polygon fill="#181818" points="374,1374.6328,364,1378.6328,374,1382.6328,370,1378.6328" style="stroke:#181818;stroke-width:1.0;"/><text fill="#000000" font-family="sans-serif" font-size="13" lengthAdjust="spacing" textLength="144" x="370" y="1345.4341">Authenticate Domain3</text><text fill="#000000" font-family="sans-serif" font-size="13" lengthAdjust="spacing" textLength="135" x="370" y="1360.5669">using HTTP signature</text><polygon fill="#181818" points="707.5,1403.7656,717.5,1407.7656,707.5,1411.7656,711.5,1407.7656" style="stroke:#181818;stroke-width:1.0;"/><line style="stroke:#181818;stroke-width:1.0;stroke-dasharray:2.0,2.0;" x1="363" x2="713.5" y1="1407.7656" y2="1407.7656"/><text fill="#000000" font-family="sans-serif" font-size="13" lengthAdjust="spacing" textLength="18" x="370" y="1402.6997">OK</text><polygon fill="#181818" points="886.5,1432.8984,896.5,1436.8984,886.5,1440.8984,890.5,1436.8984" style="stroke:#181818;stroke-width:1.0;"/><line style="stroke:#181818;stroke-width:1.0;stroke-dasharray:2.0,2.0;" x1="729.5" x2="892.5" y1="1436.8984" y2="1436.8984"/><text fill="#000000" font-family="sans-serif" font-size="13" lengthAdjust="spacing" textLength="26" x="736.5" y="1431.8325">ACK</text><polygon fill="#181818" points="509,1477.1641,519,1481.1641,509,1485.1641,513,1481.1641" style="stroke:#181818;stroke-width:1.0;"/><line style="stroke:#181818;stroke-width:1.0;" x1="363" x2="515" y1="1481.1641" y2="1481.1641"/><text fill="#000000" font-family="sans-serif" font-size="13" lengthAdjust="spacing" textLength="104" x="370" y="1460.9653">Add Domain3 to</text><text fill="#000000" font-family="sans-serif" font-size="13" lengthAdjust="spacing" textLength="132" x="370" y="1476.0981">anchor reference DB</text><polygon fill="#181818" points="369,1506.2969,359,1510.2969,369,1514.2969,365,1510.2969" style="stroke:#181818;stroke-width:1.0;"/><line style="stroke:#181818;stroke-width:1.0;stroke-dasharray:2.0,2.0;" x1="363" x2="525" y1="1510.2969" y2="1510.2969"/><text fill="#000000" font-family="sans-serif" font-size="13" lengthAdjust="spacing" textLength="18" x="375" y="1505.231">OK</text><polygon fill="#181818" points="107,1535.4297,97,1539.4297,107,1543.4297,103,1539.4297" style="stroke:#181818;stroke-width:1.0;"/><line style="stroke:#181818;stroke-width:1.0;" x1="101" x2="718.5" y1="1539.4297" y2="1539.4297"/><text fill="#000000" font-family="sans-serif" font-size="13" lengthAdjust="spacing" textLength="76" x="113" y="1534.3638">Like activity</text><line style="stroke:#181818;stroke-width:1.0;" x1="96" x2="138" y1="1583.6953" y2="1583.6953"/><line style="stroke:#181818;stroke-width:1.0;" x1="138" x2="138" y1="1583.6953" y2="1596.6953"/><line style="stroke:#181818;stroke-width:1.0;" x1="97" x2="138" y1="1596.6953" y2="1596.6953"/><polygon fill="#181818" points="107,1592.6953,97,1596.6953,107,1600.6953,103,1596.6953" style="stroke:#181818;stroke-width:1.0;"/><text fill="#000000" font-family="sans-serif" font-size="13" lengthAdjust="spacing" textLength="144" x="103" y="1563.4966">Authenticate Domain3</text><text fill="#000000" font-family="sans-serif" font-size="13" lengthAdjust="spacing" textLength="135" x="103" y="1578.6294">using HTTP signature</text><polygon fill="#181818" points="712.5,1621.8281,722.5,1625.8281,712.5,1629.8281,716.5,1625.8281" style="stroke:#181818;stroke-width:1.0;"/><line style="stroke:#181818;stroke-width:1.0;stroke-dasharray:2.0,2.0;" x1="96" x2="718.5" y1="1625.8281" y2="1625.8281"/><text fill="#000000" font-family="sans-serif" font-size="13" lengthAdjust="spacing" textLength="18" x="103" y="1620.7622">OK</text><polygon fill="#181818" points="252,1666.0938,262,1670.0938,252,1674.0938,256,1670.0938" style="stroke:#181818;stroke-width:1.0;"/><line style="stroke:#181818;stroke-width:1.0;" x1="96" x2="258" y1="1670.0938" y2="1670.0938"/><text fill="#000000" font-family="sans-serif" font-size="13" lengthAdjust="spacing" textLength="87" x="103" y="1649.895">Add Domain3</text><text fill="#000000" font-family="sans-serif" font-size="13" lengthAdjust="spacing" textLength="149" x="103" y="1665.0278">to anchor reference DB</text><polygon fill="#181818" points="102,1695.2266,92,1699.2266,102,1703.2266,98,1699.2266" style="stroke:#181818;stroke-width:1.0;"/><line style="stroke:#181818;stroke-width:1.0;stroke-dasharray:2.0,2.0;" x1="96" x2="268" y1="1699.2266" y2="1699.2266"/><text fill="#000000" font-family="sans-serif" font-size="13" lengthAdjust="spacing" textLength="18" x="108" y="1694.1606">OK</text><!--MD5=[6fe0338cfe019641c65049c3b759c10e]
@startuml
'https://plantuml.com/sequence-diagram

box Domain1 #White
participant Domain1
database "Anchor\nReference" as Domain1DB
end box

box Domain2
participant Domain2
database "Anchor\nReference" as Domain2DB
queue "orb.anchor" as anchor_2
end box

box Domain3 #White
participant Domain3
queue "orb.anchor" as anchor_3
end box

activate Domain1
Domain1 -> Domain2: Post(Create)
note over Domain1
Post Create (containing
an anchor linkset) to
servers in followers list.
end note

activate Domain2
Domain2 -> Domain2: Authenticate Domain1\nusing HTTP signature
Domain2 - -> Domain1: OK

deactivate Domain1

Domain2 -> Domain2: Extract anchor linkset\nfrom Create activity\nand store to CAS

Domain2 -> anchor_2: Publish(anchorInfo)

note over anchor_2
The hashlink of the anchor
linkset is posted to
the anchor queue to be
processed by the Observer.
end note

activate anchor_2

anchor_2 - -> Domain2: OK

Domain2 -> Domain3: Post(Announce)

activate Domain3

Domain3 -> Domain3: Authenticate Domain2\nusing HTTP signature
Domain3 - -> Domain2: OK

deactivate Domain2

Domain3 -> Domain3: Extract anchor linkset\nfrom Announce activity\nand store to CAS

Domain3 -> anchor_3: Publish(anchorInfo)

activate anchor_3

note over anchor_3
The hashlink of the anchor
linkset is posted to
the anchor queue to be
processed by the Observer.
end note
anchor_3 - -> Domain3: OK

deactivate Domain3

anchor_2 -> Domain2: anchorInfo

activate Domain2

note over Domain2
The anchor linkset is retrieved
from CAS using the hashlink in
the anchorInfo and the anchor
linkset is processed by the
Observer.
end note

Domain2 -> Domain1: Like activity

activate Domain1
Domain1 -> Domain1: Authenticate Domain2\nusing HTTP signature
Domain1 - -> Domain2: OK

Domain2 - -> anchor_2: ACK

deactivate anchor_2

deactivate Domain2

Domain1 -> Domain1DB: Add Domain2 to\nanchor reference DB
activate Domain1DB
Domain1DB - -> Domain1: OK
deactivate Domain1DB
deactivate Domain1

anchor_3 -> Domain3: anchorInfo

activate Domain3

note over Domain3
The anchor linkset is retrieved
from CAS using the hashlink in
the anchorInfo and the anchor
linkset is processed by the
Observer.
end note

Domain3 -> Domain2: Like activity

activate Domain2

Domain2 -> Domain2: Authenticate Domain3\nusing HTTP signature
Domain2 - -> Domain3: OK

Domain3 - -> anchor_3: ACK

deactivate anchor_3

Domain2 -> Domain2DB: Add Domain3 to\nanchor reference DB
activate Domain2DB
Domain2DB - -> Domain2: OK
deactivate Domain2DB
deactivate Domain2

Domain3 -> Domain1: Like activity

activate Domain1
Domain1 -> Domain1: Authenticate Domain3\nusing HTTP signature
Domain1 - -> Domain3: OK

deactivate Domain3

Domain1 -> Domain1DB: Add Domain3\nto anchor reference DB
activate Domain1DB
Domain1DB - -> Domain1: OK
deactivate Domain1DB
deactivate Domain1
@enduml

@startuml

box Domain1 #White
participant Domain1
database "Anchor\nReference" as Domain1DB
end box

box Domain2
participant Domain2
database "Anchor\nReference" as Domain2DB
queue "orb.anchor" as anchor_2
end box

box Domain3 #White
participant Domain3
queue "orb.anchor" as anchor_3
end box

activate Domain1
Domain1 -> Domain2: Post(Create)
note over Domain1
Post Create (containing
an anchor linkset) to
servers in followers list.
end note

activate Domain2
Domain2 -> Domain2: Authenticate Domain1\nusing HTTP signature
Domain2 - -> Domain1: OK

deactivate Domain1

Domain2 -> Domain2: Extract anchor linkset\nfrom Create activity\nand store to CAS

Domain2 -> anchor_2: Publish(anchorInfo)

note over anchor_2
The hashlink of the anchor
linkset is posted to
the anchor queue to be
processed by the Observer.
end note

activate anchor_2

anchor_2 - -> Domain2: OK

Domain2 -> Domain3: Post(Announce)

activate Domain3

Domain3 -> Domain3: Authenticate Domain2\nusing HTTP signature
Domain3 - -> Domain2: OK

deactivate Domain2

Domain3 -> Domain3: Extract anchor linkset\nfrom Announce activity\nand store to CAS

Domain3 -> anchor_3: Publish(anchorInfo)

activate anchor_3

note over anchor_3
The hashlink of the anchor
linkset is posted to
the anchor queue to be
processed by the Observer.
end note
anchor_3 - -> Domain3: OK

deactivate Domain3

anchor_2 -> Domain2: anchorInfo

activate Domain2

note over Domain2
The anchor linkset is retrieved
from CAS using the hashlink in
the anchorInfo and the anchor
linkset is processed by the
Observer.
end note

Domain2 -> Domain1: Like activity

activate Domain1
Domain1 -> Domain1: Authenticate Domain2\nusing HTTP signature
Domain1 - -> Domain2: OK

Domain2 - -> anchor_2: ACK

deactivate anchor_2

deactivate Domain2

Domain1 -> Domain1DB: Add Domain2 to\nanchor reference DB
activate Domain1DB
Domain1DB - -> Domain1: OK
deactivate Domain1DB
deactivate Domain1

anchor_3 -> Domain3: anchorInfo

activate Domain3

note over Domain3
The anchor linkset is retrieved
from CAS using the hashlink in
the anchorInfo and the anchor
linkset is processed by the
Observer.
end note

Domain3 -> Domain2: Like activity

activate Domain2

Domain2 -> Domain2: Authenticate Domain3\nusing HTTP signature
Domain2 - -> Domain3: OK

Domain3 - -> anchor_3: ACK

deactivate anchor_3

Domain2 -> Domain2DB: Add Domain3 to\nanchor reference DB
activate Domain2DB
Domain2DB - -> Domain2: OK
deactivate Domain2DB
deactivate Domain2

Domain3 -> Domain1: Like activity

activate Domain1
Domain1 -> Domain1: Authenticate Domain3\nusing HTTP signature
Domain1 - -> Domain3: OK

deactivate Domain3

Domain1 -> Domain1DB: Add Domain3\nto anchor reference DB
activate Domain1DB
Domain1DB - -> Domain1: OK
deactivate Domain1DB
deactivate Domain1
@enduml

PlantUML version 1.2022.5(Sat Apr 30 10:55:52 UTC 2022)
(GPL source distribution)
Java Runtime: Java(TM) SE Runtime Environment
JVM: Java HotSpot(TM) 64-Bit Server VM
Default Encoding: UTF-8
Language: en
Country: US
--></g></svg>