<?xml version="1.0" encoding="UTF-8" standalone="no"?><svg xmlns="http://www.w3.org/2000/svg" xmlns:xlink="http://www.w3.org/1999/xlink" contentStyleType="text/css" height="537px" preserveAspectRatio="none" style="width:1012px;height:537px;background:#FFFFFF;" version="1.1" viewBox="0 0 1012 537" width="1012px" zoomAndPan="magnify"><defs/><g><!--MD5=[09cebf8940f732fa2133abd0579f057b]
cluster Domain1--><g id="cluster_Domain1"><rect height="487" rx="2.5" ry="2.5" style="stroke:#181818;stroke-width:1.0;fill:none;" width="813" x="193" y="44"/><path d="M274,44 L274,53.2969 L264,63.2969 L193,63.2969 " fill="none" style="stroke:#181818;stroke-width:1.0;"/><text fill="#000000" font-family="sans-serif" font-size="14" font-weight="bold" lengthAdjust="spacing" textLength="71" x="196" y="57.9951">Domain1</text></g><!--MD5=[e7bb1ce819be22e00281b07453b4636a]
cluster VCT--><g id="cluster_VCT"><rect height="357" rx="2.5" ry="2.5" style="stroke:#181818;stroke-width:1.0;fill:none;" width="392" x="217" y="150"/><path d="M259,150 L259,159.2969 L249,169.2969 L217,169.2969 " fill="none" style="stroke:#181818;stroke-width:1.0;"/><text fill="#000000" font-family="sans-serif" font-size="14" font-weight="bold" lengthAdjust="spacing" textLength="32" x="220" y="163.9951">VCT</text></g><!--MD5=[d67631dab7f8d9d7e82207d41f22d56e]
entity orbdb--><g id="elem_orbdb"><path d="M816,301 C816,291 874,291 874,291 C874,291 932,291 932,301 L932,358.8906 C932,368.8906 874,368.8906 874,368.8906 C874,368.8906 816,368.8906 816,358.8906 L816,301 " fill="#F1F1F1" style="stroke:#181818;stroke-width:0.5;"/><path d="M816,301 C816,311 874,311 874,311 C874,311 932,311 932,301 " fill="none" style="stroke:#181818;stroke-width:0.5;"/><text fill="#000000" font-family="sans-serif" font-size="14" lengthAdjust="spacing" textLength="33" x="826" y="327.9951">AWS</text><text fill="#000000" font-family="sans-serif" font-size="14" lengthAdjust="spacing" textLength="96" x="826" y="344.292">DocumentDB</text><text fill="#000000" font-family="sans-serif" font-size="14" lengthAdjust="spacing" textLength="88" x="826" y="360.5889">or MongoDB</text></g><!--MD5=[d73fd630ced0fe73a4ad473b74a33a42]
entity ipfs--><g id="elem_ipfs"><rect fill="#F1F1F1" height="46.2969" rx="2.5" ry="2.5" style="stroke:#181818;stroke-width:0.5;" width="70" x="695" y="79"/><rect fill="#F1F1F1" height="10" style="stroke:#181818;stroke-width:0.5;" width="15" x="745" y="84"/><rect fill="#F1F1F1" height="2" style="stroke:#181818;stroke-width:0.5;" width="4" x="743" y="86"/><rect fill="#F1F1F1" height="2" style="stroke:#181818;stroke-width:0.5;" width="4" x="743" y="90"/><text fill="#000000" font-family="sans-serif" font-size="14" lengthAdjust="spacing" textLength="30" x="710" y="111.9951">IPFS</text></g><!--MD5=[da9ddd925abb6ab6ff4457f497e7de3b]
entity orb1--><g id="elem_orb1"><rect fill="#F1F1F1" height="46.2969" rx="2.5" ry="2.5" style="stroke:#181818;stroke-width:0.5;" width="67" x="592.5" y="79"/><rect fill="#F1F1F1" height="10" style="stroke:#181818;stroke-width:0.5;" width="15" x="639.5" y="84"/><rect fill="#F1F1F1" height="2" style="stroke:#181818;stroke-width:0.5;" width="4" x="637.5" y="86"/><rect fill="#F1F1F1" height="2" style="stroke:#181818;stroke-width:0.5;" width="4" x="637.5" y="90"/><text fill="#000000" font-family="sans-serif" font-size="14" lengthAdjust="spacing" textLength="27" x="607.5" y="111.9951">Orb</text></g><!--MD5=[c18b59ba149be49dee2e712c1ad1eaff]
entity rest1--><g id="elem_rest1"><ellipse cx="385" cy="102" fill="#F1F1F1" rx="8" ry="8" style="stroke:#181818;stroke-width:0.5;"/><text fill="#000000" font-family="sans-serif" font-size="14" lengthAdjust="spacing" textLength="46" x="362" y="131.9951">HTTPS</text></g><!--MD5=[db2b32c9320867cbbbdda186e73c54cc]
entity amqp--><g id="elem_amqp"><rect fill="#F1F1F1" height="62.5938" rx="2.5" ry="2.5" style="stroke:#181818;stroke-width:0.5;" width="112" x="628" y="298.5"/><rect fill="#F1F1F1" height="10" style="stroke:#181818;stroke-width:0.5;" width="15" x="720" y="303.5"/><rect fill="#F1F1F1" height="2" style="stroke:#181818;stroke-width:0.5;" width="4" x="718" y="305.5"/><rect fill="#F1F1F1" height="2" style="stroke:#181818;stroke-width:0.5;" width="4" x="718" y="309.5"/><text fill="#000000" font-family="sans-serif" font-size="14" lengthAdjust="spacing" textLength="42" x="643" y="331.4951">AMQP</text><text fill="#000000" font-family="sans-serif" font-size="14" lengthAdjust="spacing" textLength="72" x="643" y="347.792">RabbitMQ</text></g><!--MD5=[014d3985b962db52c08c9f6a419d717e]
entity aws_kms--><g id="elem_aws_kms"><rect fill="#F1F1F1" height="46.2969" rx="2.5" ry="2.5" style="stroke:#181818;stroke-width:0.5;" width="108" x="699" y="185"/><rect fill="#F1F1F1" height="10" style="stroke:#181818;stroke-width:0.5;" width="15" x="787" y="190"/><rect fill="#F1F1F1" height="2" style="stroke:#181818;stroke-width:0.5;" width="4" x="785" y="192"/><rect fill="#F1F1F1" height="2" style="stroke:#181818;stroke-width:0.5;" width="4" x="785" y="196"/><text fill="#000000" font-family="sans-serif" font-size="14" lengthAdjust="spacing" textLength="68" x="714" y="217.9951">AWS KMS</text></g><!--MD5=[ccf64085ded346e5ab456352dd3e107a]
entity aries_kms--><g id="elem_aries_kms"><rect fill="#F1F1F1" height="46.2969" rx="2.5" ry="2.5" style="stroke:#181818;stroke-width:0.5;" width="148" x="842" y="185"/><rect fill="#F1F1F1" height="10" style="stroke:#181818;stroke-width:0.5;" width="15" x="970" y="190"/><rect fill="#F1F1F1" height="2" style="stroke:#181818;stroke-width:0.5;" width="4" x="968" y="192"/><rect fill="#F1F1F1" height="2" style="stroke:#181818;stroke-width:0.5;" width="4" x="968" y="196"/><text fill="#000000" font-family="sans-serif" font-size="14" lengthAdjust="spacing" textLength="108" x="857" y="217.9951">Aries Web KMS</text></g><!--MD5=[f2fbfbe476ce02d5477f243163075997]
entity vct--><g id="elem_vct"><rect fill="#F1F1F1" height="46.2969" rx="2.5" ry="2.5" style="stroke:#181818;stroke-width:0.5;" width="69" x="378.5" y="185"/><rect fill="#F1F1F1" height="10" style="stroke:#181818;stroke-width:0.5;" width="15" x="427.5" y="190"/><rect fill="#F1F1F1" height="2" style="stroke:#181818;stroke-width:0.5;" width="4" x="425.5" y="192"/><rect fill="#F1F1F1" height="2" style="stroke:#181818;stroke-width:0.5;" width="4" x="425.5" y="196"/><text fill="#000000" font-family="sans-serif" font-size="14" lengthAdjust="spacing" textLength="29" x="393.5" y="217.9951">VCT</text></g><!--MD5=[43d2a4e855be7e8c0c8e391d7b05c3f4]
entity vct_log--><g id="elem_vct_log"><rect fill="#F1F1F1" height="62.5938" rx="2.5" ry="2.5" style="stroke:#181818;stroke-width:0.5;" width="143" x="449.5" y="298.5"/><rect fill="#F1F1F1" height="10" style="stroke:#181818;stroke-width:0.5;" width="15" x="572.5" y="303.5"/><rect fill="#F1F1F1" height="2" style="stroke:#181818;stroke-width:0.5;" width="4" x="570.5" y="305.5"/><rect fill="#F1F1F1" height="2" style="stroke:#181818;stroke-width:0.5;" width="4" x="570.5" y="309.5"/><text fill="#000000" font-family="sans-serif" font-size="14" lengthAdjust="spacing" textLength="59" x="464.5" y="331.4951">VCT Log</text><text fill="#000000" font-family="sans-serif" font-size="14" lengthAdjust="spacing" textLength="103" x="464.5" y="347.792">Google Trillian</text></g><!--MD5=[6c7961e3b16ae1ceddb6de6b49c7a981]
entity vct_signer--><g id="elem_vct_signer"><rect fill="#F1F1F1" height="62.5938" rx="2.5" ry="2.5" style="stroke:#181818;stroke-width:0.5;" width="143" x="233.5" y="298.5"/><rect fill="#F1F1F1" height="10" style="stroke:#181818;stroke-width:0.5;" width="15" x="356.5" y="303.5"/><rect fill="#F1F1F1" height="2" style="stroke:#181818;stroke-width:0.5;" width="4" x="354.5" y="305.5"/><rect fill="#F1F1F1" height="2" style="stroke:#181818;stroke-width:0.5;" width="4" x="354.5" y="309.5"/><text fill="#000000" font-family="sans-serif" font-size="14" lengthAdjust="spacing" textLength="79" x="248.5" y="331.4951">VCT Signer</text><text fill="#000000" font-family="sans-serif" font-size="14" lengthAdjust="spacing" textLength="103" x="248.5" y="347.792">Google Trillian</text></g><!--MD5=[673484195135c08ddadbe04df07d5f98]
entity vctdb--><g id="elem_vctdb"><path d="M361,439 C361,429 413,429 413,429 C413,429 465,429 465,439 L465,480.5938 C465,490.5938 413,490.5938 413,490.5938 C413,490.5938 361,490.5938 361,480.5938 L361,439 " fill="#F1F1F1" style="stroke:#181818;stroke-width:0.5;"/><path d="M361,439 C361,449 413,449 413,449 C413,449 465,449 465,439 " fill="none" style="stroke:#181818;stroke-width:0.5;"/><text fill="#000000" font-family="sans-serif" font-size="14" lengthAdjust="spacing" textLength="84" x="371" y="465.9951">PostgreSQL</text><text fill="#000000" font-family="sans-serif" font-size="14" lengthAdjust="spacing" textLength="67" x="371" y="482.292">or MySQL</text></g><!--MD5=[9a187b14aadfe2445e750cc8ca448c6d]
entity vct_rest--><g id="elem_vct_rest"><ellipse cx="334" cy="208" fill="#F1F1F1" rx="8" ry="8" style="stroke:#181818;stroke-width:0.5;"/><text fill="#000000" font-family="sans-serif" font-size="14" lengthAdjust="spacing" textLength="46" x="311" y="237.9951">HTTPS</text></g><!--MD5=[68ee199d46f3ce3c48339370f100a1e5]
entity domain2--><g id="elem_domain2"><rect fill="#F0FFFF" height="46.2969" rx="2.5" ry="2.5" style="stroke:#181818;stroke-width:0.5;" width="103" x="73.5" y="79"/><path d="M107.8333,79 L107.8333,84 L100.8333,91 L73.5,91 " fill="none" style="stroke:#181818;stroke-width:0.5;"/><text fill="#000000" font-family="sans-serif" font-size="14" lengthAdjust="spacing" textLength="63" x="88.5" y="111.9951">Domain2</text></g><!--MD5=[fd7328753abf7908d775959b6a79cb2d]
entity rest2--><g id="elem_rest2"><ellipse cx="29" cy="102" fill="#F0FFFF" rx="8" ry="8" style="stroke:#181818;stroke-width:0.5;"/><text fill="#000000" font-family="sans-serif" font-size="14" lengthAdjust="spacing" textLength="46" x="6" y="131.9951">HTTPS</text></g><!--MD5=[de459b4515f3b440caf8e354e9d5f652]
entity domain3--><g id="elem_domain3"><rect fill="#F0FFFF" height="46.2969" rx="2.5" ry="2.5" style="stroke:#181818;stroke-width:0.5;" width="104" x="73" y="185"/><path d="M107.6667,185 L107.6667,190 L100.6667,197 L73,197 " fill="none" style="stroke:#181818;stroke-width:0.5;"/><text fill="#000000" font-family="sans-serif" font-size="14" lengthAdjust="spacing" textLength="64" x="88" y="217.9951">Domain3</text></g><!--MD5=[98ffb7722e6de6cdf870d33bfbb7236e]
entity rest3--><g id="elem_rest3"><ellipse cx="29" cy="208" fill="#F0FFFF" rx="8" ry="8" style="stroke:#181818;stroke-width:0.5;"/><text fill="#000000" font-family="sans-serif" font-size="14" lengthAdjust="spacing" textLength="46" x="6" y="237.9951">HTTPS</text></g><!--MD5=[9ae847914c95faf755d332c356880d1c]
link orb1 to orbdb--><g id="link_orb1_orbdb"><path d="M641.963,125.234 C648.251,133.992 654,142 654,142 C654,142 681,231 681,231 C681,231 754.797,268.472 811.125,297.074 " fill="none" id="orb1-to-orbdb" style="stroke:#181818;stroke-width:1.0;"/><polygon fill="#181818" points="815.832,299.464,809.6197,291.8215,811.3742,297.1994,805.9964,298.9539,815.832,299.464" style="stroke:#181818;stroke-width:1.0;"/></g><!--MD5=[fd76545ff2e987e1379ecd8657b83e6d]
link rest1 to orb1--><g id="link_rest1_orb1"><path d="M394.215,102 C415.316,102 465.333,102 465.333,102 C465.333,102 545.667,102 545.667,102 C545.667,102 570.383,102 592.397,102 " fill="none" id="rest1-orb1" style="stroke:#181818;stroke-width:1.0;"/></g><!--MD5=[7fea14c9e64c4c433cfceb76312c65c7]
link orb1 to aws_kms--><g id="link_orb1_aws_kms"><path d="M652.933,125.056 C673.223,141.671 701.068,164.473 722.234,181.806 " fill="none" id="orb1-to-aws_kms" style="stroke:#181818;stroke-width:1.0;stroke-dasharray:7.0,7.0;"/><polygon fill="#181818" points="726.105,184.976,721.6769,176.1787,722.2369,181.8078,716.6078,182.3677,726.105,184.976" style="stroke:#181818;stroke-width:1.0;"/></g><!--MD5=[04e06ae6aa43435e9009e8ead58608e1]
link orb1 to aries_kms--><g id="link_orb1_aries_kms"><path d="M659.734,117.552 C669.218,121.643 677,125 677,125 C677,125 824,142 824,142 C824,142 854.781,163.748 880.735,182.084 " fill="none" id="orb1-to-aries_kms" style="stroke:#181818;stroke-width:1.0;stroke-dasharray:7.0,7.0;"/><polygon fill="#181818" points="884.853,184.994,879.8088,176.5349,880.7688,182.1097,875.194,183.0697,884.853,184.994" style="stroke:#181818;stroke-width:1.0;"/></g><!--MD5=[52b5ee74e2ae998fa7cc7cb5c140764a]
link orb1 to amqp--><g id="link_orb1_amqp"><path d="M630.813,125.004 C638.819,161.601 654,231 654,231 C654,231 664.538,265.423 673.122,293.466 " fill="none" id="orb1-to-amqp" style="stroke:#181818;stroke-width:1.0;"/><polygon fill="#181818" points="674.59,298.261,675.782,288.4845,673.1272,293.4798,668.132,290.825,674.59,298.261" style="stroke:#181818;stroke-width:1.0;"/></g><!--MD5=[883b28641787c878ca7ccda59efd8871]
link aries_kms to orbdb--><g id="link_aries_kms_orbdb"><path d="M908.297,231.01 C902.971,246.224 895.709,266.975 889.237,285.465 " fill="none" id="aries_kms-to-orbdb" style="stroke:#181818;stroke-width:1.0;"/><polygon fill="#181818" points="887.435,290.614,894.1828,283.4399,889.0862,285.8945,886.6317,280.798,887.435,290.614" style="stroke:#181818;stroke-width:1.0;"/></g><!--MD5=[a3d30a16d9984b519c29598295226bde]
link orb1 to ipfs--><g id="link_orb1_ipfs"><path d="M659.81,102 C660.362,102 660.667,102 660.667,102 C660.667,102 680.015,102 689.802,102 " fill="none" id="orb1-to-ipfs" style="stroke:#181818;stroke-width:1.0;stroke-dasharray:7.0,7.0;"/><polygon fill="#181818" points="694.944,102,685.944,98,689.944,102,685.944,106,694.944,102" style="stroke:#181818;stroke-width:1.0;"/></g><!--MD5=[b06dcd95bf05f996791b2e64d25dc8b1]
link vct_rest to vct--><g id="link_vct_rest_vct"><path d="M343.21,208 C350.804,208 360.333,208 360.333,208 C360.333,208 370.62,208 378.335,208 " fill="none" id="vct_rest-vct" style="stroke:#181818;stroke-width:1.0;"/></g><!--MD5=[8e23453b8f21c25d249e254e93cd0b45]
link vct to vct_log--><g id="link_vct_vct_log"><path d="M432.809,231.01 C448.746,248.718 471.433,273.925 489.805,294.339 " fill="none" id="vct-to-vct_log" style="stroke:#181818;stroke-width:1.0;"/><polygon fill="#181818" points="493.183,298.092,490.1371,288.726,489.8388,294.375,484.1898,294.0767,493.183,298.092" style="stroke:#181818;stroke-width:1.0;"/></g><!--MD5=[24c39599ffd372180808af11f01876f5]
link vct to vct_signer--><g id="link_vct_vct_signer"><path d="M393.191,231.01 C377.254,248.718 354.567,273.925 336.195,294.339 " fill="none" id="vct-to-vct_signer" style="stroke:#181818;stroke-width:1.0;"/><polygon fill="#181818" points="332.817,298.092,341.8102,294.0767,336.1612,294.375,335.8629,288.726,332.817,298.092" style="stroke:#181818;stroke-width:1.0;"/></g><!--MD5=[dd8f0ebca1933a8359a1d2fe7df3709b]
link vct to vctdb--><g id="link_vct_vctdb"><path d="M413,231.186 C413,274.626 413,371.22 413,423.593 " fill="none" id="vct-to-vctdb" style="stroke:#181818;stroke-width:1.0;"/><polygon fill="#181818" points="413,428.829,417,419.829,413,423.829,409,419.829,413,428.829" style="stroke:#181818;stroke-width:1.0;"/></g><!--MD5=[8320ea271ba71440d910bab419504a00]
link vct_log to vctdb--><g id="link_vct_log_vctdb"><path d="M495.131,361.659 C479.101,380.658 458.483,405.095 441.915,424.731 " fill="none" id="vct_log-to-vctdb" style="stroke:#181818;stroke-width:1.0;"/><polygon fill="#181818" points="438.658,428.591,447.5182,424.2902,441.8816,424.7689,441.4029,419.1324,438.658,428.591" style="stroke:#181818;stroke-width:1.0;"/></g><!--MD5=[33badaeaba0a15a38281f8e13bbd3f4c]
link vct_signer to vctdb--><g id="link_vct_signer_vctdb"><path d="M330.869,361.659 C346.899,380.658 367.517,405.095 384.085,424.731 " fill="none" id="vct_signer-to-vctdb" style="stroke:#181818;stroke-width:1.0;"/><polygon fill="#181818" points="387.342,428.591,384.5971,419.1324,384.1184,424.7689,378.4818,424.2902,387.342,428.591" style="stroke:#181818;stroke-width:1.0;"/></g><!--MD5=[54c5942ccaa746320f368d45bf762ad6]
link orb1 to vct_rest--><g id="link_orb1_vct_rest"><path d="M592.438,107.939 C521.13,118.434 361,142 361,142 C361,142 347.369,174.816 339.477,193.814 " fill="none" id="orb1-to-vct_rest" style="stroke:#181818;stroke-width:1.0;"/><polygon fill="#181818" points="337.42,198.768,344.5673,191.9919,339.3386,194.1508,337.1797,188.9221,337.42,198.768" style="stroke:#181818;stroke-width:1.0;"/></g><!--MD5=[969850586299010ff16630eca9dd981e]
link rest2 to domain2--><g id="link_rest2_domain2"><path d="M38.0843,102 C47.5449,102 61,102 61,102 C61,102 66.6953,102 73.2805,102 " fill="none" id="rest2-domain2" style="stroke:#181818;stroke-width:1.0;"/></g><!--MD5=[3ff0d2425083a33f0868001401c57baf]
link rest3 to domain3--><g id="link_rest3_domain3"><path d="M38.0843,208 C47.5449,208 61,208 61,208 C61,208 66.4863,208 72.9156,208 " fill="none" id="rest3-domain3" style="stroke:#181818;stroke-width:1.0;"/></g><!--MD5=[0b522532cf907099069cd3b9af83d349]
link orb1 to rest2--><g id="link_orb1_rest2"><path d="M592.193,88.041 C527.709,61.415 393.5,6 393.5,6 C393.5,6 73.5,6 73.5,6 C73.5,6 56,36 56,36 C56,36 42.7765,68.324 34.8378,87.73 " fill="none" id="orb1-to-rest2" style="stroke:#181818;stroke-width:1.0;"/><polygon fill="#181818" points="32.7542,92.823,39.8636,86.0071,34.6471,88.1951,32.4591,82.9786,32.7542,92.823" style="stroke:#181818;stroke-width:1.0;"/></g><!--MD5=[0e0cc88cce17ba09297ea309bef87ba1]
link domain2 to rest1--><g id="link_domain2_rest1"><path d="M176.915,102 C195.373,102 211.667,102 211.667,102 C211.667,102 298.333,102 298.333,102 C298.333,102 345.9,102 370.555,102 " fill="none" id="domain2-to-rest1" style="stroke:#181818;stroke-width:1.0;"/><polygon fill="#181818" points="375.725,102,366.725,98,370.725,102,366.725,106,375.725,102" style="stroke:#181818;stroke-width:1.0;"/></g><!--MD5=[2d7624cd3a6827128ff3bc95d78ca235]
link domain2 to rest3--><g id="link_domain2_rest3"><path d="M85.4994,125.007 C69.6214,133.854 55,142 55,142 C55,142 41.8734,174.816 34.2742,193.814 " fill="none" id="domain2-to-rest3" style="stroke:#181818;stroke-width:1.0;"/><polygon fill="#181818" points="32.2929,198.768,39.3495,191.8975,34.15,194.1257,31.9218,188.9261,32.2929,198.768" style="stroke:#181818;stroke-width:1.0;"/></g><!--MD5=[e196ea3a9883c9c91520869f3a8f9fff]
link domain3 to vct_rest--><g id="link_domain3_vct_rest"><path d="M177.087,208 C187.166,208 194.667,208 194.667,208 C194.667,208 264.333,208 264.333,208 C264.333,208 299.451,208 319.821,208 " fill="none" id="domain3-to-vct_rest" style="stroke:#181818;stroke-width:1.0;"/><polygon fill="#181818" points="324.892,208,315.892,204,319.892,208,315.892,212,324.892,208" style="stroke:#181818;stroke-width:1.0;"/></g><!--MD5=[d38391f15c0882525244d2c13fd10bab]
@startuml
'https://plantuml.com/component-diagram

skinparam linetype polyline

frame "Domain1" {
  database "AWS\nDocumentDB\nor MongoDB" as orbdb

  component "IPFS" as ipfs
  component Orb as orb1

  orb1 - -> orbdb

  interface "HTTPS" as rest1

  orb1 -left- rest1

  component "AMQP\nRabbitMQ" as amqp
  component "AWS KMS" as aws_kms
  component "Aries Web KMS" as aries_kms

  orb1 ..> aws_kms
  orb1 ..> aries_kms
  orb1 - - -> amqp

  aries_kms - -> orbdb

  orb1 .> ipfs

  frame "VCT" {
    component "VCT" as vct
    component "VCT Log\nGoogle Trillian" as vct_log

    component "VCT Signer\nGoogle Trillian" as vct_signer

    database "PostgreSQL\nor MySQL" as vctdb

    interface "HTTPS" as vct_rest
    vct -left- vct_rest

    vct - -> vct_log
    vct -> vct_signer
    vct -> vctdb
    vct_log - -> vctdb
    vct_signer - -> vctdb
  }

  orb1 - -> vct_rest
}

frame "Domain2" as domain2 #Azure

interface "HTTPS" as rest2 #Azure

domain2 -left- rest2

frame Domain3 as domain3 #Azure

interface "HTTPS" as rest3 #Azure

domain3 -left- rest3

orb1 - - -> rest2
domain2 - -> rest1
domain2 - -> rest3

domain3 -> vct_rest
@enduml

@startuml

skinparam linetype polyline

frame "Domain1" {
  database "AWS\nDocumentDB\nor MongoDB" as orbdb

  component "IPFS" as ipfs
  component Orb as orb1

  orb1 - -> orbdb

  interface "HTTPS" as rest1

  orb1 -left- rest1

  component "AMQP\nRabbitMQ" as amqp
  component "AWS KMS" as aws_kms
  component "Aries Web KMS" as aries_kms

  orb1 ..> aws_kms
  orb1 ..> aries_kms
  orb1 - - -> amqp

  aries_kms - -> orbdb

  orb1 .> ipfs

  frame "VCT" {
    component "VCT" as vct
    component "VCT Log\nGoogle Trillian" as vct_log

    component "VCT Signer\nGoogle Trillian" as vct_signer

    database "PostgreSQL\nor MySQL" as vctdb

    interface "HTTPS" as vct_rest
    vct -left- vct_rest

    vct - -> vct_log
    vct -> vct_signer
    vct -> vctdb
    vct_log - -> vctdb
    vct_signer - -> vctdb
  }

  orb1 - -> vct_rest
}

frame "Domain2" as domain2 #Azure

interface "HTTPS" as rest2 #Azure

domain2 -left- rest2

frame Domain3 as domain3 #Azure

interface "HTTPS" as rest3 #Azure

domain3 -left- rest3

orb1 - - -> rest2
domain2 - -> rest1
domain2 - -> rest3

domain3 -> vct_rest
@enduml

PlantUML version 1.2022.3beta2(Unknown compile time)
(GPL source distribution)
Java Runtime: Java(TM) SE Runtime Environment
JVM: Java HotSpot(TM) 64-Bit Server VM
Default Encoding: UTF-8
Language: en
Country: US
--></g></svg>