<?xml version="1.0" encoding="UTF-8" standalone="no"?><svg xmlns="http://www.w3.org/2000/svg" xmlns:xlink="http://www.w3.org/1999/xlink" contentStyleType="text/css" height="752px" preserveAspectRatio="none" style="width:859px;height:752px;background:#FFFFFF;" version="1.1" viewBox="0 0 859 752" width="859px" zoomAndPan="magnify"><defs/><g><rect fill="#FFFFFF" height="733.5781" style="stroke:#181818;stroke-width:0.5;" width="517" x="189.5" y="6"/><text fill="#000000" font-family="sans-serif" font-size="13" font-weight="bold" lengthAdjust="spacing" textLength="66" x="412.5" y="18.0669">Domain1</text><rect fill="#DDDDDD" height="733.5781" style="stroke:#181818;stroke-width:0.5;" width="72" x="708.5" y="6"/><text fill="#000000" font-family="sans-serif" font-size="13" font-weight="bold" lengthAdjust="spacing" textLength="66" x="711.5" y="18.0669">Domain2</text><rect fill="#DDDDDD" height="733.5781" style="stroke:#181818;stroke-width:0.5;" width="71" x="782.5" y="6"/><text fill="#000000" font-family="sans-serif" font-size="13" font-weight="bold" lengthAdjust="spacing" textLength="65" x="785.5" y="18.0669">Domain3</text><rect fill="#FFFFFF" height="388.5938" style="stroke:#181818;stroke-width:1.0;" width="10" x="221" y="134.8594"/><rect fill="#FFFFFF" height="233.0625" style="stroke:#181818;stroke-width:1.0;" width="10" x="393" y="406.9219"/><rect fill="#FFFFFF" height="29.1328" style="stroke:#181818;stroke-width:1.0;" width="10" x="480" y="163.9922"/><rect fill="#FFFFFF" height="29.1328" style="stroke:#181818;stroke-width:1.0;" width="10" x="579" y="306.5234"/><rect fill="#FFFFFF" height="29.1328" style="stroke:#181818;stroke-width:1.0;" width="10" x="666" y="465.1875"/><rect fill="#FFFFFF" height="96.3984" style="stroke:#181818;stroke-width:1.0;" width="10" x="739.5" y="552.5859"/><rect fill="#FFFFFF" height="38.1328" style="stroke:#181818;stroke-width:1.0;" width="10" x="813" y="610.8516"/><line style="stroke:#181818;stroke-width:0.5;stroke-dasharray:5.0,5.0;" x1="69" x2="69" y1="103.7266" y2="657.9844"/><line style="stroke:#181818;stroke-width:0.5;stroke-dasharray:5.0,5.0;" x1="225.5" x2="225.5" y1="103.7266" y2="657.9844"/><line style="stroke:#181818;stroke-width:0.5;stroke-dasharray:5.0,5.0;" x1="397.5" x2="397.5" y1="103.7266" y2="657.9844"/><line style="stroke:#181818;stroke-width:0.5;stroke-dasharray:5.0,5.0;" x1="484.5" x2="484.5" y1="103.7266" y2="657.9844"/><line style="stroke:#181818;stroke-width:0.5;stroke-dasharray:5.0,5.0;" x1="583.5" x2="583.5" y1="103.7266" y2="657.9844"/><line style="stroke:#181818;stroke-width:0.5;stroke-dasharray:5.0,5.0;" x1="670.5" x2="670.5" y1="103.7266" y2="657.9844"/><line style="stroke:#181818;stroke-width:0.5;stroke-dasharray:5.0,5.0;" x1="744.5" x2="744.5" y1="103.7266" y2="657.9844"/><line style="stroke:#181818;stroke-width:0.5;stroke-dasharray:5.0,5.0;" x1="818" x2="818" y1="103.7266" y2="657.9844"/><text fill="#000000" font-family="sans-serif" font-size="14" lengthAdjust="spacing" textLength="122" x="5" y="100.4248">sidetree-core-go</text><ellipse cx="69" cy="35.9297" fill="#E2E2F0" rx="8" ry="8" style="stroke:#181818;stroke-width:0.5;"/><path d="M69,43.9297 L69,70.9297 M56,51.9297 L82,51.9297 M69,70.9297 L56,85.9297 M69,70.9297 L82,85.9297 " fill="none" style="stroke:#181818;stroke-width:0.5;"/><text fill="#000000" font-family="sans-serif" font-size="14" lengthAdjust="spacing" textLength="122" x="5" y="669.9795">sidetree-core-go</text><ellipse cx="69" cy="681.7813" fill="#E2E2F0" rx="8" ry="8" style="stroke:#181818;stroke-width:0.5;"/><path d="M69,689.7813 L69,716.7813 M56,697.7813 L82,697.7813 M69,716.7813 L56,731.7813 M69,716.7813 L82,731.7813 " fill="none" style="stroke:#181818;stroke-width:0.5;"/><rect fill="#E2E2F0" height="46.5938" rx="2.5" ry="2.5" style="stroke:#181818;stroke-width:0.5;" width="65" x="193.5" y="56.1328"/><text fill="#000000" font-family="sans-serif" font-size="14" lengthAdjust="spacing" textLength="51" x="200.5" y="76.1279">Anchor</text><text fill="#000000" font-family="sans-serif" font-size="14" lengthAdjust="spacing" textLength="46" x="203" y="92.4248">Writer</text><rect fill="#E2E2F0" height="46.5938" rx="2.5" ry="2.5" style="stroke:#181818;stroke-width:0.5;" width="65" x="193.5" y="656.9844"/><text fill="#000000" font-family="sans-serif" font-size="14" lengthAdjust="spacing" textLength="51" x="200.5" y="676.9795">Anchor</text><text fill="#000000" font-family="sans-serif" font-size="14" lengthAdjust="spacing" textLength="46" x="203" y="693.2764">Writer</text><rect fill="#E2E2F0" height="30.2969" rx="2.5" ry="2.5" style="stroke:#181818;stroke-width:0.5;" width="67" x="364.5" y="72.4297"/><text fill="#000000" font-family="sans-serif" font-size="14" lengthAdjust="spacing" textLength="53" x="371.5" y="92.4248">Outbox</text><rect fill="#E2E2F0" height="30.2969" rx="2.5" ry="2.5" style="stroke:#181818;stroke-width:0.5;" width="67" x="364.5" y="656.9844"/><text fill="#000000" font-family="sans-serif" font-size="14" lengthAdjust="spacing" textLength="53" x="371.5" y="676.9795">Outbox</text><text fill="#000000" font-family="sans-serif" font-size="14" lengthAdjust="spacing" textLength="81" x="441.5" y="84.1279">DID Anchor</text><text fill="#000000" font-family="sans-serif" font-size="14" lengthAdjust="spacing" textLength="21" x="471.5" y="100.4248">DB</text><path d="M467,35.1328 C467,25.1328 485,25.1328 485,25.1328 C485,25.1328 503,25.1328 503,35.1328 L503,61.1328 C503,71.1328 485,71.1328 485,71.1328 C485,71.1328 467,71.1328 467,61.1328 L467,35.1328 " fill="#E2E2F0" style="stroke:#181818;stroke-width:1.5;"/><path d="M467,35.1328 C467,45.1328 485,45.1328 485,45.1328 C485,45.1328 503,45.1328 503,35.1328 " fill="none" style="stroke:#181818;stroke-width:1.5;"/><text fill="#000000" font-family="sans-serif" font-size="14" lengthAdjust="spacing" textLength="81" x="441.5" y="669.9795">DID Anchor</text><text fill="#000000" font-family="sans-serif" font-size="14" lengthAdjust="spacing" textLength="21" x="471.5" y="686.2764">DB</text><path d="M467,699.5781 C467,689.5781 485,689.5781 485,689.5781 C485,689.5781 503,689.5781 503,699.5781 L503,725.5781 C503,735.5781 485,735.5781 485,735.5781 C485,735.5781 467,735.5781 467,725.5781 L467,699.5781 " fill="#E2E2F0" style="stroke:#181818;stroke-width:1.5;"/><path d="M467,699.5781 C467,709.5781 485,709.5781 485,709.5781 C485,709.5781 503,709.5781 503,699.5781 " fill="none" style="stroke:#181818;stroke-width:1.5;"/><text fill="#000000" font-family="sans-serif" font-size="14" lengthAdjust="spacing" textLength="85" x="538.5" y="84.1279">Anchor Link</text><text fill="#000000" font-family="sans-serif" font-size="14" lengthAdjust="spacing" textLength="21" x="570.5" y="100.4248">DB</text><path d="M566,35.1328 C566,25.1328 584,25.1328 584,25.1328 C584,25.1328 602,25.1328 602,35.1328 L602,61.1328 C602,71.1328 584,71.1328 584,71.1328 C584,71.1328 566,71.1328 566,61.1328 L566,35.1328 " fill="#E2E2F0" style="stroke:#181818;stroke-width:1.5;"/><path d="M566,35.1328 C566,45.1328 584,45.1328 584,45.1328 C584,45.1328 602,45.1328 602,35.1328 " fill="none" style="stroke:#181818;stroke-width:1.5;"/><text fill="#000000" font-family="sans-serif" font-size="14" lengthAdjust="spacing" textLength="85" x="538.5" y="669.9795">Anchor Link</text><text fill="#000000" font-family="sans-serif" font-size="14" lengthAdjust="spacing" textLength="21" x="570.5" y="686.2764">DB</text><path d="M566,699.5781 C566,689.5781 584,689.5781 584,689.5781 C584,689.5781 602,689.5781 602,699.5781 L602,725.5781 C602,735.5781 584,735.5781 584,735.5781 C584,735.5781 566,735.5781 566,725.5781 L566,699.5781 " fill="#E2E2F0" style="stroke:#181818;stroke-width:1.5;"/><path d="M566,699.5781 C566,709.5781 584,709.5781 584,709.5781 C584,709.5781 602,709.5781 602,699.5781 " fill="none" style="stroke:#181818;stroke-width:1.5;"/><text fill="#000000" font-family="sans-serif" font-size="14" lengthAdjust="spacing" textLength="57" x="639.5" y="84.1279">Witness</text><text fill="#000000" font-family="sans-serif" font-size="14" lengthAdjust="spacing" textLength="21" x="657.5" y="100.4248">DB</text><path d="M653,35.1328 C653,25.1328 671,25.1328 671,25.1328 C671,25.1328 689,25.1328 689,35.1328 L689,61.1328 C689,71.1328 671,71.1328 671,71.1328 C671,71.1328 653,71.1328 653,61.1328 L653,35.1328 " fill="#E2E2F0" style="stroke:#181818;stroke-width:1.5;"/><path d="M653,35.1328 C653,45.1328 671,45.1328 671,45.1328 C671,45.1328 689,45.1328 689,35.1328 " fill="none" style="stroke:#181818;stroke-width:1.5;"/><text fill="#000000" font-family="sans-serif" font-size="14" lengthAdjust="spacing" textLength="57" x="639.5" y="669.9795">Witness</text><text fill="#000000" font-family="sans-serif" font-size="14" lengthAdjust="spacing" textLength="21" x="657.5" y="686.2764">DB</text><path d="M653,699.5781 C653,689.5781 671,689.5781 671,689.5781 C671,689.5781 689,689.5781 689,699.5781 L689,725.5781 C689,735.5781 671,735.5781 671,735.5781 C671,735.5781 653,735.5781 653,725.5781 L653,699.5781 " fill="#E2E2F0" style="stroke:#181818;stroke-width:1.5;"/><path d="M653,699.5781 C653,709.5781 671,709.5781 671,709.5781 C671,709.5781 689,709.5781 689,699.5781 " fill="none" style="stroke:#181818;stroke-width:1.5;"/><rect fill="#E2E2F0" height="30.2969" rx="2.5" ry="2.5" style="stroke:#181818;stroke-width:0.5;" width="54" x="717.5" y="72.4297"/><text fill="#000000" font-family="sans-serif" font-size="14" lengthAdjust="spacing" textLength="40" x="724.5" y="92.4248">Inbox</text><rect fill="#E2E2F0" height="30.2969" rx="2.5" ry="2.5" style="stroke:#181818;stroke-width:0.5;" width="54" x="717.5" y="656.9844"/><text fill="#000000" font-family="sans-serif" font-size="14" lengthAdjust="spacing" textLength="40" x="724.5" y="676.9795">Inbox</text><rect fill="#E2E2F0" height="30.2969" rx="2.5" ry="2.5" style="stroke:#181818;stroke-width:0.5;" width="54" x="791" y="72.4297"/><text fill="#000000" font-family="sans-serif" font-size="14" lengthAdjust="spacing" textLength="40" x="798" y="92.4248">Inbox</text><rect fill="#E2E2F0" height="30.2969" rx="2.5" ry="2.5" style="stroke:#181818;stroke-width:0.5;" width="54" x="791" y="656.9844"/><text fill="#000000" font-family="sans-serif" font-size="14" lengthAdjust="spacing" textLength="40" x="798" y="676.9795">Inbox</text><rect fill="#FFFFFF" height="388.5938" style="stroke:#181818;stroke-width:1.0;" width="10" x="221" y="134.8594"/><rect fill="#FFFFFF" height="233.0625" style="stroke:#181818;stroke-width:1.0;" width="10" x="393" y="406.9219"/><rect fill="#FFFFFF" height="29.1328" style="stroke:#181818;stroke-width:1.0;" width="10" x="480" y="163.9922"/><rect fill="#FFFFFF" height="29.1328" style="stroke:#181818;stroke-width:1.0;" width="10" x="579" y="306.5234"/><rect fill="#FFFFFF" height="29.1328" style="stroke:#181818;stroke-width:1.0;" width="10" x="666" y="465.1875"/><rect fill="#FFFFFF" height="96.3984" style="stroke:#181818;stroke-width:1.0;" width="10" x="739.5" y="552.5859"/><rect fill="#FFFFFF" height="38.1328" style="stroke:#181818;stroke-width:1.0;" width="10" x="813" y="610.8516"/><polygon fill="#181818" points="209,130.8594,219,134.8594,209,138.8594,213,134.8594" style="stroke:#181818;stroke-width:1.0;"/><line style="stroke:#181818;stroke-width:1.0;" x1="69" x2="215" y1="134.8594" y2="134.8594"/><text fill="#000000" font-family="sans-serif" font-size="13" lengthAdjust="spacing" textLength="133" x="76" y="129.7935">WriteAnchor(anchor)</text><polygon fill="#181818" points="468,159.9922,478,163.9922,468,167.9922,472,163.9922" style="stroke:#181818;stroke-width:1.0;"/><line style="stroke:#181818;stroke-width:1.0;" x1="231" x2="474" y1="163.9922" y2="163.9922"/><text fill="#000000" font-family="sans-serif" font-size="13" lengthAdjust="spacing" textLength="137" x="238" y="158.9263">Get previous anchors</text><polygon fill="#181818" points="242,189.125,232,193.125,242,197.125,238,193.125" style="stroke:#181818;stroke-width:1.0;"/><line style="stroke:#181818;stroke-width:1.0;stroke-dasharray:2.0,2.0;" x1="236" x2="484" y1="193.125" y2="193.125"/><text fill="#000000" font-family="sans-serif" font-size="13" lengthAdjust="spacing" textLength="51" x="248" y="188.0591">anchors</text><line style="stroke:#181818;stroke-width:1.0;" x1="231" x2="273" y1="222.2578" y2="222.2578"/><line style="stroke:#181818;stroke-width:1.0;" x1="273" x2="273" y1="222.2578" y2="235.2578"/><line style="stroke:#181818;stroke-width:1.0;" x1="232" x2="273" y1="235.2578" y2="235.2578"/><polygon fill="#181818" points="242,231.2578,232,235.2578,242,239.2578,238,235.2578" style="stroke:#181818;stroke-width:1.0;"/><text fill="#000000" font-family="sans-serif" font-size="13" lengthAdjust="spacing" textLength="119" x="238" y="217.1919">Resolve witnesses</text><line style="stroke:#181818;stroke-width:1.0;" x1="231" x2="273" y1="264.3906" y2="264.3906"/><line style="stroke:#181818;stroke-width:1.0;" x1="273" x2="273" y1="264.3906" y2="277.3906"/><line style="stroke:#181818;stroke-width:1.0;" x1="232" x2="273" y1="277.3906" y2="277.3906"/><polygon fill="#181818" points="242,273.3906,232,277.3906,242,281.3906,238,277.3906" style="stroke:#181818;stroke-width:1.0;"/><text fill="#000000" font-family="sans-serif" font-size="13" lengthAdjust="spacing" textLength="100" x="238" y="259.3247">BuildAnchorLink</text><polygon fill="#181818" points="567,302.5234,577,306.5234,567,310.5234,571,306.5234" style="stroke:#181818;stroke-width:1.0;"/><line style="stroke:#181818;stroke-width:1.0;" x1="231" x2="573" y1="306.5234" y2="306.5234"/><text fill="#000000" font-family="sans-serif" font-size="13" lengthAdjust="spacing" textLength="100" x="238" y="301.4575">Put(anchorLink)</text><polygon fill="#181818" points="242,331.6563,232,335.6563,242,339.6563,238,335.6563" style="stroke:#181818;stroke-width:1.0;"/><line style="stroke:#181818;stroke-width:1.0;stroke-dasharray:2.0,2.0;" x1="236" x2="583" y1="335.6563" y2="335.6563"/><text fill="#000000" font-family="sans-serif" font-size="13" lengthAdjust="spacing" textLength="15" x="248" y="330.5903">ok</text><line style="stroke:#181818;stroke-width:1.0;" x1="231" x2="273" y1="364.7891" y2="364.7891"/><line style="stroke:#181818;stroke-width:1.0;" x1="273" x2="273" y1="364.7891" y2="377.7891"/><line style="stroke:#181818;stroke-width:1.0;" x1="232" x2="273" y1="377.7891" y2="377.7891"/><polygon fill="#181818" points="242,373.7891,232,377.7891,242,381.7891,238,377.7891" style="stroke:#181818;stroke-width:1.0;"/><text fill="#000000" font-family="sans-serif" font-size="13" lengthAdjust="spacing" textLength="142" x="238" y="359.7231">BuildOffer(anchorLink)</text><polygon fill="#181818" points="381,402.9219,391,406.9219,381,410.9219,385,406.9219" style="stroke:#181818;stroke-width:1.0;"/><line style="stroke:#181818;stroke-width:1.0;" x1="231" x2="387" y1="406.9219" y2="406.9219"/><text fill="#000000" font-family="sans-serif" font-size="13" lengthAdjust="spacing" textLength="143" x="238" y="401.856">Post(Offer, witnesses)</text><polygon fill="#181818" points="242,432.0547,232,436.0547,242,440.0547,238,436.0547" style="stroke:#181818;stroke-width:1.0;"/><line style="stroke:#181818;stroke-width:1.0;stroke-dasharray:2.0,2.0;" x1="236" x2="392" y1="436.0547" y2="436.0547"/><text fill="#000000" font-family="sans-serif" font-size="13" lengthAdjust="spacing" textLength="15" x="248" y="430.9888">ok</text><polygon fill="#181818" points="654,461.1875,664,465.1875,654,469.1875,658,465.1875" style="stroke:#181818;stroke-width:1.0;"/><line style="stroke:#181818;stroke-width:1.0;" x1="231" x2="660" y1="465.1875" y2="465.1875"/><text fill="#000000" font-family="sans-serif" font-size="13" lengthAdjust="spacing" textLength="95" x="238" y="460.1216">Put(witnesses)</text><polygon fill="#181818" points="242,490.3203,232,494.3203,242,498.3203,238,494.3203" style="stroke:#181818;stroke-width:1.0;"/><line style="stroke:#181818;stroke-width:1.0;stroke-dasharray:2.0,2.0;" x1="236" x2="670" y1="494.3203" y2="494.3203"/><text fill="#000000" font-family="sans-serif" font-size="13" lengthAdjust="spacing" textLength="15" x="248" y="489.2544">ok</text><polygon fill="#181818" points="80,519.4531,70,523.4531,80,527.4531,76,523.4531" style="stroke:#181818;stroke-width:1.0;"/><line style="stroke:#181818;stroke-width:1.0;stroke-dasharray:2.0,2.0;" x1="74" x2="225" y1="523.4531" y2="523.4531"/><text fill="#000000" font-family="sans-serif" font-size="13" lengthAdjust="spacing" textLength="15" x="86" y="518.3872">ok</text><polygon fill="#181818" points="727.5,548.5859,737.5,552.5859,727.5,556.5859,731.5,552.5859" style="stroke:#181818;stroke-width:1.0;"/><line style="stroke:#181818;stroke-width:1.0;" x1="403" x2="733.5" y1="552.5859" y2="552.5859"/><text fill="#000000" font-family="sans-serif" font-size="13" lengthAdjust="spacing" textLength="33" x="410" y="547.52">Offer</text><polygon fill="#181818" points="414,577.7188,404,581.7188,414,585.7188,410,581.7188" style="stroke:#181818;stroke-width:1.0;"/><line style="stroke:#181818;stroke-width:1.0;stroke-dasharray:2.0,2.0;" x1="408" x2="738.5" y1="581.7188" y2="581.7188"/><text fill="#000000" font-family="sans-serif" font-size="13" lengthAdjust="spacing" textLength="15" x="420" y="576.6528">ok</text><polygon fill="#181818" points="801,606.8516,811,610.8516,801,614.8516,805,610.8516" style="stroke:#181818;stroke-width:1.0;"/><line style="stroke:#181818;stroke-width:1.0;" x1="403" x2="807" y1="610.8516" y2="610.8516"/><text fill="#000000" font-family="sans-serif" font-size="13" lengthAdjust="spacing" textLength="33" x="410" y="605.7856">Offer</text><polygon fill="#181818" points="409,635.9844,399,639.9844,409,643.9844,405,639.9844" style="stroke:#181818;stroke-width:1.0;"/><line style="stroke:#181818;stroke-width:1.0;stroke-dasharray:2.0,2.0;" x1="403" x2="812" y1="639.9844" y2="639.9844"/><text fill="#000000" font-family="sans-serif" font-size="13" lengthAdjust="spacing" textLength="15" x="415" y="634.9185">ok</text><!--MD5=[4950a6de2e1ba4bbf8bfe1f606fa57c7]
@startuml
'https://plantuml.com/sequence-diagram

actor "sidetree-core-go" as client

box Domain1 #White
    participant "Anchor\nWriter" as anchorWriter
    participant "Outbox" as outbox
    database "DID Anchor\nDB" as didAnchorDB
    database "Anchor Link\nDB" as anchorLinkDB
    database "Witness\nDB" as witnessDB
end box

box Domain2
    participant Inbox as inbox2
end box

box Domain3
    participant Inbox as inbox3
end box

client -> anchorWriter: WriteAnchor(anchor)
activate anchorWriter
  anchorWriter -> didAnchorDB: Get previous anchors
  activate didAnchorDB
  didAnchorDB - -> anchorWriter: anchors
  deactivate didAnchorDB
  anchorWriter -> anchorWriter: Resolve witnesses
  anchorWriter -> anchorWriter: BuildAnchorLink
  anchorWriter -> anchorLinkDB: Put(anchorLink)
  activate anchorLinkDB
  anchorLinkDB - -> anchorWriter: ok
  deactivate anchorLinkDB
  anchorWriter -> anchorWriter: BuildOffer(anchorLink)
  anchorWriter -> outbox: Post(Offer, witnesses)
  activate outbox
  outbox - -> anchorWriter: ok

  anchorWriter -> witnessDB: Put(witnesses)
  activate witnessDB
  witnessDB - -> anchorWriter: ok
  deactivate witnessDB

  anchorWriter - -> client: ok
deactivate anchorWriter

outbox -> inbox2: Offer
    activate inbox2
    inbox2 - -> outbox: ok

outbox -> inbox3: Offer
    activate inbox3
    inbox3 - -> outbox: ok
deactivate outbox
@enduml

@startuml

actor "sidetree-core-go" as client

box Domain1 #White
    participant "Anchor\nWriter" as anchorWriter
    participant "Outbox" as outbox
    database "DID Anchor\nDB" as didAnchorDB
    database "Anchor Link\nDB" as anchorLinkDB
    database "Witness\nDB" as witnessDB
end box

box Domain2
    participant Inbox as inbox2
end box

box Domain3
    participant Inbox as inbox3
end box

client -> anchorWriter: WriteAnchor(anchor)
activate anchorWriter
  anchorWriter -> didAnchorDB: Get previous anchors
  activate didAnchorDB
  didAnchorDB - -> anchorWriter: anchors
  deactivate didAnchorDB
  anchorWriter -> anchorWriter: Resolve witnesses
  anchorWriter -> anchorWriter: BuildAnchorLink
  anchorWriter -> anchorLinkDB: Put(anchorLink)
  activate anchorLinkDB
  anchorLinkDB - -> anchorWriter: ok
  deactivate anchorLinkDB
  anchorWriter -> anchorWriter: BuildOffer(anchorLink)
  anchorWriter -> outbox: Post(Offer, witnesses)
  activate outbox
  outbox - -> anchorWriter: ok

  anchorWriter -> witnessDB: Put(witnesses)
  activate witnessDB
  witnessDB - -> anchorWriter: ok
  deactivate witnessDB

  anchorWriter - -> client: ok
deactivate anchorWriter

outbox -> inbox2: Offer
    activate inbox2
    inbox2 - -> outbox: ok

outbox -> inbox3: Offer
    activate inbox3
    inbox3 - -> outbox: ok
deactivate outbox
@enduml

PlantUML version 1.2022.4beta2(Unknown compile time)
(GPL source distribution)
Java Runtime: Java(TM) SE Runtime Environment
JVM: Java HotSpot(TM) 64-Bit Server VM
Default Encoding: UTF-8
Language: en
Country: US
--></g></svg>