<?xml version="1.0" encoding="UTF-8" standalone="no"?><svg xmlns="http://www.w3.org/2000/svg" xmlns:xlink="http://www.w3.org/1999/xlink" contentStyleType="text/css" height="1546px" preserveAspectRatio="none" style="width:1116px;height:1546px;" version="1.1" viewBox="0 0 1116 1546" width="1116px" zoomAndPan="magnify"><defs><style type="text/css"><![CDATA[*.s_181818_e7e7e7 {stroke:#181818;}*.f_000000_ffffff {fill:#000000;}*.f_dddddd_222222 {fill:#dddddd;}*.f_ffffff_000000 {fill:#ffffff;}*.f_181818_e7e7e7 {fill:#181818;}*.f_feffdd_333333 {fill:#feffdd;}@media (prefers-color-scheme:dark) {*.s_181818_e7e7e7 {stroke:#e7e7e7;}*.f_000000_ffffff {fill:#ffffff;}*.f_dddddd_222222 {fill:#222222;}*.f_ffffff_000000 {fill:#000000;}*.f_181818_e7e7e7 {fill:#e7e7e7;}*.f_feffdd_333333 {fill:#333333;}}]]></style></defs><g><rect class="s_181818_e7e7e7" fill="#FFFFFF" height="1527.0313" style="stroke-width:0.5;" width="381" x="14" y="6"/><text class="f_000000_ffffff" font-family="sans-serif" font-size="13" font-weight="bold" lengthAdjust="spacing" textLength="66" x="169" y="18.0669">Domain1</text><rect class="f_dddddd_222222 s_181818_e7e7e7" height="1527.0313" style="stroke-width:0.5;" width="353.5" x="397" y="6"/><text class="f_000000_ffffff" font-family="sans-serif" font-size="13" font-weight="bold" lengthAdjust="spacing" textLength="66" x="540.75" y="18.0669">Domain2</text><rect class="s_181818_e7e7e7" fill="#FFFFFF" height="1527.0313" style="stroke-width:0.5;" width="358" x="752.5" y="6"/><text class="f_000000_ffffff" font-family="sans-serif" font-size="13" font-weight="bold" lengthAdjust="spacing" textLength="65" x="896.5" y="18.0669">Domain3</text><rect class="f_ffffff_000000 s_181818_e7e7e7" height="282.4609" style="stroke-width:1.0;" width="10" x="52" y="118.5625"/><rect class="f_ffffff_000000 s_181818_e7e7e7" height="130.6641" style="stroke-width:1.0;" width="10" x="52" y="904.9453"/><rect class="f_ffffff_000000 s_181818_e7e7e7" height="130.6641" style="stroke-width:1.0;" width="10" x="52" y="1319.0703"/><rect class="f_ffffff_000000 s_181818_e7e7e7" height="303.5938" style="stroke-width:1.0;" width="10" x="226" y="97.4297"/><rect class="f_ffffff_000000 s_181818_e7e7e7" height="436.3906" style="stroke-width:1.0;" width="10" x="434.5" y="220.0938"/><rect class="f_ffffff_000000 s_181818_e7e7e7" height="162.7969" style="stroke-width:1.0;" width="10" x="434.5" y="828.5469"/><rect class="f_ffffff_000000 s_181818_e7e7e7" height="130.6641" style="stroke-width:1.0;" width="10" x="434.5" y="1159.2734"/><rect class="f_ffffff_000000 s_181818_e7e7e7" height="445.6563" style="stroke-width:1.0;" width="10" x="699.5" y="430.1563"/><rect class="f_ffffff_000000 s_181818_e7e7e7" height="177.9297" style="stroke-width:1.0;" width="10" x="790.5" y="570.0859"/><rect class="f_ffffff_000000 s_181818_e7e7e7" height="322.5938" style="stroke-width:1.0;" width="10" x="790.5" y="1082.875"/><rect class="f_ffffff_000000 s_181818_e7e7e7" height="444.5234" style="stroke-width:1.0;" width="10" x="1059" y="685.6172"/><line class="s_181818_e7e7e7" style="stroke-width:0.5;stroke-dasharray:5.0,5.0;" x1="57" x2="57" y1="87.4297" y2="1467.7344"/><line class="s_181818_e7e7e7" style="stroke-width:0.5;stroke-dasharray:5.0,5.0;" x1="231" x2="231" y1="87.4297" y2="1467.7344"/><line class="s_181818_e7e7e7" style="stroke-width:0.5;stroke-dasharray:5.0,5.0;" x1="345" x2="345" y1="87.4297" y2="1467.7344"/><line class="s_181818_e7e7e7" style="stroke-width:0.5;stroke-dasharray:5.0,5.0;" x1="439" x2="439" y1="87.4297" y2="1467.7344"/><line class="s_181818_e7e7e7" style="stroke-width:0.5;stroke-dasharray:5.0,5.0;" x1="607.5" x2="607.5" y1="87.4297" y2="1467.7344"/><line class="s_181818_e7e7e7" style="stroke-width:0.5;stroke-dasharray:5.0,5.0;" x1="704.5" x2="704.5" y1="87.4297" y2="1467.7344"/><line class="s_181818_e7e7e7" style="stroke-width:0.5;stroke-dasharray:5.0,5.0;" x1="795.5" x2="795.5" y1="87.4297" y2="1467.7344"/><line class="s_181818_e7e7e7" style="stroke-width:0.5;stroke-dasharray:5.0,5.0;" x1="963.5" x2="963.5" y1="87.4297" y2="1467.7344"/><line class="s_181818_e7e7e7" style="stroke-width:0.5;stroke-dasharray:5.0,5.0;" x1="1063.5" x2="1063.5" y1="87.4297" y2="1467.7344"/><rect class="s_181818_e7e7e7" fill="#E2E2F0" height="30.2969" rx="2.5" ry="2.5" style="stroke-width:0.5;" width="78" x="18" y="56.1328"/><text class="f_000000_ffffff" font-family="sans-serif" font-size="14" lengthAdjust="spacing" textLength="64" x="25" y="76.1279">Domain1</text><rect class="s_181818_e7e7e7" fill="#E2E2F0" height="30.2969" rx="2.5" ry="2.5" style="stroke-width:0.5;" width="78" x="18" y="1466.7344"/><text class="f_000000_ffffff" font-family="sans-serif" font-size="14" lengthAdjust="spacing" textLength="64" x="25" y="1486.7295">Domain1</text><path class="s_181818_e7e7e7" d="M177,61.1328 L285,61.1328 C290,61.1328 290,74.2813 290,74.2813 C290,74.2813 290,87.4297 285,87.4297 L177,87.4297 C172,87.4297 172,74.2813 172,74.2813 C172,74.2813 172,61.1328 177,61.1328 " fill="#E2E2F0" style="stroke-width:0.5;"/><path class="s_181818_e7e7e7" d="M285,61.1328 C280,61.1328 280,74.2813 280,74.2813 C280,87.4297 285,87.4297 285,87.4297 " fill="none" style="stroke-width:0.5;"/><text class="f_000000_ffffff" font-family="sans-serif" font-size="14" lengthAdjust="spacing" textLength="98" x="177" y="79.1279">anchor_event</text><path class="s_181818_e7e7e7" d="M177,1466.7344 L285,1466.7344 C290,1466.7344 290,1479.8828 290,1479.8828 C290,1479.8828 290,1493.0313 285,1493.0313 L177,1493.0313 C172,1493.0313 172,1479.8828 172,1479.8828 C172,1479.8828 172,1466.7344 177,1466.7344 " fill="#E2E2F0" style="stroke-width:0.5;"/><path class="s_181818_e7e7e7" d="M285,1466.7344 C280,1466.7344 280,1479.8828 280,1479.8828 C280,1493.0313 285,1493.0313 285,1493.0313 " fill="none" style="stroke-width:0.5;"/><text class="f_000000_ffffff" font-family="sans-serif" font-size="14" lengthAdjust="spacing" textLength="98" x="177" y="1484.7295">anchor_event</text><text class="f_000000_ffffff" font-family="sans-serif" font-size="14" lengthAdjust="spacing" textLength="85" x="300" y="84.1279">Domain1DB</text><path class="s_181818_e7e7e7" d="M327.5,35.1328 C327.5,25.1328 345.5,25.1328 345.5,25.1328 C345.5,25.1328 363.5,25.1328 363.5,35.1328 L363.5,61.1328 C363.5,71.1328 345.5,71.1328 345.5,71.1328 C345.5,71.1328 327.5,71.1328 327.5,61.1328 L327.5,35.1328 " fill="#E2E2F0" style="stroke-width:1.5;"/><path class="s_181818_e7e7e7" d="M327.5,35.1328 C327.5,45.1328 345.5,45.1328 345.5,45.1328 C345.5,45.1328 363.5,45.1328 363.5,35.1328 " fill="none" style="stroke-width:1.5;"/><text class="f_000000_ffffff" font-family="sans-serif" font-size="14" lengthAdjust="spacing" textLength="85" x="300" y="1479.7295">Domain1DB</text><path class="s_181818_e7e7e7" d="M327.5,1493.0313 C327.5,1483.0313 345.5,1483.0313 345.5,1483.0313 C345.5,1483.0313 363.5,1483.0313 363.5,1493.0313 L363.5,1519.0313 C363.5,1529.0313 345.5,1529.0313 345.5,1529.0313 C345.5,1529.0313 327.5,1529.0313 327.5,1519.0313 L327.5,1493.0313 " fill="#E2E2F0" style="stroke-width:1.5;"/><path class="s_181818_e7e7e7" d="M327.5,1493.0313 C327.5,1503.0313 345.5,1503.0313 345.5,1503.0313 C345.5,1503.0313 363.5,1503.0313 363.5,1493.0313 " fill="none" style="stroke-width:1.5;"/><rect class="s_181818_e7e7e7" fill="#E2E2F0" height="30.2969" rx="2.5" ry="2.5" style="stroke-width:0.5;" width="77" x="401" y="56.1328"/><text class="f_000000_ffffff" font-family="sans-serif" font-size="14" lengthAdjust="spacing" textLength="63" x="408" y="76.1279">Domain2</text><rect class="s_181818_e7e7e7" fill="#E2E2F0" height="30.2969" rx="2.5" ry="2.5" style="stroke-width:0.5;" width="77" x="401" y="1466.7344"/><text class="f_000000_ffffff" font-family="sans-serif" font-size="14" lengthAdjust="spacing" textLength="63" x="408" y="1486.7295">Domain2</text><text class="f_000000_ffffff" font-family="sans-serif" font-size="14" lengthAdjust="spacing" textLength="84" x="562.5" y="84.1279">Domain2DB</text><path class="s_181818_e7e7e7" d="M589.5,35.1328 C589.5,25.1328 607.5,25.1328 607.5,25.1328 C607.5,25.1328 625.5,25.1328 625.5,35.1328 L625.5,61.1328 C625.5,71.1328 607.5,71.1328 607.5,71.1328 C607.5,71.1328 589.5,71.1328 589.5,61.1328 L589.5,35.1328 " fill="#E2E2F0" style="stroke-width:1.5;"/><path class="s_181818_e7e7e7" d="M589.5,35.1328 C589.5,45.1328 607.5,45.1328 607.5,45.1328 C607.5,45.1328 625.5,45.1328 625.5,35.1328 " fill="none" style="stroke-width:1.5;"/><text class="f_000000_ffffff" font-family="sans-serif" font-size="14" lengthAdjust="spacing" textLength="84" x="562.5" y="1479.7295">Domain2DB</text><path class="s_181818_e7e7e7" d="M589.5,1493.0313 C589.5,1483.0313 607.5,1483.0313 607.5,1483.0313 C607.5,1483.0313 625.5,1483.0313 625.5,1493.0313 L625.5,1519.0313 C625.5,1529.0313 607.5,1529.0313 607.5,1529.0313 C607.5,1529.0313 589.5,1529.0313 589.5,1519.0313 L589.5,1493.0313 " fill="#E2E2F0" style="stroke-width:1.5;"/><path class="s_181818_e7e7e7" d="M589.5,1493.0313 C589.5,1503.0313 607.5,1503.0313 607.5,1503.0313 C607.5,1503.0313 625.5,1503.0313 625.5,1493.0313 " fill="none" style="stroke-width:1.5;"/><path class="s_181818_e7e7e7" d="M667.5,61.1328 L741.5,61.1328 C746.5,61.1328 746.5,74.2813 746.5,74.2813 C746.5,74.2813 746.5,87.4297 741.5,87.4297 L667.5,87.4297 C662.5,87.4297 662.5,74.2813 662.5,74.2813 C662.5,74.2813 662.5,61.1328 667.5,61.1328 " fill="#E2E2F0" style="stroke-width:0.5;"/><path class="s_181818_e7e7e7" d="M741.5,61.1328 C736.5,61.1328 736.5,74.2813 736.5,74.2813 C736.5,87.4297 741.5,87.4297 741.5,87.4297 " fill="none" style="stroke-width:0.5;"/><text class="f_000000_ffffff" font-family="sans-serif" font-size="14" lengthAdjust="spacing" textLength="64" x="667.5" y="79.1279">anchor_2</text><path class="s_181818_e7e7e7" d="M667.5,1466.7344 L741.5,1466.7344 C746.5,1466.7344 746.5,1479.8828 746.5,1479.8828 C746.5,1479.8828 746.5,1493.0313 741.5,1493.0313 L667.5,1493.0313 C662.5,1493.0313 662.5,1479.8828 662.5,1479.8828 C662.5,1479.8828 662.5,1466.7344 667.5,1466.7344 " fill="#E2E2F0" style="stroke-width:0.5;"/><path class="s_181818_e7e7e7" d="M741.5,1466.7344 C736.5,1466.7344 736.5,1479.8828 736.5,1479.8828 C736.5,1493.0313 741.5,1493.0313 741.5,1493.0313 " fill="none" style="stroke-width:0.5;"/><text class="f_000000_ffffff" font-family="sans-serif" font-size="14" lengthAdjust="spacing" textLength="64" x="667.5" y="1484.7295">anchor_2</text><rect class="s_181818_e7e7e7" fill="#E2E2F0" height="30.2969" rx="2.5" ry="2.5" style="stroke-width:0.5;" width="78" x="756.5" y="56.1328"/><text class="f_000000_ffffff" font-family="sans-serif" font-size="14" lengthAdjust="spacing" textLength="64" x="763.5" y="76.1279">Domain3</text><rect class="s_181818_e7e7e7" fill="#E2E2F0" height="30.2969" rx="2.5" ry="2.5" style="stroke-width:0.5;" width="78" x="756.5" y="1466.7344"/><text class="f_000000_ffffff" font-family="sans-serif" font-size="14" lengthAdjust="spacing" textLength="64" x="763.5" y="1486.7295">Domain3</text><text class="f_000000_ffffff" font-family="sans-serif" font-size="14" lengthAdjust="spacing" textLength="90" x="915.5" y="84.1279">Domain3_db</text><path class="s_181818_e7e7e7" d="M945.5,35.1328 C945.5,25.1328 963.5,25.1328 963.5,25.1328 C963.5,25.1328 981.5,25.1328 981.5,35.1328 L981.5,61.1328 C981.5,71.1328 963.5,71.1328 963.5,71.1328 C963.5,71.1328 945.5,71.1328 945.5,61.1328 L945.5,35.1328 " fill="#E2E2F0" style="stroke-width:1.5;"/><path class="s_181818_e7e7e7" d="M945.5,35.1328 C945.5,45.1328 963.5,45.1328 963.5,45.1328 C963.5,45.1328 981.5,45.1328 981.5,35.1328 " fill="none" style="stroke-width:1.5;"/><text class="f_000000_ffffff" font-family="sans-serif" font-size="14" lengthAdjust="spacing" textLength="90" x="915.5" y="1479.7295">Domain3_db</text><path class="s_181818_e7e7e7" d="M945.5,1493.0313 C945.5,1483.0313 963.5,1483.0313 963.5,1483.0313 C963.5,1483.0313 981.5,1483.0313 981.5,1493.0313 L981.5,1519.0313 C981.5,1529.0313 963.5,1529.0313 963.5,1529.0313 C963.5,1529.0313 945.5,1529.0313 945.5,1519.0313 L945.5,1493.0313 " fill="#E2E2F0" style="stroke-width:1.5;"/><path class="s_181818_e7e7e7" d="M945.5,1493.0313 C945.5,1503.0313 963.5,1503.0313 963.5,1503.0313 C963.5,1503.0313 981.5,1503.0313 981.5,1493.0313 " fill="none" style="stroke-width:1.5;"/><path class="s_181818_e7e7e7" d="M1026.5,61.1328 L1101.5,61.1328 C1106.5,61.1328 1106.5,74.2813 1106.5,74.2813 C1106.5,74.2813 1106.5,87.4297 1101.5,87.4297 L1026.5,87.4297 C1021.5,87.4297 1021.5,74.2813 1021.5,74.2813 C1021.5,74.2813 1021.5,61.1328 1026.5,61.1328 " fill="#E2E2F0" style="stroke-width:0.5;"/><path class="s_181818_e7e7e7" d="M1101.5,61.1328 C1096.5,61.1328 1096.5,74.2813 1096.5,74.2813 C1096.5,87.4297 1101.5,87.4297 1101.5,87.4297 " fill="none" style="stroke-width:0.5;"/><text class="f_000000_ffffff" font-family="sans-serif" font-size="14" lengthAdjust="spacing" textLength="65" x="1026.5" y="79.1279">anchor_3</text><path class="s_181818_e7e7e7" d="M1026.5,1466.7344 L1101.5,1466.7344 C1106.5,1466.7344 1106.5,1479.8828 1106.5,1479.8828 C1106.5,1479.8828 1106.5,1493.0313 1101.5,1493.0313 L1026.5,1493.0313 C1021.5,1493.0313 1021.5,1479.8828 1021.5,1479.8828 C1021.5,1479.8828 1021.5,1466.7344 1026.5,1466.7344 " fill="#E2E2F0" style="stroke-width:0.5;"/><path class="s_181818_e7e7e7" d="M1101.5,1466.7344 C1096.5,1466.7344 1096.5,1479.8828 1096.5,1479.8828 C1096.5,1493.0313 1101.5,1493.0313 1101.5,1493.0313 " fill="none" style="stroke-width:0.5;"/><text class="f_000000_ffffff" font-family="sans-serif" font-size="14" lengthAdjust="spacing" textLength="65" x="1026.5" y="1484.7295">anchor_3</text><rect class="f_ffffff_000000 s_181818_e7e7e7" height="282.4609" style="stroke-width:1.0;" width="10" x="52" y="118.5625"/><rect class="f_ffffff_000000 s_181818_e7e7e7" height="130.6641" style="stroke-width:1.0;" width="10" x="52" y="904.9453"/><rect class="f_ffffff_000000 s_181818_e7e7e7" height="130.6641" style="stroke-width:1.0;" width="10" x="52" y="1319.0703"/><rect class="f_ffffff_000000 s_181818_e7e7e7" height="303.5938" style="stroke-width:1.0;" width="10" x="226" y="97.4297"/><rect class="f_ffffff_000000 s_181818_e7e7e7" height="436.3906" style="stroke-width:1.0;" width="10" x="434.5" y="220.0938"/><rect class="f_ffffff_000000 s_181818_e7e7e7" height="162.7969" style="stroke-width:1.0;" width="10" x="434.5" y="828.5469"/><rect class="f_ffffff_000000 s_181818_e7e7e7" height="130.6641" style="stroke-width:1.0;" width="10" x="434.5" y="1159.2734"/><rect class="f_ffffff_000000 s_181818_e7e7e7" height="445.6563" style="stroke-width:1.0;" width="10" x="699.5" y="430.1563"/><rect class="f_ffffff_000000 s_181818_e7e7e7" height="177.9297" style="stroke-width:1.0;" width="10" x="790.5" y="570.0859"/><rect class="f_ffffff_000000 s_181818_e7e7e7" height="322.5938" style="stroke-width:1.0;" width="10" x="790.5" y="1082.875"/><rect class="f_ffffff_000000 s_181818_e7e7e7" height="444.5234" style="stroke-width:1.0;" width="10" x="1059" y="685.6172"/><polygon class="f_181818_e7e7e7 s_181818_e7e7e7" points="73,114.5625,63,118.5625,73,122.5625,69,118.5625" style="stroke-width:1.0;"/><line class="s_181818_e7e7e7" style="stroke-width:1.0;" x1="67" x2="225" y1="118.5625" y2="118.5625"/><text class="f_000000_ffffff" font-family="sans-serif" font-size="13" lengthAdjust="spacing" textLength="145" x="79" y="113.4966">AnchorEvent message</text><line class="s_181818_e7e7e7" style="stroke-width:1.0;" x1="62" x2="104" y1="177.9609" y2="177.9609"/><line class="s_181818_e7e7e7" style="stroke-width:1.0;" x1="104" x2="104" y1="177.9609" y2="190.9609"/><line class="s_181818_e7e7e7" style="stroke-width:1.0;" x1="63" x2="104" y1="190.9609" y2="190.9609"/><polygon class="f_181818_e7e7e7 s_181818_e7e7e7" points="73,186.9609,63,190.9609,73,194.9609,69,190.9609" style="stroke-width:1.0;"/><text class="f_000000_ffffff" font-family="sans-serif" font-size="13" lengthAdjust="spacing" textLength="79" x="69" y="142.6294">Batch Writer</text><text class="f_000000_ffffff" font-family="sans-serif" font-size="13" lengthAdjust="spacing" textLength="65" x="69" y="157.7622">processes</text><text class="f_000000_ffffff" font-family="sans-serif" font-size="13" lengthAdjust="spacing" textLength="82" x="69" y="172.895">AnchorEvent</text><polygon class="f_181818_e7e7e7 s_181818_e7e7e7" points="422.5,216.0938,432.5,220.0938,422.5,224.0938,426.5,220.0938" style="stroke-width:1.0;"/><line class="s_181818_e7e7e7" style="stroke-width:1.0;" x1="62" x2="428.5" y1="220.0938" y2="220.0938"/><text class="f_000000_ffffff" font-family="sans-serif" font-size="13" lengthAdjust="spacing" textLength="94" x="69" y="215.0278">Create activity</text><path class="f_feffdd_333333 s_181818_e7e7e7" d="M5,233.0938 L5,288.0938 L110,288.0938 L110,243.0938 L100,233.0938 L5,233.0938 " style="stroke-width:0.5;"/><path class="f_feffdd_333333 s_181818_e7e7e7" d="M100,233.0938 L100,243.0938 L110,243.0938 L100,233.0938 " style="stroke-width:0.5;"/><text class="f_000000_ffffff" font-family="sans-serif" font-size="13" lengthAdjust="spacing" textLength="75" x="11" y="250.1606">Post Create</text><text class="f_000000_ffffff" font-family="sans-serif" font-size="13" lengthAdjust="spacing" textLength="80" x="11" y="265.2935">to servers in</text><text class="f_000000_ffffff" font-family="sans-serif" font-size="13" lengthAdjust="spacing" textLength="84" x="11" y="280.4263">followers list.</text><line class="s_181818_e7e7e7" style="stroke-width:1.0;" x1="444.5" x2="486.5" y1="329.7578" y2="329.7578"/><line class="s_181818_e7e7e7" style="stroke-width:1.0;" x1="486.5" x2="486.5" y1="329.7578" y2="342.7578"/><line class="s_181818_e7e7e7" style="stroke-width:1.0;" x1="445.5" x2="486.5" y1="342.7578" y2="342.7578"/><polygon class="f_181818_e7e7e7 s_181818_e7e7e7" points="455.5,338.7578,445.5,342.7578,455.5,346.7578,451.5,342.7578" style="stroke-width:1.0;"/><text class="f_000000_ffffff" font-family="sans-serif" font-size="13" lengthAdjust="spacing" textLength="144" x="451.5" y="309.5591">Authenticate Domain1</text><text class="f_000000_ffffff" font-family="sans-serif" font-size="13" lengthAdjust="spacing" textLength="135" x="451.5" y="324.6919">using HTTP signature</text><polygon class="f_181818_e7e7e7 s_181818_e7e7e7" points="73,367.8906,63,371.8906,73,375.8906,69,371.8906" style="stroke-width:1.0;"/><line class="s_181818_e7e7e7" style="stroke-width:1.0;stroke-dasharray:2.0,2.0;" x1="67" x2="433.5" y1="371.8906" y2="371.8906"/><text class="f_000000_ffffff" font-family="sans-serif" font-size="13" lengthAdjust="spacing" textLength="18" x="79" y="366.8247">OK</text><polygon class="f_181818_e7e7e7 s_181818_e7e7e7" points="219,397.0234,229,401.0234,219,405.0234,223,401.0234" style="stroke-width:1.0;"/><line class="s_181818_e7e7e7" style="stroke-width:1.0;stroke-dasharray:2.0,2.0;" x1="57" x2="225" y1="401.0234" y2="401.0234"/><text class="f_000000_ffffff" font-family="sans-serif" font-size="13" lengthAdjust="spacing" textLength="26" x="64" y="395.9575">ACK</text><polygon class="f_181818_e7e7e7 s_181818_e7e7e7" points="687.5,426.1563,697.5,430.1563,687.5,434.1563,691.5,430.1563" style="stroke-width:1.0;"/><line class="s_181818_e7e7e7" style="stroke-width:1.0;" x1="444.5" x2="693.5" y1="430.1563" y2="430.1563"/><text class="f_000000_ffffff" font-family="sans-serif" font-size="13" lengthAdjust="spacing" textLength="82" x="451.5" y="425.0903">AnchorEvent</text><polygon class="f_181818_e7e7e7 s_181818_e7e7e7" points="455.5,496.1211,445.5,500.1211,455.5,504.1211,451.5,500.1211" style="stroke-width:1.0;"/><line class="s_181818_e7e7e7" style="stroke-width:1.0;stroke-dasharray:2.0,2.0;" x1="449.5" x2="698.5" y1="500.1211" y2="500.1211"/><text class="f_000000_ffffff" font-family="sans-serif" font-size="13" lengthAdjust="spacing" textLength="26" x="461.5" y="495.0552">ACK</text><path class="f_feffdd_333333 s_181818_e7e7e7" d="M283,443.1563 L283,543.1563 L429,543.1563 L429,453.1563 L419,443.1563 L283,443.1563 " style="stroke-width:0.5;"/><path class="f_feffdd_333333 s_181818_e7e7e7" d="M419,443.1563 L419,453.1563 L429,453.1563 L419,443.1563 " style="stroke-width:0.5;"/><text class="f_000000_ffffff" font-family="sans-serif" font-size="13" lengthAdjust="spacing" textLength="125" x="289" y="460.2231">The AnchorEvent in</text><text class="f_000000_ffffff" font-family="sans-serif" font-size="13" lengthAdjust="spacing" textLength="119" x="289" y="475.356">the Create activity</text><text class="f_000000_ffffff" font-family="sans-serif" font-size="13" lengthAdjust="spacing" textLength="100" x="289" y="490.4888">is posted to the</text><text class="f_000000_ffffff" font-family="sans-serif" font-size="13" lengthAdjust="spacing" textLength="125" x="289" y="505.6216">anchor queue to be</text><text class="f_000000_ffffff" font-family="sans-serif" font-size="13" lengthAdjust="spacing" textLength="111" x="289" y="520.7544">processed by the</text><text class="f_000000_ffffff" font-family="sans-serif" font-size="13" lengthAdjust="spacing" textLength="63" x="289" y="535.8872">Observer.</text><polygon class="f_181818_e7e7e7 s_181818_e7e7e7" points="778.5,566.0859,788.5,570.0859,778.5,574.0859,782.5,570.0859" style="stroke-width:1.0;"/><line class="s_181818_e7e7e7" style="stroke-width:1.0;" x1="444.5" x2="784.5" y1="570.0859" y2="570.0859"/><text class="f_000000_ffffff" font-family="sans-serif" font-size="13" lengthAdjust="spacing" textLength="115" x="451.5" y="565.02">Announce activity</text><line class="s_181818_e7e7e7" style="stroke-width:1.0;" x1="800.5" x2="842.5" y1="614.3516" y2="614.3516"/><line class="s_181818_e7e7e7" style="stroke-width:1.0;" x1="842.5" x2="842.5" y1="614.3516" y2="627.3516"/><line class="s_181818_e7e7e7" style="stroke-width:1.0;" x1="801.5" x2="842.5" y1="627.3516" y2="627.3516"/><polygon class="f_181818_e7e7e7 s_181818_e7e7e7" points="811.5,623.3516,801.5,627.3516,811.5,631.3516,807.5,627.3516" style="stroke-width:1.0;"/><text class="f_000000_ffffff" font-family="sans-serif" font-size="13" lengthAdjust="spacing" textLength="144" x="807.5" y="594.1528">Authenticate Domain2</text><text class="f_000000_ffffff" font-family="sans-serif" font-size="13" lengthAdjust="spacing" textLength="135" x="807.5" y="609.2856">using HTTP signature</text><polygon class="f_181818_e7e7e7 s_181818_e7e7e7" points="450.5,652.4844,440.5,656.4844,450.5,660.4844,446.5,656.4844" style="stroke-width:1.0;"/><line class="s_181818_e7e7e7" style="stroke-width:1.0;stroke-dasharray:2.0,2.0;" x1="444.5" x2="789.5" y1="656.4844" y2="656.4844"/><text class="f_000000_ffffff" font-family="sans-serif" font-size="13" lengthAdjust="spacing" textLength="18" x="456.5" y="651.4185">OK</text><polygon class="f_181818_e7e7e7 s_181818_e7e7e7" points="1047,681.6172,1057,685.6172,1047,689.6172,1051,685.6172" style="stroke-width:1.0;"/><line class="s_181818_e7e7e7" style="stroke-width:1.0;" x1="800.5" x2="1053" y1="685.6172" y2="685.6172"/><text class="f_000000_ffffff" font-family="sans-serif" font-size="13" lengthAdjust="spacing" textLength="82" x="807.5" y="680.5513">AnchorEvent</text><polygon class="f_181818_e7e7e7 s_181818_e7e7e7" points="806.5,744.0156,796.5,748.0156,806.5,752.0156,802.5,748.0156" style="stroke-width:1.0;"/><line class="s_181818_e7e7e7" style="stroke-width:1.0;stroke-dasharray:2.0,2.0;" x1="800.5" x2="1058" y1="748.0156" y2="748.0156"/><text class="f_000000_ffffff" font-family="sans-serif" font-size="13" lengthAdjust="spacing" textLength="26" x="812.5" y="742.9497">ACK</text><path class="f_feffdd_333333 s_181818_e7e7e7" d="M597,698.6172 L597,783.6172 L785,783.6172 L785,708.6172 L775,698.6172 L597,698.6172 " style="stroke-width:0.5;"/><path class="f_feffdd_333333 s_181818_e7e7e7" d="M775,698.6172 L775,708.6172 L785,708.6172 L775,698.6172 " style="stroke-width:0.5;"/><text class="f_000000_ffffff" font-family="sans-serif" font-size="13" lengthAdjust="spacing" textLength="125" x="603" y="715.6841">The AnchorEvent in</text><text class="f_000000_ffffff" font-family="sans-serif" font-size="13" lengthAdjust="spacing" textLength="140" x="603" y="730.8169">the Announce activity</text><text class="f_000000_ffffff" font-family="sans-serif" font-size="13" lengthAdjust="spacing" textLength="148" x="603" y="745.9497">is posted to the anchor</text><text class="f_000000_ffffff" font-family="sans-serif" font-size="13" lengthAdjust="spacing" textLength="167" x="603" y="761.0825">queue to be processed by</text><text class="f_000000_ffffff" font-family="sans-serif" font-size="13" lengthAdjust="spacing" textLength="88" x="603" y="776.2153">the Observer.</text><polygon class="f_181818_e7e7e7 s_181818_e7e7e7" points="455.5,824.5469,445.5,828.5469,455.5,832.5469,451.5,828.5469" style="stroke-width:1.0;"/><line class="s_181818_e7e7e7" style="stroke-width:1.0;" x1="449.5" x2="698.5" y1="828.5469" y2="828.5469"/><text class="f_000000_ffffff" font-family="sans-serif" font-size="13" lengthAdjust="spacing" textLength="82" x="461.5" y="823.481">AnchorEvent</text><path class="f_feffdd_333333 s_181818_e7e7e7" d="M284,794.2813 L284,849.2813 L429,849.2813 L429,804.2813 L419,794.2813 L284,794.2813 " style="stroke-width:0.5;"/><path class="f_feffdd_333333 s_181818_e7e7e7" d="M419,794.2813 L419,804.2813 L429,804.2813 L419,794.2813 " style="stroke-width:0.5;"/><text class="f_000000_ffffff" font-family="sans-serif" font-size="13" lengthAdjust="spacing" textLength="124" x="290" y="811.3481">The AnchorEvent is</text><text class="f_000000_ffffff" font-family="sans-serif" font-size="13" lengthAdjust="spacing" textLength="111" x="290" y="826.481">processed by the</text><text class="f_000000_ffffff" font-family="sans-serif" font-size="13" lengthAdjust="spacing" textLength="63" x="290" y="841.6138">Observer.</text><polygon class="f_181818_e7e7e7 s_181818_e7e7e7" points="692.5,871.8125,702.5,875.8125,692.5,879.8125,696.5,875.8125" style="stroke-width:1.0;"/><line class="s_181818_e7e7e7" style="stroke-width:1.0;stroke-dasharray:2.0,2.0;" x1="444.5" x2="698.5" y1="875.8125" y2="875.8125"/><text class="f_000000_ffffff" font-family="sans-serif" font-size="13" lengthAdjust="spacing" textLength="26" x="451.5" y="870.7466">ACK</text><polygon class="f_181818_e7e7e7 s_181818_e7e7e7" points="73,900.9453,63,904.9453,73,908.9453,69,904.9453" style="stroke-width:1.0;"/><line class="s_181818_e7e7e7" style="stroke-width:1.0;" x1="67" x2="433.5" y1="904.9453" y2="904.9453"/><text class="f_000000_ffffff" font-family="sans-serif" font-size="13" lengthAdjust="spacing" textLength="76" x="79" y="899.8794">Like activity</text><line class="s_181818_e7e7e7" style="stroke-width:1.0;" x1="62" x2="104" y1="949.2109" y2="949.2109"/><line class="s_181818_e7e7e7" style="stroke-width:1.0;" x1="104" x2="104" y1="949.2109" y2="962.2109"/><line class="s_181818_e7e7e7" style="stroke-width:1.0;" x1="63" x2="104" y1="962.2109" y2="962.2109"/><polygon class="f_181818_e7e7e7 s_181818_e7e7e7" points="73,958.2109,63,962.2109,73,966.2109,69,962.2109" style="stroke-width:1.0;"/><text class="f_000000_ffffff" font-family="sans-serif" font-size="13" lengthAdjust="spacing" textLength="144" x="69" y="929.0122">Authenticate Domain2</text><text class="f_000000_ffffff" font-family="sans-serif" font-size="13" lengthAdjust="spacing" textLength="135" x="69" y="944.145">using HTTP signature</text><polygon class="f_181818_e7e7e7 s_181818_e7e7e7" points="427.5,987.3438,437.5,991.3438,427.5,995.3438,431.5,991.3438" style="stroke-width:1.0;"/><line class="s_181818_e7e7e7" style="stroke-width:1.0;stroke-dasharray:2.0,2.0;" x1="62" x2="433.5" y1="991.3438" y2="991.3438"/><text class="f_000000_ffffff" font-family="sans-serif" font-size="13" lengthAdjust="spacing" textLength="18" x="69" y="986.2778">OK</text><polygon class="f_181818_e7e7e7 s_181818_e7e7e7" points="333.5,1031.6094,343.5,1035.6094,333.5,1039.6094,337.5,1035.6094" style="stroke-width:1.0;"/><line class="s_181818_e7e7e7" style="stroke-width:1.0;" x1="57" x2="339.5" y1="1035.6094" y2="1035.6094"/><text class="f_000000_ffffff" font-family="sans-serif" font-size="13" lengthAdjust="spacing" textLength="104" x="64" y="1015.4106">Add Domain2 to</text><text class="f_000000_ffffff" font-family="sans-serif" font-size="13" lengthAdjust="spacing" textLength="98" x="64" y="1030.5435">anchor links DB</text><polygon class="f_181818_e7e7e7 s_181818_e7e7e7" points="811.5,1078.875,801.5,1082.875,811.5,1086.875,807.5,1082.875" style="stroke-width:1.0;"/><line class="s_181818_e7e7e7" style="stroke-width:1.0;" x1="805.5" x2="1058" y1="1082.875" y2="1082.875"/><text class="f_000000_ffffff" font-family="sans-serif" font-size="13" lengthAdjust="spacing" textLength="82" x="817.5" y="1077.8091">AnchorEvent</text><path class="f_feffdd_333333 s_181818_e7e7e7" d="M640,1048.6094 L640,1103.6094 L785,1103.6094 L785,1058.6094 L775,1048.6094 L640,1048.6094 " style="stroke-width:0.5;"/><path class="f_feffdd_333333 s_181818_e7e7e7" d="M775,1048.6094 L775,1058.6094 L785,1058.6094 L775,1048.6094 " style="stroke-width:0.5;"/><text class="f_000000_ffffff" font-family="sans-serif" font-size="13" lengthAdjust="spacing" textLength="124" x="646" y="1065.6763">The AnchorEvent is</text><text class="f_000000_ffffff" font-family="sans-serif" font-size="13" lengthAdjust="spacing" textLength="111" x="646" y="1080.8091">processed by the</text><text class="f_000000_ffffff" font-family="sans-serif" font-size="13" lengthAdjust="spacing" textLength="63" x="646" y="1095.9419">Observer.</text><polygon class="f_181818_e7e7e7 s_181818_e7e7e7" points="1052,1126.1406,1062,1130.1406,1052,1134.1406,1056,1130.1406" style="stroke-width:1.0;"/><line class="s_181818_e7e7e7" style="stroke-width:1.0;stroke-dasharray:2.0,2.0;" x1="800.5" x2="1058" y1="1130.1406" y2="1130.1406"/><text class="f_000000_ffffff" font-family="sans-serif" font-size="13" lengthAdjust="spacing" textLength="26" x="807.5" y="1125.0747">ACK</text><polygon class="f_181818_e7e7e7 s_181818_e7e7e7" points="455.5,1155.2734,445.5,1159.2734,455.5,1163.2734,451.5,1159.2734" style="stroke-width:1.0;"/><line class="s_181818_e7e7e7" style="stroke-width:1.0;" x1="449.5" x2="789.5" y1="1159.2734" y2="1159.2734"/><text class="f_000000_ffffff" font-family="sans-serif" font-size="13" lengthAdjust="spacing" textLength="76" x="461.5" y="1154.2075">Like activity</text><line class="s_181818_e7e7e7" style="stroke-width:1.0;" x1="444.5" x2="486.5" y1="1203.5391" y2="1203.5391"/><line class="s_181818_e7e7e7" style="stroke-width:1.0;" x1="486.5" x2="486.5" y1="1203.5391" y2="1216.5391"/><line class="s_181818_e7e7e7" style="stroke-width:1.0;" x1="445.5" x2="486.5" y1="1216.5391" y2="1216.5391"/><polygon class="f_181818_e7e7e7 s_181818_e7e7e7" points="455.5,1212.5391,445.5,1216.5391,455.5,1220.5391,451.5,1216.5391" style="stroke-width:1.0;"/><text class="f_000000_ffffff" font-family="sans-serif" font-size="13" lengthAdjust="spacing" textLength="144" x="451.5" y="1183.3403">Authenticate Domain3</text><text class="f_000000_ffffff" font-family="sans-serif" font-size="13" lengthAdjust="spacing" textLength="135" x="451.5" y="1198.4731">using HTTP signature</text><polygon class="f_181818_e7e7e7 s_181818_e7e7e7" points="778.5,1241.6719,788.5,1245.6719,778.5,1249.6719,782.5,1245.6719" style="stroke-width:1.0;"/><line class="s_181818_e7e7e7" style="stroke-width:1.0;stroke-dasharray:2.0,2.0;" x1="444.5" x2="784.5" y1="1245.6719" y2="1245.6719"/><text class="f_000000_ffffff" font-family="sans-serif" font-size="13" lengthAdjust="spacing" textLength="18" x="451.5" y="1240.606">OK</text><polygon class="f_181818_e7e7e7 s_181818_e7e7e7" points="595.5,1285.9375,605.5,1289.9375,595.5,1293.9375,599.5,1289.9375" style="stroke-width:1.0;"/><line class="s_181818_e7e7e7" style="stroke-width:1.0;" x1="439.5" x2="601.5" y1="1289.9375" y2="1289.9375"/><text class="f_000000_ffffff" font-family="sans-serif" font-size="13" lengthAdjust="spacing" textLength="104" x="446.5" y="1269.7388">Add Domain3 to</text><text class="f_000000_ffffff" font-family="sans-serif" font-size="13" lengthAdjust="spacing" textLength="98" x="446.5" y="1284.8716">anchor links DB</text><polygon class="f_181818_e7e7e7 s_181818_e7e7e7" points="73,1315.0703,63,1319.0703,73,1323.0703,69,1319.0703" style="stroke-width:1.0;"/><line class="s_181818_e7e7e7" style="stroke-width:1.0;" x1="67" x2="789.5" y1="1319.0703" y2="1319.0703"/><text class="f_000000_ffffff" font-family="sans-serif" font-size="13" lengthAdjust="spacing" textLength="76" x="79" y="1314.0044">Like activity</text><line class="s_181818_e7e7e7" style="stroke-width:1.0;" x1="62" x2="104" y1="1363.3359" y2="1363.3359"/><line class="s_181818_e7e7e7" style="stroke-width:1.0;" x1="104" x2="104" y1="1363.3359" y2="1376.3359"/><line class="s_181818_e7e7e7" style="stroke-width:1.0;" x1="63" x2="104" y1="1376.3359" y2="1376.3359"/><polygon class="f_181818_e7e7e7 s_181818_e7e7e7" points="73,1372.3359,63,1376.3359,73,1380.3359,69,1376.3359" style="stroke-width:1.0;"/><text class="f_000000_ffffff" font-family="sans-serif" font-size="13" lengthAdjust="spacing" textLength="144" x="69" y="1343.1372">Authenticate Domain3</text><text class="f_000000_ffffff" font-family="sans-serif" font-size="13" lengthAdjust="spacing" textLength="135" x="69" y="1358.27">using HTTP signature</text><polygon class="f_181818_e7e7e7 s_181818_e7e7e7" points="783.5,1401.4688,793.5,1405.4688,783.5,1409.4688,787.5,1405.4688" style="stroke-width:1.0;"/><line class="s_181818_e7e7e7" style="stroke-width:1.0;stroke-dasharray:2.0,2.0;" x1="62" x2="789.5" y1="1405.4688" y2="1405.4688"/><text class="f_000000_ffffff" font-family="sans-serif" font-size="13" lengthAdjust="spacing" textLength="18" x="69" y="1400.4028">OK</text><polygon class="f_181818_e7e7e7 s_181818_e7e7e7" points="333.5,1445.7344,343.5,1449.7344,333.5,1453.7344,337.5,1449.7344" style="stroke-width:1.0;"/><line class="s_181818_e7e7e7" style="stroke-width:1.0;" x1="57" x2="339.5" y1="1449.7344" y2="1449.7344"/><text class="f_000000_ffffff" font-family="sans-serif" font-size="13" lengthAdjust="spacing" textLength="87" x="64" y="1429.5356">Add Domain3</text><text class="f_000000_ffffff" font-family="sans-serif" font-size="13" lengthAdjust="spacing" textLength="115" x="64" y="1444.6685">to anchor links DB</text><!--MD5=[8981eb41e88331ecd902ec537d09ea46]
@startuml
'https://plantuml.com/sequence-diagram

box Domain1 #White
participant Domain1
queue anchor_event
database Domain1DB
end box

box Domain2
participant Domain2
database Domain2DB
queue anchor_2
end box

box Domain3 #White
participant Domain3
database Domain3_db
queue anchor_3
end box

activate anchor_event
anchor_event -> Domain1: AnchorEvent message

activate Domain1
Domain1 -> Domain1: Batch Writer\nprocesses\nAnchorEvent
Domain1 -> Domain2: Create activity
note over Domain1
Post Create
to servers in
followers list.
end note

activate Domain2
Domain2 -> Domain2: Authenticate Domain1\nusing HTTP signature
Domain2 - -> Domain1: OK

Domain1 - -> anchor_event:ACK

deactivate anchor_event

deactivate Domain1

Domain2 -> anchor_2: AnchorEvent

activate anchor_2

anchor_2 - -> Domain2: ACK

note left
The AnchorEvent in
the Create activity
is posted to the
anchor queue to be
processed by the
Observer.
end note

Domain2 -> Domain3: Announce activity

activate Domain3

Domain3 -> Domain3: Authenticate Domain2\nusing HTTP signature
Domain3 - -> Domain2: OK

deactivate Domain2

Domain3 -> anchor_3: AnchorEvent

activate anchor_3
anchor_3 - -> Domain3: ACK

deactivate Domain3

note left
The AnchorEvent in
the Announce activity
is posted to the anchor
queue to be processed by
the Observer.
end note

anchor_2 -> Domain2: AnchorEvent

note left
The AnchorEvent is
processed by the
Observer.
end note

activate Domain2

Domain2 - -> anchor_2: ACK

deactivate anchor_2

Domain2 -> Domain1: Like activity

activate Domain1
Domain1 -> Domain1: Authenticate Domain2\nusing HTTP signature
Domain1 - -> Domain2: OK

deactivate Domain2

Domain1 -> Domain1DB: Add Domain2 to\nanchor links DB
deactivate Domain1

anchor_3 -> Domain3: AnchorEvent

activate Domain3

note left
The AnchorEvent is
processed by the
Observer.
end note

Domain3 - -> anchor_3: ACK

deactivate anchor_3

Domain3 -> Domain2: Like activity

activate Domain2

Domain2 -> Domain2: Authenticate Domain3\nusing HTTP signature
Domain2 - -> Domain3: OK

Domain2 -> Domain2DB: Add Domain3 to\nanchor links DB

deactivate Domain2

Domain3 -> Domain1: Like activity

activate Domain1
Domain1 -> Domain1: Authenticate Domain3\nusing HTTP signature
Domain1 - -> Domain3: OK

deactivate Domain3

Domain1 -> Domain1DB: Add Domain3\nto anchor links DB
deactivate Domain1
@enduml

@startuml

box Domain1 #White
participant Domain1
queue anchor_event
database Domain1DB
end box

box Domain2
participant Domain2
database Domain2DB
queue anchor_2
end box

box Domain3 #White
participant Domain3
database Domain3_db
queue anchor_3
end box

activate anchor_event
anchor_event -> Domain1: AnchorEvent message

activate Domain1
Domain1 -> Domain1: Batch Writer\nprocesses\nAnchorEvent
Domain1 -> Domain2: Create activity
note over Domain1
Post Create
to servers in
followers list.
end note

activate Domain2
Domain2 -> Domain2: Authenticate Domain1\nusing HTTP signature
Domain2 - -> Domain1: OK

Domain1 - -> anchor_event:ACK

deactivate anchor_event

deactivate Domain1

Domain2 -> anchor_2: AnchorEvent

activate anchor_2

anchor_2 - -> Domain2: ACK

note left
The AnchorEvent in
the Create activity
is posted to the
anchor queue to be
processed by the
Observer.
end note

Domain2 -> Domain3: Announce activity

activate Domain3

Domain3 -> Domain3: Authenticate Domain2\nusing HTTP signature
Domain3 - -> Domain2: OK

deactivate Domain2

Domain3 -> anchor_3: AnchorEvent

activate anchor_3
anchor_3 - -> Domain3: ACK

deactivate Domain3

note left
The AnchorEvent in
the Announce activity
is posted to the anchor
queue to be processed by
the Observer.
end note

anchor_2 -> Domain2: AnchorEvent

note left
The AnchorEvent is
processed by the
Observer.
end note

activate Domain2

Domain2 - -> anchor_2: ACK

deactivate anchor_2

Domain2 -> Domain1: Like activity

activate Domain1
Domain1 -> Domain1: Authenticate Domain2\nusing HTTP signature
Domain1 - -> Domain2: OK

deactivate Domain2

Domain1 -> Domain1DB: Add Domain2 to\nanchor links DB
deactivate Domain1

anchor_3 -> Domain3: AnchorEvent

activate Domain3

note left
The AnchorEvent is
processed by the
Observer.
end note

Domain3 - -> anchor_3: ACK

deactivate anchor_3

Domain3 -> Domain2: Like activity

activate Domain2

Domain2 -> Domain2: Authenticate Domain3\nusing HTTP signature
Domain2 - -> Domain3: OK

Domain2 -> Domain2DB: Add Domain3 to\nanchor links DB

deactivate Domain2

Domain3 -> Domain1: Like activity

activate Domain1
Domain1 -> Domain1: Authenticate Domain3\nusing HTTP signature
Domain1 - -> Domain3: OK

deactivate Domain3

Domain1 -> Domain1DB: Add Domain3\nto anchor links DB
deactivate Domain1
@enduml

PlantUML version 1.2022.2beta5(Unknown compile time)
(GPL source distribution)
Java Runtime: Java(TM) SE Runtime Environment
JVM: Java HotSpot(TM) 64-Bit Server VM
Default Encoding: UTF-8
Language: en
Country: US
--></g></svg>