<?xml version="1.0" encoding="UTF-8" standalone="no"?><svg xmlns="http://www.w3.org/2000/svg" xmlns:xlink="http://www.w3.org/1999/xlink" contentStyleType="text/css" height="636px" preserveAspectRatio="none" style="width:721px;height:636px;" version="1.1" viewBox="0 0 721 636" width="721px" zoomAndPan="magnify"><defs><style type="text/css"><![CDATA[*.f_ffffff_000000 {fill:#ffffff;}*.s_181818_e7e7e7 {stroke:#181818;}*.f_000000_ffffff {fill:#000000;}*.f_181818_e7e7e7 {fill:#181818;}*.f_feffdd_333333 {fill:#feffdd;}@media (prefers-color-scheme:dark) {*.f_ffffff_000000 {fill:#000000;}*.s_181818_e7e7e7 {stroke:#e7e7e7;}*.f_000000_ffffff {fill:#ffffff;}*.f_181818_e7e7e7 {fill:#e7e7e7;}*.f_feffdd_333333 {fill:#333333;}}]]></style></defs><g><rect class="f_ffffff_000000 s_181818_e7e7e7" height="201.9297" style="stroke-width:1.0;" width="10" x="165" y="112.4297"/><rect class="f_ffffff_000000 s_181818_e7e7e7" height="121.5313" style="stroke-width:1.0;" width="10" x="165" y="408.8906"/><rect class="f_ffffff_000000 s_181818_e7e7e7" height="267.3281" style="stroke-width:1.0;" width="10" x="374" y="227.9609"/><line class="s_181818_e7e7e7" style="stroke-width:0.5;stroke-dasharray:5.0,5.0;" x1="63" x2="63" y1="81.2969" y2="555.4219"/><line class="s_181818_e7e7e7" style="stroke-width:0.5;stroke-dasharray:5.0,5.0;" x1="170" x2="170" y1="81.2969" y2="555.4219"/><line class="s_181818_e7e7e7" style="stroke-width:0.5;stroke-dasharray:5.0,5.0;" x1="378.5" x2="378.5" y1="81.2969" y2="555.4219"/><text class="f_000000_ffffff" font-family="sans-serif" font-size="14" lengthAdjust="spacing" textLength="110" x="5" y="77.9951">Domain1Admin</text><ellipse class="s_181818_e7e7e7" cx="63" cy="13.5" fill="#E2E2F0" rx="8" ry="8" style="stroke-width:0.5;"/><path class="s_181818_e7e7e7" d="M63,21.5 L63,48.5 M50,29.5 L76,29.5 M63,48.5 L50,63.5 M63,48.5 L76,63.5 " fill="none" style="stroke-width:0.5;"/><text class="f_000000_ffffff" font-family="sans-serif" font-size="14" lengthAdjust="spacing" textLength="110" x="5" y="567.417">Domain1Admin</text><ellipse class="s_181818_e7e7e7" cx="63" cy="579.2188" fill="#E2E2F0" rx="8" ry="8" style="stroke-width:0.5;"/><path class="s_181818_e7e7e7" d="M63,587.2188 L63,614.2188 M50,595.2188 L76,595.2188 M63,614.2188 L50,629.2188 M63,614.2188 L76,629.2188 " fill="none" style="stroke-width:0.5;"/><rect class="s_181818_e7e7e7" fill="#E2E2F0" height="30.2969" rx="2.5" ry="2.5" style="stroke-width:0.5;" width="78" x="131" y="50"/><text class="f_000000_ffffff" font-family="sans-serif" font-size="14" lengthAdjust="spacing" textLength="64" x="138" y="69.9951">Domain1</text><rect class="s_181818_e7e7e7" fill="#E2E2F0" height="30.2969" rx="2.5" ry="2.5" style="stroke-width:0.5;" width="78" x="131" y="554.4219"/><text class="f_000000_ffffff" font-family="sans-serif" font-size="14" lengthAdjust="spacing" textLength="64" x="138" y="574.417">Domain1</text><rect class="s_181818_e7e7e7" fill="#E2E2F0" height="30.2969" rx="2.5" ry="2.5" style="stroke-width:0.5;" width="77" x="340.5" y="50"/><text class="f_000000_ffffff" font-family="sans-serif" font-size="14" lengthAdjust="spacing" textLength="63" x="347.5" y="69.9951">Domain2</text><rect class="s_181818_e7e7e7" fill="#E2E2F0" height="30.2969" rx="2.5" ry="2.5" style="stroke-width:0.5;" width="77" x="340.5" y="554.4219"/><text class="f_000000_ffffff" font-family="sans-serif" font-size="14" lengthAdjust="spacing" textLength="63" x="347.5" y="574.417">Domain2</text><rect class="f_ffffff_000000 s_181818_e7e7e7" height="201.9297" style="stroke-width:1.0;" width="10" x="165" y="112.4297"/><rect class="f_ffffff_000000 s_181818_e7e7e7" height="121.5313" style="stroke-width:1.0;" width="10" x="165" y="408.8906"/><rect class="f_ffffff_000000 s_181818_e7e7e7" height="267.3281" style="stroke-width:1.0;" width="10" x="374" y="227.9609"/><polygon class="f_181818_e7e7e7 s_181818_e7e7e7" points="153,108.4297,163,112.4297,153,116.4297,157,112.4297" style="stroke-width:1.0;"/><line class="s_181818_e7e7e7" style="stroke-width:1.0;" x1="63" x2="159" y1="112.4297" y2="112.4297"/><text class="f_000000_ffffff" font-family="sans-serif" font-size="13" lengthAdjust="spacing" textLength="72" x="70" y="107.3638">Post Follow</text><line class="s_181818_e7e7e7" style="stroke-width:1.0;" x1="175" x2="217" y1="156.6953" y2="156.6953"/><line class="s_181818_e7e7e7" style="stroke-width:1.0;" x1="217" x2="217" y1="156.6953" y2="169.6953"/><line class="s_181818_e7e7e7" style="stroke-width:1.0;" x1="176" x2="217" y1="169.6953" y2="169.6953"/><polygon class="f_181818_e7e7e7 s_181818_e7e7e7" points="186,165.6953,176,169.6953,186,173.6953,182,169.6953" style="stroke-width:1.0;"/><text class="f_000000_ffffff" font-family="sans-serif" font-size="13" lengthAdjust="spacing" textLength="185" x="182" y="136.4966">Authenticate Domain1Admin</text><text class="f_000000_ffffff" font-family="sans-serif" font-size="13" lengthAdjust="spacing" textLength="120" x="182" y="151.6294">using bearer token</text><polygon class="f_181818_e7e7e7 s_181818_e7e7e7" points="74,194.8281,64,198.8281,74,202.8281,70,198.8281" style="stroke-width:1.0;"/><line class="s_181818_e7e7e7" style="stroke-width:1.0;stroke-dasharray:2.0,2.0;" x1="68" x2="164" y1="198.8281" y2="198.8281"/><text class="f_000000_ffffff" font-family="sans-serif" font-size="13" lengthAdjust="spacing" textLength="18" x="80" y="193.7622">OK</text><polygon class="f_181818_e7e7e7 s_181818_e7e7e7" points="362,223.9609,372,227.9609,362,231.9609,366,227.9609" style="stroke-width:1.0;"/><line class="s_181818_e7e7e7" style="stroke-width:1.0;" x1="175" x2="368" y1="227.9609" y2="227.9609"/><text class="f_000000_ffffff" font-family="sans-serif" font-size="13" lengthAdjust="spacing" textLength="91" x="182" y="222.895">Follow activity</text><line class="s_181818_e7e7e7" style="stroke-width:1.0;" x1="384" x2="426" y1="272.2266" y2="272.2266"/><line class="s_181818_e7e7e7" style="stroke-width:1.0;" x1="426" x2="426" y1="272.2266" y2="285.2266"/><line class="s_181818_e7e7e7" style="stroke-width:1.0;" x1="385" x2="426" y1="285.2266" y2="285.2266"/><polygon class="f_181818_e7e7e7 s_181818_e7e7e7" points="395,281.2266,385,285.2266,395,289.2266,391,285.2266" style="stroke-width:1.0;"/><text class="f_000000_ffffff" font-family="sans-serif" font-size="13" lengthAdjust="spacing" textLength="144" x="391" y="252.0278">Authenticate Domain1</text><text class="f_000000_ffffff" font-family="sans-serif" font-size="13" lengthAdjust="spacing" textLength="135" x="391" y="267.1606">using HTTP signature</text><polygon class="f_181818_e7e7e7 s_181818_e7e7e7" points="181,310.3594,171,314.3594,181,318.3594,177,314.3594" style="stroke-width:1.0;"/><line class="s_181818_e7e7e7" style="stroke-width:1.0;stroke-dasharray:2.0,2.0;" x1="175" x2="373" y1="314.3594" y2="314.3594"/><text class="f_000000_ffffff" font-family="sans-serif" font-size="13" lengthAdjust="spacing" textLength="18" x="187" y="309.2935">OK</text><line class="s_181818_e7e7e7" style="stroke-width:1.0;" x1="384" x2="426" y1="355.125" y2="355.125"/><line class="s_181818_e7e7e7" style="stroke-width:1.0;" x1="426" x2="426" y1="355.125" y2="368.125"/><line class="s_181818_e7e7e7" style="stroke-width:1.0;" x1="385" x2="426" y1="368.125" y2="368.125"/><polygon class="f_181818_e7e7e7 s_181818_e7e7e7" points="395,364.125,385,368.125,395,372.125,391,368.125" style="stroke-width:1.0;"/><text class="f_000000_ffffff" font-family="sans-serif" font-size="13" lengthAdjust="spacing" textLength="123" x="391" y="350.0591">Authorize Domain1</text><path class="f_feffdd_333333 s_181818_e7e7e7" d="M526,327.3594 L526,382.3594 L714,382.3594 L714,337.3594 L704,327.3594 L526,327.3594 " style="stroke-width:0.5;"/><path class="f_feffdd_333333 s_181818_e7e7e7" d="M704,327.3594 L704,337.3594 L714,337.3594 L704,327.3594 " style="stroke-width:0.5;"/><text class="f_000000_ffffff" font-family="sans-serif" font-size="13" lengthAdjust="spacing" textLength="115" x="532" y="344.4263">Authorization fails</text><text class="f_000000_ffffff" font-family="sans-serif" font-size="13" lengthAdjust="spacing" textLength="167" x="532" y="359.5591">using Follow Authorization</text><text class="f_000000_ffffff" font-family="sans-serif" font-size="13" lengthAdjust="spacing" textLength="41" x="532" y="374.6919">Policy.</text><polygon class="f_181818_e7e7e7 s_181818_e7e7e7" points="186,404.8906,176,408.8906,186,412.8906,182,408.8906" style="stroke-width:1.0;"/><line class="s_181818_e7e7e7" style="stroke-width:1.0;" x1="180" x2="373" y1="408.8906" y2="408.8906"/><text class="f_000000_ffffff" font-family="sans-serif" font-size="13" lengthAdjust="spacing" textLength="91" x="192" y="403.8247">Reject activity</text><line class="s_181818_e7e7e7" style="stroke-width:1.0;" x1="175" x2="217" y1="453.1563" y2="453.1563"/><line class="s_181818_e7e7e7" style="stroke-width:1.0;" x1="217" x2="217" y1="453.1563" y2="466.1563"/><line class="s_181818_e7e7e7" style="stroke-width:1.0;" x1="176" x2="217" y1="466.1563" y2="466.1563"/><polygon class="f_181818_e7e7e7 s_181818_e7e7e7" points="186,462.1563,176,466.1563,186,470.1563,182,466.1563" style="stroke-width:1.0;"/><text class="f_000000_ffffff" font-family="sans-serif" font-size="13" lengthAdjust="spacing" textLength="144" x="182" y="432.9575">Authenticate Domain2</text><text class="f_000000_ffffff" font-family="sans-serif" font-size="13" lengthAdjust="spacing" textLength="135" x="182" y="448.0903">using HTTP signature</text><polygon class="f_181818_e7e7e7 s_181818_e7e7e7" points="367,491.2891,377,495.2891,367,499.2891,371,495.2891" style="stroke-width:1.0;"/><line class="s_181818_e7e7e7" style="stroke-width:1.0;stroke-dasharray:2.0,2.0;" x1="175" x2="373" y1="495.2891" y2="495.2891"/><text class="f_000000_ffffff" font-family="sans-serif" font-size="13" lengthAdjust="spacing" textLength="18" x="182" y="490.2231">OK</text><line class="s_181818_e7e7e7" style="stroke-width:1.0;" x1="175" x2="217" y1="529.4219" y2="529.4219"/><line class="s_181818_e7e7e7" style="stroke-width:1.0;" x1="217" x2="217" y1="529.4219" y2="542.4219"/><line class="s_181818_e7e7e7" style="stroke-width:1.0;" x1="170" x2="217" y1="542.4219" y2="542.4219"/><polygon class="f_181818_e7e7e7 s_181818_e7e7e7" points="180,538.4219,170,542.4219,180,546.4219,176,542.4219" style="stroke-width:1.0;"/><text class="f_000000_ffffff" font-family="sans-serif" font-size="13" lengthAdjust="spacing" textLength="148" x="182" y="524.356">Log warning for Reject.</text><!--MD5=[96697a2c954bb01bb5971b3bc38a27ce]
@startuml
'https://plantuml.com/sequence-diagram

'autonumber

actor Domain1Admin
participant Domain1
participant Domain2

Domain1Admin -> Domain1: Post Follow

activate Domain1

Domain1 -> Domain1: Authenticate Domain1Admin\nusing bearer token

Domain1 - -> Domain1Admin: OK

Domain1 -> Domain2: Follow activity

activate Domain2

Domain2 -> Domain2: Authenticate Domain1\nusing HTTP signature
Domain2 - -> Domain1: OK

deactivate Domain1

Domain2 -> Domain2: Authorize Domain1

note right
Authorization fails
using Follow Authorization
Policy.
end note

Domain2 -> Domain1: Reject activity

activate Domain1

Domain1 -> Domain1: Authenticate Domain2\nusing HTTP signature
Domain1 - -> Domain2: OK

deactivate Domain2

Domain1 -> Domain1: Log warning for Reject.

deactivate Domain1
@enduml

@startuml


actor Domain1Admin
participant Domain1
participant Domain2

Domain1Admin -> Domain1: Post Follow

activate Domain1

Domain1 -> Domain1: Authenticate Domain1Admin\nusing bearer token

Domain1 - -> Domain1Admin: OK

Domain1 -> Domain2: Follow activity

activate Domain2

Domain2 -> Domain2: Authenticate Domain1\nusing HTTP signature
Domain2 - -> Domain1: OK

deactivate Domain1

Domain2 -> Domain2: Authorize Domain1

note right
Authorization fails
using Follow Authorization
Policy.
end note

Domain2 -> Domain1: Reject activity

activate Domain1

Domain1 -> Domain1: Authenticate Domain2\nusing HTTP signature
Domain1 - -> Domain2: OK

deactivate Domain2

Domain1 -> Domain1: Log warning for Reject.

deactivate Domain1
@enduml

PlantUML version 1.2022.2beta5(Unknown compile time)
(GPL source distribution)
Java Runtime: Java(TM) SE Runtime Environment
JVM: Java HotSpot(TM) 64-Bit Server VM
Default Encoding: UTF-8
Language: en
Country: US
--></g></svg>