<?xml version="1.0" encoding="UTF-8" standalone="no"?><svg xmlns="http://www.w3.org/2000/svg" xmlns:xlink="http://www.w3.org/1999/xlink" contentScriptType="application/ecmascript" contentStyleType="text/css" height="650px" preserveAspectRatio="none" style="width:725px;height:650px;background:#FFFFFF;" version="1.1" viewBox="0 0 725 650" width="725px" zoomAndPan="magnify"><defs><filter height="300%" id="f1pdoivpmcayxa" width="300%" x="-1" y="-1"><feGaussianBlur result="blurOut" stdDeviation="2.0"/><feColorMatrix in="blurOut" result="blurOut2" type="matrix" values="0 0 0 0 0 0 0 0 0 0 0 0 0 0 0 0 0 0 .4 0"/><feOffset dx="4.0" dy="4.0" in="blurOut2" result="blurOut3"/><feBlend in="SourceGraphic" in2="blurOut3" mode="normal"/></filter></defs><g><rect fill="#FFFFFF" filter="url(#f1pdoivpmcayxa)" height="201.9297" style="stroke:#A80036;stroke-width:1.0;" width="10" x="167" y="119.4297"/><rect fill="#FFFFFF" filter="url(#f1pdoivpmcayxa)" height="121.5313" style="stroke:#A80036;stroke-width:1.0;" width="10" x="167" y="419.8906"/><rect fill="#FFFFFF" filter="url(#f1pdoivpmcayxa)" height="271.3281" style="stroke:#A80036;stroke-width:1.0;" width="10" x="376" y="234.9609"/><line style="stroke:#A80036;stroke-width:1.0;stroke-dasharray:5.0,5.0;" x1="63" x2="63" y1="88.2969" y2="566.4219"/><line style="stroke:#A80036;stroke-width:1.0;stroke-dasharray:5.0,5.0;" x1="172" x2="172" y1="88.2969" y2="566.4219"/><line style="stroke:#A80036;stroke-width:1.0;stroke-dasharray:5.0,5.0;" x1="380.5" x2="380.5" y1="88.2969" y2="566.4219"/><text fill="#000000" font-family="sans-serif" font-size="14" lengthAdjust="spacing" textLength="110" x="5" y="84.9951">Domain1Admin</text><ellipse cx="63" cy="15" fill="#FEFECE" filter="url(#f1pdoivpmcayxa)" rx="8" ry="8" style="stroke:#A80036;stroke-width:2.0;"/><path d="M63,23 L63,50 M50,31 L76,31 M63,50 L50,65 M63,50 L76,65 " fill="none" filter="url(#f1pdoivpmcayxa)" style="stroke:#A80036;stroke-width:2.0;"/><text fill="#000000" font-family="sans-serif" font-size="14" lengthAdjust="spacing" textLength="110" x="5" y="578.417">Domain1Admin</text><ellipse cx="63" cy="591.7188" fill="#FEFECE" filter="url(#f1pdoivpmcayxa)" rx="8" ry="8" style="stroke:#A80036;stroke-width:2.0;"/><path d="M63,599.7188 L63,626.7188 M50,607.7188 L76,607.7188 M63,626.7188 L50,641.7188 M63,626.7188 L76,641.7188 " fill="none" filter="url(#f1pdoivpmcayxa)" style="stroke:#A80036;stroke-width:2.0;"/><rect fill="#FEFECE" filter="url(#f1pdoivpmcayxa)" height="30.2969" style="stroke:#A80036;stroke-width:1.5;" width="78" x="131" y="53"/><text fill="#000000" font-family="sans-serif" font-size="14" lengthAdjust="spacing" textLength="64" x="138" y="72.9951">Domain1</text><rect fill="#FEFECE" filter="url(#f1pdoivpmcayxa)" height="30.2969" style="stroke:#A80036;stroke-width:1.5;" width="78" x="131" y="565.4219"/><text fill="#000000" font-family="sans-serif" font-size="14" lengthAdjust="spacing" textLength="64" x="138" y="585.417">Domain1</text><rect fill="#FEFECE" filter="url(#f1pdoivpmcayxa)" height="30.2969" style="stroke:#A80036;stroke-width:1.5;" width="77" x="340.5" y="53"/><text fill="#000000" font-family="sans-serif" font-size="14" lengthAdjust="spacing" textLength="63" x="347.5" y="72.9951">Domain2</text><rect fill="#FEFECE" filter="url(#f1pdoivpmcayxa)" height="30.2969" style="stroke:#A80036;stroke-width:1.5;" width="77" x="340.5" y="565.4219"/><text fill="#000000" font-family="sans-serif" font-size="14" lengthAdjust="spacing" textLength="63" x="347.5" y="585.417">Domain2</text><rect fill="#FFFFFF" filter="url(#f1pdoivpmcayxa)" height="201.9297" style="stroke:#A80036;stroke-width:1.0;" width="10" x="167" y="119.4297"/><rect fill="#FFFFFF" filter="url(#f1pdoivpmcayxa)" height="121.5313" style="stroke:#A80036;stroke-width:1.0;" width="10" x="167" y="419.8906"/><rect fill="#FFFFFF" filter="url(#f1pdoivpmcayxa)" height="271.3281" style="stroke:#A80036;stroke-width:1.0;" width="10" x="376" y="234.9609"/><polygon fill="#A80036" points="155,115.4297,165,119.4297,155,123.4297,159,119.4297" style="stroke:#A80036;stroke-width:1.0;"/><line style="stroke:#A80036;stroke-width:1.0;" x1="63" x2="161" y1="119.4297" y2="119.4297"/><text fill="#000000" font-family="sans-serif" font-size="13" lengthAdjust="spacing" textLength="72" x="70" y="114.3638">Post Follow</text><line style="stroke:#A80036;stroke-width:1.0;" x1="177" x2="219" y1="163.6953" y2="163.6953"/><line style="stroke:#A80036;stroke-width:1.0;" x1="219" x2="219" y1="163.6953" y2="176.6953"/><line style="stroke:#A80036;stroke-width:1.0;" x1="178" x2="219" y1="176.6953" y2="176.6953"/><polygon fill="#A80036" points="188,172.6953,178,176.6953,188,180.6953,184,176.6953" style="stroke:#A80036;stroke-width:1.0;"/><text fill="#000000" font-family="sans-serif" font-size="13" lengthAdjust="spacing" textLength="185" x="184" y="143.4966">Authenticate Domain1Admin</text><text fill="#000000" font-family="sans-serif" font-size="13" lengthAdjust="spacing" textLength="120" x="184" y="158.6294">using bearer token</text><polygon fill="#A80036" points="74,201.8281,64,205.8281,74,209.8281,70,205.8281" style="stroke:#A80036;stroke-width:1.0;"/><line style="stroke:#A80036;stroke-width:1.0;stroke-dasharray:2.0,2.0;" x1="68" x2="166" y1="205.8281" y2="205.8281"/><text fill="#000000" font-family="sans-serif" font-size="13" lengthAdjust="spacing" textLength="18" x="80" y="200.7622">OK</text><polygon fill="#A80036" points="364,230.9609,374,234.9609,364,238.9609,368,234.9609" style="stroke:#A80036;stroke-width:1.0;"/><line style="stroke:#A80036;stroke-width:1.0;" x1="177" x2="370" y1="234.9609" y2="234.9609"/><text fill="#000000" font-family="sans-serif" font-size="13" lengthAdjust="spacing" textLength="91" x="184" y="229.895">Follow activity</text><line style="stroke:#A80036;stroke-width:1.0;" x1="386" x2="428" y1="279.2266" y2="279.2266"/><line style="stroke:#A80036;stroke-width:1.0;" x1="428" x2="428" y1="279.2266" y2="292.2266"/><line style="stroke:#A80036;stroke-width:1.0;" x1="387" x2="428" y1="292.2266" y2="292.2266"/><polygon fill="#A80036" points="397,288.2266,387,292.2266,397,296.2266,393,292.2266" style="stroke:#A80036;stroke-width:1.0;"/><text fill="#000000" font-family="sans-serif" font-size="13" lengthAdjust="spacing" textLength="144" x="393" y="259.0278">Authenticate Domain1</text><text fill="#000000" font-family="sans-serif" font-size="13" lengthAdjust="spacing" textLength="135" x="393" y="274.1606">using HTTP signature</text><polygon fill="#A80036" points="183,317.3594,173,321.3594,183,325.3594,179,321.3594" style="stroke:#A80036;stroke-width:1.0;"/><line style="stroke:#A80036;stroke-width:1.0;stroke-dasharray:2.0,2.0;" x1="177" x2="375" y1="321.3594" y2="321.3594"/><text fill="#000000" font-family="sans-serif" font-size="13" lengthAdjust="spacing" textLength="18" x="189" y="316.2935">OK</text><line style="stroke:#A80036;stroke-width:1.0;" x1="386" x2="428" y1="364.125" y2="364.125"/><line style="stroke:#A80036;stroke-width:1.0;" x1="428" x2="428" y1="364.125" y2="377.125"/><line style="stroke:#A80036;stroke-width:1.0;" x1="387" x2="428" y1="377.125" y2="377.125"/><polygon fill="#A80036" points="397,373.125,387,377.125,397,381.125,393,377.125" style="stroke:#A80036;stroke-width:1.0;"/><text fill="#000000" font-family="sans-serif" font-size="13" lengthAdjust="spacing" textLength="123" x="393" y="359.0591">Authorize Domain1</text><path d="M528,334.3594 L528,389.3594 L716,389.3594 L716,344.3594 L706,334.3594 L528,334.3594 " fill="#FBFB77" filter="url(#f1pdoivpmcayxa)" style="stroke:#A80036;stroke-width:1.0;"/><path d="M706,334.3594 L706,344.3594 L716,344.3594 L706,334.3594 " fill="#FBFB77" style="stroke:#A80036;stroke-width:1.0;"/><text fill="#000000" font-family="sans-serif" font-size="13" lengthAdjust="spacing" textLength="115" x="534" y="351.4263">Authorization fails</text><text fill="#000000" font-family="sans-serif" font-size="13" lengthAdjust="spacing" textLength="167" x="534" y="366.5591">using Follow Authorization</text><text fill="#000000" font-family="sans-serif" font-size="13" lengthAdjust="spacing" textLength="41" x="534" y="381.6919">Policy.</text><polygon fill="#A80036" points="188,415.8906,178,419.8906,188,423.8906,184,419.8906" style="stroke:#A80036;stroke-width:1.0;"/><line style="stroke:#A80036;stroke-width:1.0;" x1="182" x2="375" y1="419.8906" y2="419.8906"/><text fill="#000000" font-family="sans-serif" font-size="13" lengthAdjust="spacing" textLength="91" x="194" y="414.8247">Reject activity</text><line style="stroke:#A80036;stroke-width:1.0;" x1="177" x2="219" y1="464.1563" y2="464.1563"/><line style="stroke:#A80036;stroke-width:1.0;" x1="219" x2="219" y1="464.1563" y2="477.1563"/><line style="stroke:#A80036;stroke-width:1.0;" x1="178" x2="219" y1="477.1563" y2="477.1563"/><polygon fill="#A80036" points="188,473.1563,178,477.1563,188,481.1563,184,477.1563" style="stroke:#A80036;stroke-width:1.0;"/><text fill="#000000" font-family="sans-serif" font-size="13" lengthAdjust="spacing" textLength="144" x="184" y="443.9575">Authenticate Domain2</text><text fill="#000000" font-family="sans-serif" font-size="13" lengthAdjust="spacing" textLength="135" x="184" y="459.0903">using HTTP signature</text><polygon fill="#A80036" points="369,502.2891,379,506.2891,369,510.2891,373,506.2891" style="stroke:#A80036;stroke-width:1.0;"/><line style="stroke:#A80036;stroke-width:1.0;stroke-dasharray:2.0,2.0;" x1="177" x2="375" y1="506.2891" y2="506.2891"/><text fill="#000000" font-family="sans-serif" font-size="13" lengthAdjust="spacing" textLength="18" x="184" y="501.2231">OK</text><line style="stroke:#A80036;stroke-width:1.0;" x1="177" x2="219" y1="540.4219" y2="540.4219"/><line style="stroke:#A80036;stroke-width:1.0;" x1="219" x2="219" y1="540.4219" y2="553.4219"/><line style="stroke:#A80036;stroke-width:1.0;" x1="172" x2="219" y1="553.4219" y2="553.4219"/><polygon fill="#A80036" points="182,549.4219,172,553.4219,182,557.4219,178,553.4219" style="stroke:#A80036;stroke-width:1.0;"/><text fill="#000000" font-family="sans-serif" font-size="13" lengthAdjust="spacing" textLength="148" x="184" y="535.356">Log warning for Reject.</text><!--MD5=[82e1a648f4a2502cab0f32348db2337d]
@startuml
'https://plantuml.com/sequence-diagram

'autonumber

actor Domain1Admin
participant Domain1
participant Domain2

Domain1Admin -> Domain1: Post Follow

activate Domain1

Domain1 -> Domain1: Authenticate Domain1Admin\nusing bearer token

Domain1 - -> Domain1Admin: OK

Domain1 -> Domain2: Follow activity

activate Domain2

Domain2 -> Domain2: Authenticate Domain1\nusing HTTP signature
Domain2 - -> Domain1: OK

deactivate Domain1

Domain2 -> Domain2: Authorize Domain1

note right
Authorization fails
using Follow Authorization
Policy.
end note

Domain2 -> Domain1: Reject activity

activate Domain1

Domain1 -> Domain1: Authenticate Domain2\nusing HTTP signature
Domain1 - -> Domain2: OK

deactivate Domain2

Domain1 -> Domain1: Log warning for Reject.

deactivate Domain1
@enduml

@startuml


actor Domain1Admin
participant Domain1
participant Domain2

Domain1Admin -> Domain1: Post Follow

activate Domain1

Domain1 -> Domain1: Authenticate Domain1Admin\nusing bearer token

Domain1 - -> Domain1Admin: OK

Domain1 -> Domain2: Follow activity

activate Domain2

Domain2 -> Domain2: Authenticate Domain1\nusing HTTP signature
Domain2 - -> Domain1: OK

deactivate Domain1

Domain2 -> Domain2: Authorize Domain1

note right
Authorization fails
using Follow Authorization
Policy.
end note

Domain2 -> Domain1: Reject activity

activate Domain1

Domain1 -> Domain1: Authenticate Domain2\nusing HTTP signature
Domain1 - -> Domain2: OK

deactivate Domain2

Domain1 -> Domain1: Log warning for Reject.

deactivate Domain1
@enduml

PlantUML version 1.2022.1beta3(Unknown compile time)
(GPL source distribution)
Java Runtime: Java(TM) SE Runtime Environment
JVM: Java HotSpot(TM) 64-Bit Server VM
Default Encoding: UTF-8
Language: en
Country: US
--></g></svg>