<?xml version="1.0" encoding="UTF-8" standalone="no"?><svg xmlns="http://www.w3.org/2000/svg" xmlns:xlink="http://www.w3.org/1999/xlink" contentStyleType="text/css" height="1053px" preserveAspectRatio="none" style="width:945px;height:1053px;" version="1.1" viewBox="0 0 945 1053" width="945px" zoomAndPan="magnify"><defs><style type="text/css"><![CDATA[*.s_181818_e7e7e7 {stroke:#181818;}*.f_000000_ffffff {fill:#000000;}*.f_dddddd_222222 {fill:#dddddd;}*.f_ffffff_000000 {fill:#ffffff;}*.f_181818_e7e7e7 {fill:#181818;}*.f_feffdd_333333 {fill:#feffdd;}@media (prefers-color-scheme:dark) {*.s_181818_e7e7e7 {stroke:#e7e7e7;}*.f_000000_ffffff {fill:#ffffff;}*.f_dddddd_222222 {fill:#222222;}*.f_ffffff_000000 {fill:#000000;}*.f_181818_e7e7e7 {fill:#e7e7e7;}*.f_feffdd_333333 {fill:#333333;}}]]></style></defs><g><rect class="s_181818_e7e7e7" fill="#FFFFFF" height="1041.6406" style="stroke-width:0.5;" width="291" x="181" y="6"/><text class="f_000000_ffffff" font-family="sans-serif" font-size="13" font-weight="bold" lengthAdjust="spacing" textLength="66" x="291" y="18.0669">Domain1</text><rect class="f_dddddd_222222 s_181818_e7e7e7" height="1041.6406" style="stroke-width:0.5;" width="231" x="474" y="6"/><text class="f_000000_ffffff" font-family="sans-serif" font-size="13" font-weight="bold" lengthAdjust="spacing" textLength="66" x="556.5" y="18.0669">Domain2</text><rect class="s_181818_e7e7e7" fill="#FFFFFF" height="1041.6406" style="stroke-width:0.5;" width="232" x="707" y="6"/><text class="f_000000_ffffff" font-family="sans-serif" font-size="13" font-weight="bold" lengthAdjust="spacing" textLength="65" x="788" y="18.0669">Domain3</text><rect class="f_ffffff_000000 s_181818_e7e7e7" height="318.7266" style="stroke-width:1.0;" width="10" x="219" y="66.4297"/><rect class="f_ffffff_000000 s_181818_e7e7e7" height="155.8633" style="stroke-width:1.0;" width="10" x="219" y="472.5547"/><rect class="f_ffffff_000000 s_181818_e7e7e7" height="211.1953" style="stroke-width:1.0;" width="10" x="219" y="784.1484"/><rect class="f_ffffff_000000 s_181818_e7e7e7" height="486.5234" style="stroke-width:1.0;" width="10" x="511.5" y="87.5625"/><rect class="f_ffffff_000000 s_181818_e7e7e7" height="29.1328" style="stroke-width:1.0;" width="10" x="670.5" y="414.2891"/><rect class="f_ffffff_000000 s_181818_e7e7e7" height="529.6563" style="stroke-width:1.0;" width="10" x="745" y="283.625"/><rect class="f_ffffff_000000 s_181818_e7e7e7" height="29.1328" style="stroke-width:1.0;" width="10" x="904" y="725.8828"/><line class="s_181818_e7e7e7" style="stroke-width:0.5;stroke-dasharray:5.0,5.0;" x1="224" x2="224" y1="56.4297" y2="1013.3438"/><line class="s_181818_e7e7e7" style="stroke-width:0.5;stroke-dasharray:5.0,5.0;" x1="409" x2="409" y1="56.4297" y2="1013.3438"/><line class="s_181818_e7e7e7" style="stroke-width:0.5;stroke-dasharray:5.0,5.0;" x1="516" x2="516" y1="56.4297" y2="1013.3438"/><line class="s_181818_e7e7e7" style="stroke-width:0.5;stroke-dasharray:5.0,5.0;" x1="675" x2="675" y1="56.4297" y2="1013.3438"/><line class="s_181818_e7e7e7" style="stroke-width:0.5;stroke-dasharray:5.0,5.0;" x1="750" x2="750" y1="56.4297" y2="1013.3438"/><line class="s_181818_e7e7e7" style="stroke-width:0.5;stroke-dasharray:5.0,5.0;" x1="909" x2="909" y1="56.4297" y2="1013.3438"/><rect class="s_181818_e7e7e7" fill="#E2E2F0" height="30.2969" rx="2.5" ry="2.5" style="stroke-width:0.5;" width="78" x="185" y="25.1328"/><text class="f_000000_ffffff" font-family="sans-serif" font-size="14" lengthAdjust="spacing" textLength="64" x="192" y="45.1279">Domain1</text><rect class="s_181818_e7e7e7" fill="#E2E2F0" height="30.2969" rx="2.5" ry="2.5" style="stroke-width:0.5;" width="78" x="185" y="1012.3438"/><text class="f_000000_ffffff" font-family="sans-serif" font-size="14" lengthAdjust="spacing" textLength="64" x="192" y="1032.3389">Domain1</text><path class="s_181818_e7e7e7" d="M355,30.1328 L463,30.1328 C468,30.1328 468,43.2813 468,43.2813 C468,43.2813 468,56.4297 463,56.4297 L355,56.4297 C350,56.4297 350,43.2813 350,43.2813 C350,43.2813 350,30.1328 355,30.1328 " fill="#E2E2F0" style="stroke-width:0.5;"/><path class="s_181818_e7e7e7" d="M463,30.1328 C458,30.1328 458,43.2813 458,43.2813 C458,56.4297 463,56.4297 463,56.4297 " fill="none" style="stroke-width:0.5;"/><text class="f_000000_ffffff" font-family="sans-serif" font-size="14" lengthAdjust="spacing" textLength="98" x="355" y="48.1279">anchor_event</text><path class="s_181818_e7e7e7" d="M355,1012.3438 L463,1012.3438 C468,1012.3438 468,1025.4922 468,1025.4922 C468,1025.4922 468,1038.6406 463,1038.6406 L355,1038.6406 C350,1038.6406 350,1025.4922 350,1025.4922 C350,1025.4922 350,1012.3438 355,1012.3438 " fill="#E2E2F0" style="stroke-width:0.5;"/><path class="s_181818_e7e7e7" d="M463,1012.3438 C458,1012.3438 458,1025.4922 458,1025.4922 C458,1038.6406 463,1038.6406 463,1038.6406 " fill="none" style="stroke-width:0.5;"/><text class="f_000000_ffffff" font-family="sans-serif" font-size="14" lengthAdjust="spacing" textLength="98" x="355" y="1030.3389">anchor_event</text><rect class="s_181818_e7e7e7" fill="#E2E2F0" height="30.2969" rx="2.5" ry="2.5" style="stroke-width:0.5;" width="77" x="478" y="25.1328"/><text class="f_000000_ffffff" font-family="sans-serif" font-size="14" lengthAdjust="spacing" textLength="63" x="485" y="45.1279">Domain2</text><rect class="s_181818_e7e7e7" fill="#E2E2F0" height="30.2969" rx="2.5" ry="2.5" style="stroke-width:0.5;" width="77" x="478" y="1012.3438"/><text class="f_000000_ffffff" font-family="sans-serif" font-size="14" lengthAdjust="spacing" textLength="63" x="485" y="1032.3389">Domain2</text><rect class="s_181818_e7e7e7" fill="#E2E2F0" height="30.2969" rx="2.5" ry="2.5" style="stroke-width:0.5;" width="51" x="650" y="25.1328"/><text class="f_000000_ffffff" font-family="sans-serif" font-size="14" lengthAdjust="spacing" textLength="37" x="657" y="45.1279">VCT2</text><rect class="s_181818_e7e7e7" fill="#E2E2F0" height="30.2969" rx="2.5" ry="2.5" style="stroke-width:0.5;" width="51" x="650" y="1012.3438"/><text class="f_000000_ffffff" font-family="sans-serif" font-size="14" lengthAdjust="spacing" textLength="37" x="657" y="1032.3389">VCT2</text><rect class="s_181818_e7e7e7" fill="#E2E2F0" height="30.2969" rx="2.5" ry="2.5" style="stroke-width:0.5;" width="78" x="711" y="25.1328"/><text class="f_000000_ffffff" font-family="sans-serif" font-size="14" lengthAdjust="spacing" textLength="64" x="718" y="45.1279">Domain3</text><rect class="s_181818_e7e7e7" fill="#E2E2F0" height="30.2969" rx="2.5" ry="2.5" style="stroke-width:0.5;" width="78" x="711" y="1012.3438"/><text class="f_000000_ffffff" font-family="sans-serif" font-size="14" lengthAdjust="spacing" textLength="64" x="718" y="1032.3389">Domain3</text><rect class="s_181818_e7e7e7" fill="#E2E2F0" height="30.2969" rx="2.5" ry="2.5" style="stroke-width:0.5;" width="52" x="883" y="25.1328"/><text class="f_000000_ffffff" font-family="sans-serif" font-size="14" lengthAdjust="spacing" textLength="38" x="890" y="45.1279">VCT3</text><rect class="s_181818_e7e7e7" fill="#E2E2F0" height="30.2969" rx="2.5" ry="2.5" style="stroke-width:0.5;" width="52" x="883" y="1012.3438"/><text class="f_000000_ffffff" font-family="sans-serif" font-size="14" lengthAdjust="spacing" textLength="38" x="890" y="1032.3389">VCT3</text><rect class="f_ffffff_000000 s_181818_e7e7e7" height="318.7266" style="stroke-width:1.0;" width="10" x="219" y="66.4297"/><rect class="f_ffffff_000000 s_181818_e7e7e7" height="155.8633" style="stroke-width:1.0;" width="10" x="219" y="472.5547"/><rect class="f_ffffff_000000 s_181818_e7e7e7" height="211.1953" style="stroke-width:1.0;" width="10" x="219" y="784.1484"/><rect class="f_ffffff_000000 s_181818_e7e7e7" height="486.5234" style="stroke-width:1.0;" width="10" x="511.5" y="87.5625"/><rect class="f_ffffff_000000 s_181818_e7e7e7" height="29.1328" style="stroke-width:1.0;" width="10" x="670.5" y="414.2891"/><rect class="f_ffffff_000000 s_181818_e7e7e7" height="529.6563" style="stroke-width:1.0;" width="10" x="745" y="283.625"/><rect class="f_ffffff_000000 s_181818_e7e7e7" height="29.1328" style="stroke-width:1.0;" width="10" x="904" y="725.8828"/><polygon class="f_181818_e7e7e7 s_181818_e7e7e7" points="499.5,83.5625,509.5,87.5625,499.5,91.5625,503.5,87.5625" style="stroke-width:1.0;"/><line class="s_181818_e7e7e7" style="stroke-width:1.0;" x1="229" x2="505.5" y1="87.5625" y2="87.5625"/><text class="f_000000_ffffff" font-family="sans-serif" font-size="13" lengthAdjust="spacing" textLength="84" x="236" y="82.4966">Offer activity</text><line class="s_181818_e7e7e7" style="stroke-width:1.0;" x1="521.5" x2="563.5" y1="146.9609" y2="146.9609"/><line class="s_181818_e7e7e7" style="stroke-width:1.0;" x1="563.5" x2="563.5" y1="146.9609" y2="159.9609"/><line class="s_181818_e7e7e7" style="stroke-width:1.0;" x1="522.5" x2="563.5" y1="159.9609" y2="159.9609"/><polygon class="f_181818_e7e7e7 s_181818_e7e7e7" points="532.5,155.9609,522.5,159.9609,532.5,163.9609,528.5,159.9609" style="stroke-width:1.0;"/><text class="f_000000_ffffff" font-family="sans-serif" font-size="13" lengthAdjust="spacing" textLength="82" x="528.5" y="111.6294">Authenticate</text><text class="f_000000_ffffff" font-family="sans-serif" font-size="13" lengthAdjust="spacing" textLength="58" x="528.5" y="126.7622">Domain1</text><text class="f_000000_ffffff" font-family="sans-serif" font-size="13" lengthAdjust="spacing" textLength="135" x="528.5" y="141.895">using HTTP signature</text><polygon class="f_181818_e7e7e7 s_181818_e7e7e7" points="240,185.0938,230,189.0938,240,193.0938,236,189.0938" style="stroke-width:1.0;"/><line class="s_181818_e7e7e7" style="stroke-width:1.0;stroke-dasharray:2.0,2.0;" x1="234" x2="510.5" y1="189.0938" y2="189.0938"/><text class="f_000000_ffffff" font-family="sans-serif" font-size="13" lengthAdjust="spacing" textLength="18" x="246" y="184.0278">OK</text><line class="s_181818_e7e7e7" style="stroke-width:1.0;" x1="521.5" x2="563.5" y1="237.4258" y2="237.4258"/><line class="s_181818_e7e7e7" style="stroke-width:1.0;" x1="563.5" x2="563.5" y1="237.4258" y2="250.4258"/><line class="s_181818_e7e7e7" style="stroke-width:1.0;" x1="522.5" x2="563.5" y1="250.4258" y2="250.4258"/><polygon class="f_181818_e7e7e7 s_181818_e7e7e7" points="532.5,246.4258,522.5,250.4258,532.5,254.4258,528.5,250.4258" style="stroke-width:1.0;"/><text class="f_000000_ffffff" font-family="sans-serif" font-size="13" lengthAdjust="spacing" textLength="61" x="528.5" y="217.2271">Authorize</text><text class="f_000000_ffffff" font-family="sans-serif" font-size="13" lengthAdjust="spacing" textLength="58" x="528.5" y="232.3599">Domain1</text><path class="f_feffdd_333333 s_181818_e7e7e7" d="M329,202.0938 L329,257.0938 L506,257.0938 L506,212.0938 L496,202.0938 L329,202.0938 " style="stroke-width:0.5;"/><path class="f_feffdd_333333 s_181818_e7e7e7" d="M496,202.0938 L496,212.0938 L506,212.0938 L496,202.0938 " style="stroke-width:0.5;"/><text class="f_000000_ffffff" font-family="sans-serif" font-size="13" lengthAdjust="spacing" textLength="156" x="335" y="219.1606">Authorization successful</text><text class="f_000000_ffffff" font-family="sans-serif" font-size="13" lengthAdjust="spacing" textLength="149" x="335" y="234.2935">since Domain1 is in the</text><text class="f_000000_ffffff" font-family="sans-serif" font-size="13" lengthAdjust="spacing" textLength="94" x="335" y="249.4263">witnessing list.</text><polygon class="f_181818_e7e7e7 s_181818_e7e7e7" points="733,279.625,743,283.625,733,287.625,737,283.625" style="stroke-width:1.0;"/><line class="s_181818_e7e7e7" style="stroke-width:1.0;" x1="229" x2="739" y1="283.625" y2="283.625"/><text class="f_000000_ffffff" font-family="sans-serif" font-size="13" lengthAdjust="spacing" textLength="84" x="236" y="278.5591">Offer activity</text><line class="s_181818_e7e7e7" style="stroke-width:1.0;" x1="755" x2="797" y1="343.0234" y2="343.0234"/><line class="s_181818_e7e7e7" style="stroke-width:1.0;" x1="797" x2="797" y1="343.0234" y2="356.0234"/><line class="s_181818_e7e7e7" style="stroke-width:1.0;" x1="756" x2="797" y1="356.0234" y2="356.0234"/><polygon class="f_181818_e7e7e7 s_181818_e7e7e7" points="766,352.0234,756,356.0234,766,360.0234,762,356.0234" style="stroke-width:1.0;"/><text class="f_000000_ffffff" font-family="sans-serif" font-size="13" lengthAdjust="spacing" textLength="82" x="762" y="307.6919">Authenticate</text><text class="f_000000_ffffff" font-family="sans-serif" font-size="13" lengthAdjust="spacing" textLength="58" x="762" y="322.8247">Domain1</text><text class="f_000000_ffffff" font-family="sans-serif" font-size="13" lengthAdjust="spacing" textLength="135" x="762" y="337.9575">using HTTP signature</text><polygon class="f_181818_e7e7e7 s_181818_e7e7e7" points="235,381.1563,225,385.1563,235,389.1563,231,385.1563" style="stroke-width:1.0;"/><line class="s_181818_e7e7e7" style="stroke-width:1.0;stroke-dasharray:2.0,2.0;" x1="229" x2="744" y1="385.1563" y2="385.1563"/><text class="f_000000_ffffff" font-family="sans-serif" font-size="13" lengthAdjust="spacing" textLength="18" x="241" y="380.0903">OK</text><polygon class="f_181818_e7e7e7 s_181818_e7e7e7" points="658.5,410.2891,668.5,414.2891,658.5,418.2891,662.5,414.2891" style="stroke-width:1.0;"/><line class="s_181818_e7e7e7" style="stroke-width:1.0;" x1="521.5" x2="664.5" y1="414.2891" y2="414.2891"/><text class="f_000000_ffffff" font-family="sans-serif" font-size="13" lengthAdjust="spacing" textLength="55" x="528.5" y="409.2231">Add VCT</text><polygon class="f_181818_e7e7e7 s_181818_e7e7e7" points="532.5,439.4219,522.5,443.4219,532.5,447.4219,528.5,443.4219" style="stroke-width:1.0;"/><line class="s_181818_e7e7e7" style="stroke-width:1.0;stroke-dasharray:2.0,2.0;" x1="526.5" x2="674.5" y1="443.4219" y2="443.4219"/><text class="f_000000_ffffff" font-family="sans-serif" font-size="13" lengthAdjust="spacing" textLength="18" x="538.5" y="438.356">OK</text><polygon class="f_181818_e7e7e7 s_181818_e7e7e7" points="240,468.5547,230,472.5547,240,476.5547,236,472.5547" style="stroke-width:1.0;"/><line class="s_181818_e7e7e7" style="stroke-width:1.0;" x1="234" x2="510.5" y1="472.5547" y2="472.5547"/><text class="f_000000_ffffff" font-family="sans-serif" font-size="13" lengthAdjust="spacing" textLength="95" x="246" y="467.4888">Accept activity</text><line class="s_181818_e7e7e7" style="stroke-width:1.0;" x1="229" x2="271" y1="531.9531" y2="531.9531"/><line class="s_181818_e7e7e7" style="stroke-width:1.0;" x1="271" x2="271" y1="531.9531" y2="544.9531"/><line class="s_181818_e7e7e7" style="stroke-width:1.0;" x1="230" x2="271" y1="544.9531" y2="544.9531"/><polygon class="f_181818_e7e7e7 s_181818_e7e7e7" points="240,540.9531,230,544.9531,240,548.9531,236,544.9531" style="stroke-width:1.0;"/><text class="f_000000_ffffff" font-family="sans-serif" font-size="13" lengthAdjust="spacing" textLength="82" x="236" y="496.6216">Authenticate</text><text class="f_000000_ffffff" font-family="sans-serif" font-size="13" lengthAdjust="spacing" textLength="58" x="236" y="511.7544">Domain2</text><text class="f_000000_ffffff" font-family="sans-serif" font-size="13" lengthAdjust="spacing" textLength="135" x="236" y="526.8872">using HTTP signature</text><polygon class="f_181818_e7e7e7 s_181818_e7e7e7" points="504.5,570.0859,514.5,574.0859,504.5,578.0859,508.5,574.0859" style="stroke-width:1.0;"/><line class="s_181818_e7e7e7" style="stroke-width:1.0;stroke-dasharray:2.0,2.0;" x1="229" x2="510.5" y1="574.0859" y2="574.0859"/><text class="f_000000_ffffff" font-family="sans-serif" font-size="13" lengthAdjust="spacing" textLength="18" x="236" y="569.02">OK</text><line class="s_181818_e7e7e7" style="stroke-width:1.0;" x1="229" x2="271" y1="627.418" y2="627.418"/><line class="s_181818_e7e7e7" style="stroke-width:1.0;" x1="271" x2="271" y1="627.418" y2="640.418"/><line class="s_181818_e7e7e7" style="stroke-width:1.0;" x1="224" x2="271" y1="640.418" y2="640.418"/><polygon class="f_181818_e7e7e7 s_181818_e7e7e7" points="234,636.418,224,640.418,234,644.418,230,640.418" style="stroke-width:1.0;"/><text class="f_000000_ffffff" font-family="sans-serif" font-size="13" lengthAdjust="spacing" textLength="160" x="236" y="607.2192">Add proof from Domain3</text><text class="f_000000_ffffff" font-family="sans-serif" font-size="13" lengthAdjust="spacing" textLength="161" x="236" y="622.3521">and check Witness Policy</text><path class="f_feffdd_333333 s_181818_e7e7e7" d="M48,587.0859 L48,642.0859 L214,642.0859 L214,597.0859 L204,587.0859 L48,587.0859 " style="stroke-width:0.5;"/><path class="f_feffdd_333333 s_181818_e7e7e7" d="M204,587.0859 L204,597.0859 L214,597.0859 L204,587.0859 " style="stroke-width:0.5;"/><text class="f_000000_ffffff" font-family="sans-serif" font-size="13" lengthAdjust="spacing" textLength="145" x="54" y="604.1528">We don't have enough</text><text class="f_000000_ffffff" font-family="sans-serif" font-size="13" lengthAdjust="spacing" textLength="129" x="54" y="619.2856">proofs (according to</text><text class="f_000000_ffffff" font-family="sans-serif" font-size="13" lengthAdjust="spacing" textLength="101" x="54" y="634.4185">Witness Policy).</text><line class="s_181818_e7e7e7" style="stroke-width:1.0;" x1="755" x2="797" y1="683.75" y2="683.75"/><line class="s_181818_e7e7e7" style="stroke-width:1.0;" x1="797" x2="797" y1="683.75" y2="696.75"/><line class="s_181818_e7e7e7" style="stroke-width:1.0;" x1="756" x2="797" y1="696.75" y2="696.75"/><polygon class="f_181818_e7e7e7 s_181818_e7e7e7" points="766,692.75,756,696.75,766,700.75,762,696.75" style="stroke-width:1.0;"/><text class="f_000000_ffffff" font-family="sans-serif" font-size="13" lengthAdjust="spacing" textLength="61" x="762" y="663.5513">Authorize</text><text class="f_000000_ffffff" font-family="sans-serif" font-size="13" lengthAdjust="spacing" textLength="58" x="762" y="678.6841">Domain1</text><path class="f_feffdd_333333 s_181818_e7e7e7" d="M509,655.9844 L509,695.9844 L740,695.9844 L740,665.9844 L730,655.9844 L509,655.9844 " style="stroke-width:0.5;"/><path class="f_feffdd_333333 s_181818_e7e7e7" d="M730,655.9844 L730,665.9844 L740,665.9844 L730,655.9844 " style="stroke-width:0.5;"/><text class="f_000000_ffffff" font-family="sans-serif" font-size="13" lengthAdjust="spacing" textLength="193" x="515" y="673.0513">Authorization successful since</text><text class="f_000000_ffffff" font-family="sans-serif" font-size="13" lengthAdjust="spacing" textLength="210" x="515" y="688.1841">Domain1 is in the witnessing list.</text><polygon class="f_181818_e7e7e7 s_181818_e7e7e7" points="892,721.8828,902,725.8828,892,729.8828,896,725.8828" style="stroke-width:1.0;"/><line class="s_181818_e7e7e7" style="stroke-width:1.0;" x1="755" x2="898" y1="725.8828" y2="725.8828"/><text class="f_000000_ffffff" font-family="sans-serif" font-size="13" lengthAdjust="spacing" textLength="72" x="762" y="720.8169">Add to VCT</text><polygon class="f_181818_e7e7e7 s_181818_e7e7e7" points="766,751.0156,756,755.0156,766,759.0156,762,755.0156" style="stroke-width:1.0;"/><line class="s_181818_e7e7e7" style="stroke-width:1.0;stroke-dasharray:2.0,2.0;" x1="760" x2="908" y1="755.0156" y2="755.0156"/><text class="f_000000_ffffff" font-family="sans-serif" font-size="13" lengthAdjust="spacing" textLength="18" x="772" y="749.9497">OK</text><polygon class="f_181818_e7e7e7 s_181818_e7e7e7" points="240,780.1484,230,784.1484,240,788.1484,236,784.1484" style="stroke-width:1.0;"/><line class="s_181818_e7e7e7" style="stroke-width:1.0;" x1="234" x2="744" y1="784.1484" y2="784.1484"/><text class="f_000000_ffffff" font-family="sans-serif" font-size="13" lengthAdjust="spacing" textLength="95" x="246" y="779.0825">Accept activity</text><polygon class="f_181818_e7e7e7 s_181818_e7e7e7" points="738,809.2813,748,813.2813,738,817.2813,742,813.2813" style="stroke-width:1.0;"/><line class="s_181818_e7e7e7" style="stroke-width:1.0;stroke-dasharray:2.0,2.0;" x1="229" x2="744" y1="813.2813" y2="813.2813"/><text class="f_000000_ffffff" font-family="sans-serif" font-size="13" lengthAdjust="spacing" textLength="18" x="236" y="808.2153">OK</text><line class="s_181818_e7e7e7" style="stroke-width:1.0;" x1="229" x2="271" y1="857.5469" y2="857.5469"/><line class="s_181818_e7e7e7" style="stroke-width:1.0;" x1="271" x2="271" y1="857.5469" y2="870.5469"/><line class="s_181818_e7e7e7" style="stroke-width:1.0;" x1="230" x2="271" y1="870.5469" y2="870.5469"/><polygon class="f_181818_e7e7e7 s_181818_e7e7e7" points="240,866.5469,230,870.5469,240,874.5469,236,870.5469" style="stroke-width:1.0;"/><text class="f_000000_ffffff" font-family="sans-serif" font-size="13" lengthAdjust="spacing" textLength="160" x="236" y="837.3481">Add proof from Domain3</text><text class="f_000000_ffffff" font-family="sans-serif" font-size="13" lengthAdjust="spacing" textLength="161" x="236" y="852.481">and check Witness Policy</text><path class="f_feffdd_333333 s_181818_e7e7e7" d="M31,829.7813 L31,869.7813 L214,869.7813 L214,839.7813 L204,829.7813 L31,829.7813 " style="stroke-width:0.5;"/><path class="f_feffdd_333333 s_181818_e7e7e7" d="M204,829.7813 L204,839.7813 L214,839.7813 L204,829.7813 " style="stroke-width:0.5;"/><text class="f_000000_ffffff" font-family="sans-serif" font-size="13" lengthAdjust="spacing" textLength="154" x="37" y="846.8481">We have enough proofs</text><text class="f_000000_ffffff" font-family="sans-serif" font-size="13" lengthAdjust="spacing" textLength="162" x="37" y="861.981">according Witness Policy.</text><polygon class="f_181818_e7e7e7 s_181818_e7e7e7" points="397,928.9453,407,932.9453,397,936.9453,401,932.9453" style="stroke-width:1.0;"/><line class="s_181818_e7e7e7" style="stroke-width:1.0;" x1="229" x2="403" y1="932.9453" y2="932.9453"/><text class="f_000000_ffffff" font-family="sans-serif" font-size="13" lengthAdjust="spacing" textLength="145" x="236" y="927.8794">AnchorEvent message</text><path class="f_feffdd_333333 s_181818_e7e7e7" d="M5,883.5469 L5,968.5469 L214,968.5469 L214,893.5469 L204,883.5469 L5,883.5469 " style="stroke-width:0.5;"/><path class="f_feffdd_333333 s_181818_e7e7e7" d="M204,883.5469 L204,893.5469 L214,893.5469 L204,883.5469 " style="stroke-width:0.5;"/><text class="f_000000_ffffff" font-family="sans-serif" font-size="13" lengthAdjust="spacing" textLength="179" x="11" y="900.6138">Construct AnchorEvent with</text><text class="f_000000_ffffff" font-family="sans-serif" font-size="13" lengthAdjust="spacing" textLength="166" x="11" y="915.7466">proofs from Domain1 and</text><text class="f_000000_ffffff" font-family="sans-serif" font-size="13" lengthAdjust="spacing" textLength="135" x="11" y="930.8794">Domain2 and post to</text><text class="f_000000_ffffff" font-family="sans-serif" font-size="13" lengthAdjust="spacing" textLength="177" x="11" y="946.0122">anchor_event queue, which</text><text class="f_000000_ffffff" font-family="sans-serif" font-size="13" lengthAdjust="spacing" textLength="188" x="11" y="961.145">is consumed by Batch Writer.</text><polygon class="f_181818_e7e7e7 s_181818_e7e7e7" points="235,991.3438,225,995.3438,235,999.3438,231,995.3438" style="stroke-width:1.0;"/><line class="s_181818_e7e7e7" style="stroke-width:1.0;stroke-dasharray:2.0,2.0;" x1="229" x2="408" y1="995.3438" y2="995.3438"/><text class="f_000000_ffffff" font-family="sans-serif" font-size="13" lengthAdjust="spacing" textLength="26" x="241" y="990.2778">ACK</text><!--MD5=[65acd13231c87182e748095a9105645c]
@startuml
'https://plantuml.com/sequence-diagram

'autonumber

box Domain1 #White
participant Domain1
queue anchor_event
end box

box Domain2
participant Domain2
participant VCT2
end box

box Domain3 #White
participant Domain3
participant VCT3
end box

activate Domain1
Domain1 -> Domain2: Offer activity

activate Domain2

Domain2 -> Domain2: Authenticate\nDomain1\nusing HTTP signature
Domain2 - -> Domain1: OK
Domain2 -> Domain2: Authorize\nDomain1

note left
Authorization successful
since Domain1 is in the
witnessing list.
end note

Domain1 -> Domain3: Offer activity

activate Domain3

Domain3 -> Domain3: Authenticate\nDomain1\nusing HTTP signature

Domain3 - -> Domain1: OK

deactivate Domain1

Domain2 -> VCT2: Add VCT
activate VCT2
VCT2 - -> Domain2: OK
deactivate VCT2
Domain2 -> Domain1: Accept activity

activate Domain1
Domain1 -> Domain1: Authenticate\nDomain2\nusing HTTP signature

Domain1 - -> Domain2: OK

deactivate Domain2


Domain1 -> Domain1: Add proof from Domain3\nand check Witness Policy
note left
We don't have enough
proofs (according to
Witness Policy).
end note

deactivate Domain1

Domain3 -> Domain3: Authorize\nDomain1

note left
Authorization successful since
Domain1 is in the witnessing list.
end note

Domain3 -> VCT3: Add to VCT
activate VCT3
VCT3 - -> Domain3: OK
deactivate VCT3
Domain3 -> Domain1: Accept activity

activate Domain1

Domain1 - -> Domain3: OK

deactivate Domain3

Domain1 -> Domain1: Add proof from Domain3\nand check Witness Policy

note left
We have enough proofs
according Witness Policy.
end note

Domain1 -> anchor_event: AnchorEvent message
note left
Construct AnchorEvent with
proofs from Domain1 and
Domain2 and post to
anchor_event queue, which
is consumed by Batch Writer.
end note

anchor_event - -> Domain1: ACK

deactivate Domain1
@enduml

@startuml


box Domain1 #White
participant Domain1
queue anchor_event
end box

box Domain2
participant Domain2
participant VCT2
end box

box Domain3 #White
participant Domain3
participant VCT3
end box

activate Domain1
Domain1 -> Domain2: Offer activity

activate Domain2

Domain2 -> Domain2: Authenticate\nDomain1\nusing HTTP signature
Domain2 - -> Domain1: OK
Domain2 -> Domain2: Authorize\nDomain1

note left
Authorization successful
since Domain1 is in the
witnessing list.
end note

Domain1 -> Domain3: Offer activity

activate Domain3

Domain3 -> Domain3: Authenticate\nDomain1\nusing HTTP signature

Domain3 - -> Domain1: OK

deactivate Domain1

Domain2 -> VCT2: Add VCT
activate VCT2
VCT2 - -> Domain2: OK
deactivate VCT2
Domain2 -> Domain1: Accept activity

activate Domain1
Domain1 -> Domain1: Authenticate\nDomain2\nusing HTTP signature

Domain1 - -> Domain2: OK

deactivate Domain2


Domain1 -> Domain1: Add proof from Domain3\nand check Witness Policy
note left
We don't have enough
proofs (according to
Witness Policy).
end note

deactivate Domain1

Domain3 -> Domain3: Authorize\nDomain1

note left
Authorization successful since
Domain1 is in the witnessing list.
end note

Domain3 -> VCT3: Add to VCT
activate VCT3
VCT3 - -> Domain3: OK
deactivate VCT3
Domain3 -> Domain1: Accept activity

activate Domain1

Domain1 - -> Domain3: OK

deactivate Domain3

Domain1 -> Domain1: Add proof from Domain3\nand check Witness Policy

note left
We have enough proofs
according Witness Policy.
end note

Domain1 -> anchor_event: AnchorEvent message
note left
Construct AnchorEvent with
proofs from Domain1 and
Domain2 and post to
anchor_event queue, which
is consumed by Batch Writer.
end note

anchor_event - -> Domain1: ACK

deactivate Domain1
@enduml

PlantUML version 1.2022.2beta5(Unknown compile time)
(GPL source distribution)
Java Runtime: Java(TM) SE Runtime Environment
JVM: Java HotSpot(TM) 64-Bit Server VM
Default Encoding: UTF-8
Language: en
Country: US
--></g></svg>