<?xml version="1.0" encoding="UTF-8" standalone="no"?><svg xmlns="http://www.w3.org/2000/svg" xmlns:xlink="http://www.w3.org/1999/xlink" contentStyleType="text/css" height="654px" preserveAspectRatio="none" style="width:547px;height:654px;" version="1.1" viewBox="0 0 547 654" width="547px" zoomAndPan="magnify"><defs><style type="text/css"><![CDATA[*.f_ffffff_000000 {fill:#ffffff;}*.s_181818_e7e7e7 {stroke:#181818;}*.f_000000_ffffff {fill:#000000;}*.f_181818_e7e7e7 {fill:#181818;}*.f_feffdd_333333 {fill:#feffdd;}@media (prefers-color-scheme:dark) {*.f_ffffff_000000 {fill:#000000;}*.s_181818_e7e7e7 {stroke:#e7e7e7;}*.f_000000_ffffff {fill:#ffffff;}*.f_181818_e7e7e7 {fill:#e7e7e7;}*.f_feffdd_333333 {fill:#333333;}}]]></style></defs><g><rect class="f_ffffff_000000 s_181818_e7e7e7" height="223.0625" style="stroke-width:1.0;" width="10" x="39" y="46.2969"/><rect class="f_ffffff_000000 s_181818_e7e7e7" height="64.2656" style="stroke-width:1.0;" width="10" x="39" y="363.8906"/><rect class="f_ffffff_000000 s_181818_e7e7e7" height="64.2656" style="stroke-width:1.0;" width="10" x="39" y="529.6875"/><rect class="f_ffffff_000000 s_181818_e7e7e7" height="325.5938" style="stroke-width:1.0;" width="10" x="211" y="67.4297"/><rect class="f_ffffff_000000 s_181818_e7e7e7" height="375.8594" style="stroke-width:1.0;" width="10" x="379" y="182.9609"/><line class="s_181818_e7e7e7" style="stroke-width:0.5;stroke-dasharray:5.0,5.0;" x1="44" x2="44" y1="36.2969" y2="618.9531"/><line class="s_181818_e7e7e7" style="stroke-width:0.5;stroke-dasharray:5.0,5.0;" x1="215.5" x2="215.5" y1="36.2969" y2="618.9531"/><line class="s_181818_e7e7e7" style="stroke-width:0.5;stroke-dasharray:5.0,5.0;" x1="384" x2="384" y1="36.2969" y2="618.9531"/><rect class="s_181818_e7e7e7" fill="#E2E2F0" height="30.2969" rx="2.5" ry="2.5" style="stroke-width:0.5;" width="78" x="5" y="5"/><text class="f_000000_ffffff" font-family="sans-serif" font-size="14" lengthAdjust="spacing" textLength="64" x="12" y="24.9951">Domain1</text><rect class="s_181818_e7e7e7" fill="#E2E2F0" height="30.2969" rx="2.5" ry="2.5" style="stroke-width:0.5;" width="78" x="5" y="617.9531"/><text class="f_000000_ffffff" font-family="sans-serif" font-size="14" lengthAdjust="spacing" textLength="64" x="12" y="637.9482">Domain1</text><rect class="s_181818_e7e7e7" fill="#E2E2F0" height="30.2969" rx="2.5" ry="2.5" style="stroke-width:0.5;" width="77" x="177.5" y="5"/><text class="f_000000_ffffff" font-family="sans-serif" font-size="14" lengthAdjust="spacing" textLength="63" x="184.5" y="24.9951">Domain2</text><rect class="s_181818_e7e7e7" fill="#E2E2F0" height="30.2969" rx="2.5" ry="2.5" style="stroke-width:0.5;" width="77" x="177.5" y="617.9531"/><text class="f_000000_ffffff" font-family="sans-serif" font-size="14" lengthAdjust="spacing" textLength="63" x="184.5" y="637.9482">Domain2</text><rect class="s_181818_e7e7e7" fill="#E2E2F0" height="30.2969" rx="2.5" ry="2.5" style="stroke-width:0.5;" width="78" x="345" y="5"/><text class="f_000000_ffffff" font-family="sans-serif" font-size="14" lengthAdjust="spacing" textLength="64" x="352" y="24.9951">Domain3</text><rect class="s_181818_e7e7e7" fill="#E2E2F0" height="30.2969" rx="2.5" ry="2.5" style="stroke-width:0.5;" width="78" x="345" y="617.9531"/><text class="f_000000_ffffff" font-family="sans-serif" font-size="14" lengthAdjust="spacing" textLength="64" x="352" y="637.9482">Domain3</text><rect class="f_ffffff_000000 s_181818_e7e7e7" height="223.0625" style="stroke-width:1.0;" width="10" x="39" y="46.2969"/><rect class="f_ffffff_000000 s_181818_e7e7e7" height="64.2656" style="stroke-width:1.0;" width="10" x="39" y="363.8906"/><rect class="f_ffffff_000000 s_181818_e7e7e7" height="64.2656" style="stroke-width:1.0;" width="10" x="39" y="529.6875"/><rect class="f_ffffff_000000 s_181818_e7e7e7" height="325.5938" style="stroke-width:1.0;" width="10" x="211" y="67.4297"/><rect class="f_ffffff_000000 s_181818_e7e7e7" height="375.8594" style="stroke-width:1.0;" width="10" x="379" y="182.9609"/><polygon class="f_181818_e7e7e7 s_181818_e7e7e7" points="199,63.4297,209,67.4297,199,71.4297,203,67.4297" style="stroke-width:1.0;"/><line class="s_181818_e7e7e7" style="stroke-width:1.0;" x1="49" x2="205" y1="67.4297" y2="67.4297"/><text class="f_000000_ffffff" font-family="sans-serif" font-size="13" lengthAdjust="spacing" textLength="84" x="56" y="62.3638">Offer activity</text><line class="s_181818_e7e7e7" style="stroke-width:1.0;" x1="221" x2="263" y1="111.6953" y2="111.6953"/><line class="s_181818_e7e7e7" style="stroke-width:1.0;" x1="263" x2="263" y1="111.6953" y2="124.6953"/><line class="s_181818_e7e7e7" style="stroke-width:1.0;" x1="222" x2="263" y1="124.6953" y2="124.6953"/><polygon class="f_181818_e7e7e7 s_181818_e7e7e7" points="232,120.6953,222,124.6953,232,128.6953,228,124.6953" style="stroke-width:1.0;"/><text class="f_000000_ffffff" font-family="sans-serif" font-size="13" lengthAdjust="spacing" textLength="144" x="228" y="91.4966">Authenticate Domain1</text><text class="f_000000_ffffff" font-family="sans-serif" font-size="13" lengthAdjust="spacing" textLength="135" x="228" y="106.6294">using HTTP signature</text><polygon class="f_181818_e7e7e7 s_181818_e7e7e7" points="60,149.8281,50,153.8281,60,157.8281,56,153.8281" style="stroke-width:1.0;"/><line class="s_181818_e7e7e7" style="stroke-width:1.0;stroke-dasharray:2.0,2.0;" x1="54" x2="210" y1="153.8281" y2="153.8281"/><text class="f_000000_ffffff" font-family="sans-serif" font-size="13" lengthAdjust="spacing" textLength="18" x="66" y="148.7622">OK</text><polygon class="f_181818_e7e7e7 s_181818_e7e7e7" points="367,178.9609,377,182.9609,367,186.9609,371,182.9609" style="stroke-width:1.0;"/><line class="s_181818_e7e7e7" style="stroke-width:1.0;" x1="49" x2="373" y1="182.9609" y2="182.9609"/><text class="f_000000_ffffff" font-family="sans-serif" font-size="13" lengthAdjust="spacing" textLength="84" x="56" y="177.895">Offer activity</text><line class="s_181818_e7e7e7" style="stroke-width:1.0;" x1="389" x2="431" y1="227.2266" y2="227.2266"/><line class="s_181818_e7e7e7" style="stroke-width:1.0;" x1="431" x2="431" y1="227.2266" y2="240.2266"/><line class="s_181818_e7e7e7" style="stroke-width:1.0;" x1="390" x2="431" y1="240.2266" y2="240.2266"/><polygon class="f_181818_e7e7e7 s_181818_e7e7e7" points="400,236.2266,390,240.2266,400,244.2266,396,240.2266" style="stroke-width:1.0;"/><text class="f_000000_ffffff" font-family="sans-serif" font-size="13" lengthAdjust="spacing" textLength="144" x="396" y="207.0278">Authenticate Domain1</text><text class="f_000000_ffffff" font-family="sans-serif" font-size="13" lengthAdjust="spacing" textLength="135" x="396" y="222.1606">using HTTP signature</text><polygon class="f_181818_e7e7e7 s_181818_e7e7e7" points="55,265.3594,45,269.3594,55,273.3594,51,269.3594" style="stroke-width:1.0;"/><line class="s_181818_e7e7e7" style="stroke-width:1.0;stroke-dasharray:2.0,2.0;" x1="49" x2="378" y1="269.3594" y2="269.3594"/><text class="f_000000_ffffff" font-family="sans-serif" font-size="13" lengthAdjust="spacing" textLength="18" x="61" y="264.2935">OK</text><line class="s_181818_e7e7e7" style="stroke-width:1.0;" x1="221" x2="263" y1="310.125" y2="310.125"/><line class="s_181818_e7e7e7" style="stroke-width:1.0;" x1="263" x2="263" y1="310.125" y2="323.125"/><line class="s_181818_e7e7e7" style="stroke-width:1.0;" x1="222" x2="263" y1="323.125" y2="323.125"/><polygon class="f_181818_e7e7e7 s_181818_e7e7e7" points="232,319.125,222,323.125,232,327.125,228,323.125" style="stroke-width:1.0;"/><text class="f_000000_ffffff" font-family="sans-serif" font-size="13" lengthAdjust="spacing" textLength="123" x="228" y="305.0591">Authorize Domain1</text><path class="f_feffdd_333333 s_181818_e7e7e7" d="M33,282.3594 L33,337.3594 L206,337.3594 L206,292.3594 L196,282.3594 L33,282.3594 " style="stroke-width:0.5;"/><path class="f_feffdd_333333 s_181818_e7e7e7" d="M196,282.3594 L196,292.3594 L206,292.3594 L196,282.3594 " style="stroke-width:0.5;"/><text class="f_000000_ffffff" font-family="sans-serif" font-size="13" lengthAdjust="spacing" textLength="152" x="39" y="299.4263">Authorization fails since</text><text class="f_000000_ffffff" font-family="sans-serif" font-size="13" lengthAdjust="spacing" textLength="137" x="39" y="314.5591">Domain1 is not in the</text><text class="f_000000_ffffff" font-family="sans-serif" font-size="13" lengthAdjust="spacing" textLength="94" x="39" y="329.6919">witnessing list.</text><polygon class="f_181818_e7e7e7 s_181818_e7e7e7" points="60,359.8906,50,363.8906,60,367.8906,56,363.8906" style="stroke-width:1.0;"/><line class="s_181818_e7e7e7" style="stroke-width:1.0;" x1="54" x2="210" y1="363.8906" y2="363.8906"/><text class="f_000000_ffffff" font-family="sans-serif" font-size="13" lengthAdjust="spacing" textLength="91" x="66" y="358.8247">Reject activity</text><polygon class="f_181818_e7e7e7 s_181818_e7e7e7" points="204,389.0234,214,393.0234,204,397.0234,208,393.0234" style="stroke-width:1.0;"/><line class="s_181818_e7e7e7" style="stroke-width:1.0;stroke-dasharray:2.0,2.0;" x1="49" x2="210" y1="393.0234" y2="393.0234"/><text class="f_000000_ffffff" font-family="sans-serif" font-size="13" lengthAdjust="spacing" textLength="18" x="56" y="387.9575">OK</text><line class="s_181818_e7e7e7" style="stroke-width:1.0;" x1="49" x2="91" y1="427.1563" y2="427.1563"/><line class="s_181818_e7e7e7" style="stroke-width:1.0;" x1="91" x2="91" y1="427.1563" y2="440.1563"/><line class="s_181818_e7e7e7" style="stroke-width:1.0;" x1="44" x2="91" y1="440.1563" y2="440.1563"/><polygon class="f_181818_e7e7e7 s_181818_e7e7e7" points="54,436.1563,44,440.1563,54,444.1563,50,440.1563" style="stroke-width:1.0;"/><text class="f_000000_ffffff" font-family="sans-serif" font-size="13" lengthAdjust="spacing" textLength="148" x="56" y="422.0903">Log warning for Reject.</text><line class="s_181818_e7e7e7" style="stroke-width:1.0;" x1="389" x2="431" y1="475.9219" y2="475.9219"/><line class="s_181818_e7e7e7" style="stroke-width:1.0;" x1="431" x2="431" y1="475.9219" y2="488.9219"/><line class="s_181818_e7e7e7" style="stroke-width:1.0;" x1="390" x2="431" y1="488.9219" y2="488.9219"/><polygon class="f_181818_e7e7e7 s_181818_e7e7e7" points="400,484.9219,390,488.9219,400,492.9219,396,488.9219" style="stroke-width:1.0;"/><text class="f_000000_ffffff" font-family="sans-serif" font-size="13" lengthAdjust="spacing" textLength="123" x="396" y="470.856">Authorize Domain1</text><path class="f_feffdd_333333 s_181818_e7e7e7" d="M201,448.1563 L201,503.1563 L374,503.1563 L374,458.1563 L364,448.1563 L201,448.1563 " style="stroke-width:0.5;"/><path class="f_feffdd_333333 s_181818_e7e7e7" d="M364,448.1563 L364,458.1563 L374,458.1563 L364,448.1563 " style="stroke-width:0.5;"/><text class="f_000000_ffffff" font-family="sans-serif" font-size="13" lengthAdjust="spacing" textLength="152" x="207" y="465.2231">Authorization fails since</text><text class="f_000000_ffffff" font-family="sans-serif" font-size="13" lengthAdjust="spacing" textLength="137" x="207" y="480.356">Domain1 is not in the</text><text class="f_000000_ffffff" font-family="sans-serif" font-size="13" lengthAdjust="spacing" textLength="94" x="207" y="495.4888">witnessing list.</text><polygon class="f_181818_e7e7e7 s_181818_e7e7e7" points="60,525.6875,50,529.6875,60,533.6875,56,529.6875" style="stroke-width:1.0;"/><line class="s_181818_e7e7e7" style="stroke-width:1.0;" x1="54" x2="378" y1="529.6875" y2="529.6875"/><text class="f_000000_ffffff" font-family="sans-serif" font-size="13" lengthAdjust="spacing" textLength="91" x="66" y="524.6216">Reject activity</text><polygon class="f_181818_e7e7e7 s_181818_e7e7e7" points="372,554.8203,382,558.8203,372,562.8203,376,558.8203" style="stroke-width:1.0;"/><line class="s_181818_e7e7e7" style="stroke-width:1.0;stroke-dasharray:2.0,2.0;" x1="49" x2="378" y1="558.8203" y2="558.8203"/><text class="f_000000_ffffff" font-family="sans-serif" font-size="13" lengthAdjust="spacing" textLength="18" x="56" y="553.7544">OK</text><line class="s_181818_e7e7e7" style="stroke-width:1.0;" x1="49" x2="91" y1="592.9531" y2="592.9531"/><line class="s_181818_e7e7e7" style="stroke-width:1.0;" x1="91" x2="91" y1="592.9531" y2="605.9531"/><line class="s_181818_e7e7e7" style="stroke-width:1.0;" x1="44" x2="91" y1="605.9531" y2="605.9531"/><polygon class="f_181818_e7e7e7 s_181818_e7e7e7" points="54,601.9531,44,605.9531,54,609.9531,50,605.9531" style="stroke-width:1.0;"/><text class="f_000000_ffffff" font-family="sans-serif" font-size="13" lengthAdjust="spacing" textLength="148" x="56" y="587.8872">Log warning for Reject.</text><!--MD5=[68964662dcf0a64870ccfb38de7767d2]
@startuml
'https://plantuml.com/sequence-diagram

'autonumber

participant Domain1
participant Domain2
participant Domain3

activate Domain1

Domain1 -> Domain2: Offer activity

activate Domain2
Domain2 -> Domain2: Authenticate Domain1\nusing HTTP signature
Domain2 - -> Domain1: OK

Domain1 -> Domain3: Offer activity

activate Domain3
Domain3 -> Domain3: Authenticate Domain1\nusing HTTP signature
Domain3 - -> Domain1: OK

deactivate Domain1

Domain2 -> Domain2: Authorize Domain1

note left
Authorization fails since
Domain1 is not in the
witnessing list.
end note

Domain2 -> Domain1: Reject activity

activate Domain1
Domain1 - -> Domain2: OK
deactivate Domain2
Domain1 -> Domain1: Log warning for Reject.
deactivate Domain1

Domain3 -> Domain3: Authorize Domain1

note left
Authorization fails since
Domain1 is not in the
witnessing list.
end note

Domain3 -> Domain1: Reject activity

activate Domain1
Domain1 - -> Domain3: OK
deactivate Domain3

Domain1 -> Domain1: Log warning for Reject.
deactivate Domain1
@enduml

@startuml


participant Domain1
participant Domain2
participant Domain3

activate Domain1

Domain1 -> Domain2: Offer activity

activate Domain2
Domain2 -> Domain2: Authenticate Domain1\nusing HTTP signature
Domain2 - -> Domain1: OK

Domain1 -> Domain3: Offer activity

activate Domain3
Domain3 -> Domain3: Authenticate Domain1\nusing HTTP signature
Domain3 - -> Domain1: OK

deactivate Domain1

Domain2 -> Domain2: Authorize Domain1

note left
Authorization fails since
Domain1 is not in the
witnessing list.
end note

Domain2 -> Domain1: Reject activity

activate Domain1
Domain1 - -> Domain2: OK
deactivate Domain2
Domain1 -> Domain1: Log warning for Reject.
deactivate Domain1

Domain3 -> Domain3: Authorize Domain1

note left
Authorization fails since
Domain1 is not in the
witnessing list.
end note

Domain3 -> Domain1: Reject activity

activate Domain1
Domain1 - -> Domain3: OK
deactivate Domain3

Domain1 -> Domain1: Log warning for Reject.
deactivate Domain1
@enduml

PlantUML version 1.2022.2beta5(Unknown compile time)
(GPL source distribution)
Java Runtime: Java(TM) SE Runtime Environment
JVM: Java HotSpot(TM) 64-Bit Server VM
Default Encoding: UTF-8
Language: en
Country: US
--></g></svg>