<?xml version="1.0" encoding="UTF-8" standalone="no"?><svg xmlns="http://www.w3.org/2000/svg" xmlns:xlink="http://www.w3.org/1999/xlink" contentStyleType="text/css" height="548px" preserveAspectRatio="none" style="width:412px;height:548px;" version="1.1" viewBox="0 0 412 548" width="412px" zoomAndPan="magnify"><defs><style type="text/css"><![CDATA[*.f_ffffff_000000 {fill:#ffffff;}*.s_181818_e7e7e7 {stroke:#181818;}*.f_000000_ffffff {fill:#000000;}*.f_181818_e7e7e7 {fill:#181818;}@media (prefers-color-scheme:dark) {*.f_ffffff_000000 {fill:#000000;}*.s_181818_e7e7e7 {stroke:#e7e7e7;}*.f_000000_ffffff {fill:#ffffff;}*.f_181818_e7e7e7 {fill:#e7e7e7;}}]]></style></defs><g><rect class="f_ffffff_000000 s_181818_e7e7e7" height="29.1328" style="stroke-width:1.0;" width="10" x="143" y="128.7266"/><rect class="f_ffffff_000000 s_181818_e7e7e7" height="29.1328" style="stroke-width:1.0;" width="10" x="143" y="186.9922"/><rect class="f_ffffff_000000 s_181818_e7e7e7" height="29.1328" style="stroke-width:1.0;" width="10" x="143" y="245.2578"/><rect class="f_ffffff_000000 s_181818_e7e7e7" height="29.1328" style="stroke-width:1.0;" width="10" x="143" y="403.9219"/><rect class="f_ffffff_000000 s_181818_e7e7e7" height="129.5313" style="stroke-width:1.0;" width="10" x="246" y="303.5234"/><line class="s_181818_e7e7e7" style="stroke-width:0.5;stroke-dasharray:5.0,5.0;" x1="41" x2="41" y1="97.5938" y2="451.0547"/><line class="s_181818_e7e7e7" style="stroke-width:0.5;stroke-dasharray:5.0,5.0;" x1="147.5" x2="147.5" y1="97.5938" y2="451.0547"/><line class="s_181818_e7e7e7" style="stroke-width:0.5;stroke-dasharray:5.0,5.0;" x1="250.5" x2="250.5" y1="97.5938" y2="451.0547"/><line class="s_181818_e7e7e7" style="stroke-width:0.5;stroke-dasharray:5.0,5.0;" x1="362.5" x2="362.5" y1="97.5938" y2="451.0547"/><text class="f_000000_ffffff" font-family="sans-serif" font-size="14" lengthAdjust="spacing" textLength="66" x="5" y="77.9951">Publisher</text><text class="f_000000_ffffff" font-family="sans-serif" font-size="14" lengthAdjust="spacing" textLength="43" x="16.5" y="94.292">Client</text><ellipse class="s_181818_e7e7e7" cx="41" cy="13.5" fill="#E2E2F0" rx="8" ry="8" style="stroke-width:0.5;"/><path class="s_181818_e7e7e7" d="M41,21.5 L41,48.5 M28,29.5 L54,29.5 M41,48.5 L28,63.5 M41,48.5 L54,63.5 " fill="none" style="stroke-width:0.5;"/><text class="f_000000_ffffff" font-family="sans-serif" font-size="14" lengthAdjust="spacing" textLength="66" x="5" y="463.0498">Publisher</text><text class="f_000000_ffffff" font-family="sans-serif" font-size="14" lengthAdjust="spacing" textLength="43" x="16.5" y="479.3467">Client</text><ellipse class="s_181818_e7e7e7" cx="41" cy="491.1484" fill="#E2E2F0" rx="8" ry="8" style="stroke-width:0.5;"/><path class="s_181818_e7e7e7" d="M41,499.1484 L41,526.1484 M28,507.1484 L54,507.1484 M41,526.1484 L28,541.1484 M41,526.1484 L54,541.1484 " fill="none" style="stroke-width:0.5;"/><path class="s_181818_e7e7e7" d="M103.5,71.2969 L192.5,71.2969 C197.5,71.2969 197.5,84.4453 197.5,84.4453 C197.5,84.4453 197.5,97.5938 192.5,97.5938 L103.5,97.5938 C98.5,97.5938 98.5,84.4453 98.5,84.4453 C98.5,84.4453 98.5,71.2969 103.5,71.2969 " fill="#E2E2F0" style="stroke-width:0.5;"/><path class="s_181818_e7e7e7" d="M192.5,71.2969 C187.5,71.2969 187.5,84.4453 187.5,84.4453 C187.5,97.5938 192.5,97.5938 192.5,97.5938 " fill="none" style="stroke-width:0.5;"/><text class="f_000000_ffffff" font-family="sans-serif" font-size="14" lengthAdjust="spacing" textLength="79" x="103.5" y="89.292">App Queue</text><path class="s_181818_e7e7e7" d="M103.5,450.0547 L192.5,450.0547 C197.5,450.0547 197.5,463.2031 197.5,463.2031 C197.5,463.2031 197.5,476.3516 192.5,476.3516 L103.5,476.3516 C98.5,476.3516 98.5,463.2031 98.5,463.2031 C98.5,463.2031 98.5,450.0547 103.5,450.0547 " fill="#E2E2F0" style="stroke-width:0.5;"/><path class="s_181818_e7e7e7" d="M192.5,450.0547 C187.5,450.0547 187.5,463.2031 187.5,463.2031 C187.5,476.3516 192.5,476.3516 192.5,476.3516 " fill="none" style="stroke-width:0.5;"/><text class="f_000000_ffffff" font-family="sans-serif" font-size="14" lengthAdjust="spacing" textLength="79" x="103.5" y="468.0498">App Queue</text><rect class="s_181818_e7e7e7" fill="#E2E2F0" height="46.5938" rx="2.5" ry="2.5" style="stroke-width:0.5;" width="87" x="207.5" y="50"/><text class="f_000000_ffffff" font-family="sans-serif" font-size="14" lengthAdjust="spacing" textLength="27" x="237.5" y="69.9951">Orb</text><text class="f_000000_ffffff" font-family="sans-serif" font-size="14" lengthAdjust="spacing" textLength="73" x="214.5" y="86.292">Instance 2</text><rect class="s_181818_e7e7e7" fill="#E2E2F0" height="46.5938" rx="2.5" ry="2.5" style="stroke-width:0.5;" width="87" x="207.5" y="450.0547"/><text class="f_000000_ffffff" font-family="sans-serif" font-size="14" lengthAdjust="spacing" textLength="27" x="237.5" y="470.0498">Orb</text><text class="f_000000_ffffff" font-family="sans-serif" font-size="14" lengthAdjust="spacing" textLength="73" x="214.5" y="486.3467">Instance 2</text><rect class="s_181818_e7e7e7" fill="#E2E2F0" height="46.5938" rx="2.5" ry="2.5" style="stroke-width:0.5;" width="87" x="319.5" y="50"/><text class="f_000000_ffffff" font-family="sans-serif" font-size="14" lengthAdjust="spacing" textLength="27" x="349.5" y="69.9951">Orb</text><text class="f_000000_ffffff" font-family="sans-serif" font-size="14" lengthAdjust="spacing" textLength="73" x="326.5" y="86.292">Instance 2</text><rect class="s_181818_e7e7e7" fill="#E2E2F0" height="46.5938" rx="2.5" ry="2.5" style="stroke-width:0.5;" width="87" x="319.5" y="450.0547"/><text class="f_000000_ffffff" font-family="sans-serif" font-size="14" lengthAdjust="spacing" textLength="27" x="349.5" y="470.0498">Orb</text><text class="f_000000_ffffff" font-family="sans-serif" font-size="14" lengthAdjust="spacing" textLength="73" x="326.5" y="486.3467">Instance 2</text><rect class="f_ffffff_000000 s_181818_e7e7e7" height="29.1328" style="stroke-width:1.0;" width="10" x="143" y="128.7266"/><rect class="f_ffffff_000000 s_181818_e7e7e7" height="29.1328" style="stroke-width:1.0;" width="10" x="143" y="186.9922"/><rect class="f_ffffff_000000 s_181818_e7e7e7" height="29.1328" style="stroke-width:1.0;" width="10" x="143" y="245.2578"/><rect class="f_ffffff_000000 s_181818_e7e7e7" height="29.1328" style="stroke-width:1.0;" width="10" x="143" y="403.9219"/><rect class="f_ffffff_000000 s_181818_e7e7e7" height="129.5313" style="stroke-width:1.0;" width="10" x="246" y="303.5234"/><polygon class="f_181818_e7e7e7 s_181818_e7e7e7" points="164,124.7266,154,128.7266,164,132.7266,160,128.7266" style="stroke-width:1.0;"/><line class="s_181818_e7e7e7" style="stroke-width:1.0;" x1="158" x2="250" y1="128.7266" y2="128.7266"/><text class="f_000000_ffffff" font-family="sans-serif" font-size="13" lengthAdjust="spacing" textLength="61" x="170" y="123.6606">subscribe</text><polygon class="f_181818_e7e7e7 s_181818_e7e7e7" points="239,153.8594,249,157.8594,239,161.8594,243,157.8594" style="stroke-width:1.0;"/><line class="s_181818_e7e7e7" style="stroke-width:1.0;stroke-dasharray:2.0,2.0;" x1="148" x2="245" y1="157.8594" y2="157.8594"/><text class="f_000000_ffffff" font-family="sans-serif" font-size="13" lengthAdjust="spacing" textLength="15" x="155" y="152.7935">ok</text><polygon class="f_181818_e7e7e7 s_181818_e7e7e7" points="164,182.9922,154,186.9922,164,190.9922,160,186.9922" style="stroke-width:1.0;"/><line class="s_181818_e7e7e7" style="stroke-width:1.0;" x1="158" x2="362" y1="186.9922" y2="186.9922"/><text class="f_000000_ffffff" font-family="sans-serif" font-size="13" lengthAdjust="spacing" textLength="61" x="170" y="181.9263">subscribe</text><polygon class="f_181818_e7e7e7 s_181818_e7e7e7" points="351,212.125,361,216.125,351,220.125,355,216.125" style="stroke-width:1.0;"/><line class="s_181818_e7e7e7" style="stroke-width:1.0;stroke-dasharray:2.0,2.0;" x1="148" x2="357" y1="216.125" y2="216.125"/><text class="f_000000_ffffff" font-family="sans-serif" font-size="13" lengthAdjust="spacing" textLength="15" x="155" y="211.0591">ok</text><polygon class="f_181818_e7e7e7 s_181818_e7e7e7" points="131,241.2578,141,245.2578,131,249.2578,135,245.2578" style="stroke-width:1.0;"/><line class="s_181818_e7e7e7" style="stroke-width:1.0;" x1="41" x2="137" y1="245.2578" y2="245.2578"/><text class="f_000000_ffffff" font-family="sans-serif" font-size="13" lengthAdjust="spacing" textLength="83" x="48" y="240.1919">publish(msg)</text><polygon class="f_181818_e7e7e7 s_181818_e7e7e7" points="52,270.3906,42,274.3906,52,278.3906,48,274.3906" style="stroke-width:1.0;"/><line class="s_181818_e7e7e7" style="stroke-width:1.0;stroke-dasharray:2.0,2.0;" x1="46" x2="147" y1="274.3906" y2="274.3906"/><text class="f_000000_ffffff" font-family="sans-serif" font-size="13" lengthAdjust="spacing" textLength="15" x="58" y="269.3247">ok</text><polygon class="f_181818_e7e7e7 s_181818_e7e7e7" points="234,299.5234,244,303.5234,234,307.5234,238,303.5234" style="stroke-width:1.0;"/><line class="s_181818_e7e7e7" style="stroke-width:1.0;" x1="148" x2="240" y1="303.5234" y2="303.5234"/><text class="f_000000_ffffff" font-family="sans-serif" font-size="13" lengthAdjust="spacing" textLength="28" x="155" y="298.4575">msg</text><polygon class="f_181818_e7e7e7 s_181818_e7e7e7" points="159,328.6563,149,332.6563,159,336.6563,155,332.6563" style="stroke-width:1.0;"/><line class="s_181818_e7e7e7" style="stroke-width:1.0;stroke-dasharray:2.0,2.0;" x1="153" x2="245" y1="332.6563" y2="332.6563"/><text class="f_000000_ffffff" font-family="sans-serif" font-size="13" lengthAdjust="spacing" textLength="15" x="165" y="327.5903">ok</text><line class="s_181818_e7e7e7" style="stroke-width:1.0;" x1="256" x2="298" y1="361.7891" y2="361.7891"/><line class="s_181818_e7e7e7" style="stroke-width:1.0;" x1="298" x2="298" y1="361.7891" y2="374.7891"/><line class="s_181818_e7e7e7" style="stroke-width:1.0;" x1="257" x2="298" y1="374.7891" y2="374.7891"/><polygon class="f_181818_e7e7e7 s_181818_e7e7e7" points="267,370.7891,257,374.7891,267,378.7891,263,374.7891" style="stroke-width:1.0;"/><text class="f_000000_ffffff" font-family="sans-serif" font-size="13" lengthAdjust="spacing" textLength="88" x="263" y="356.7231">process(msg)</text><polygon class="f_181818_e7e7e7 s_181818_e7e7e7" points="164,399.9219,154,403.9219,164,407.9219,160,403.9219" style="stroke-width:1.0;"/><line class="s_181818_e7e7e7" style="stroke-width:1.0;" x1="158" x2="245" y1="403.9219" y2="403.9219"/><text class="f_000000_ffffff" font-family="sans-serif" font-size="13" lengthAdjust="spacing" textLength="23" x="170" y="398.856">Ack</text><polygon class="f_181818_e7e7e7 s_181818_e7e7e7" points="239,429.0547,249,433.0547,239,437.0547,243,433.0547" style="stroke-width:1.0;"/><line class="s_181818_e7e7e7" style="stroke-width:1.0;stroke-dasharray:2.0,2.0;" x1="148" x2="245" y1="433.0547" y2="433.0547"/><text class="f_000000_ffffff" font-family="sans-serif" font-size="13" lengthAdjust="spacing" textLength="15" x="155" y="427.9888">ok</text><!--MD5=[b2237b1778ed7b6b25960617687894b2]
@startuml
'https://plantuml.com/sequence-diagram

actor "Publisher\nClient" as client

queue "App Queue" as queue1

participant "Orb\nInstance 2" as service1
participant "Orb\nInstance 2" as service2

service1 -> queue1: subscribe
activate queue1
  queue1 - -> service1: ok
deactivate queue1

service2 -> queue1: subscribe
activate queue1
  queue1 - -> service2: ok
deactivate queue1

client -> queue1: publish(msg)
activate queue1
  queue1 - -> client: ok
deactivate queue1

queue1 -> service1: msg

activate service1
service1 - -> queue1: ok
service1 -> service1: process(msg)

service1 -> queue1: Ack
activate queue1
queue1 - -> service1: ok
deactivate service1

deactivate queue1
@enduml

@startuml

actor "Publisher\nClient" as client

queue "App Queue" as queue1

participant "Orb\nInstance 2" as service1
participant "Orb\nInstance 2" as service2

service1 -> queue1: subscribe
activate queue1
  queue1 - -> service1: ok
deactivate queue1

service2 -> queue1: subscribe
activate queue1
  queue1 - -> service2: ok
deactivate queue1

client -> queue1: publish(msg)
activate queue1
  queue1 - -> client: ok
deactivate queue1

queue1 -> service1: msg

activate service1
service1 - -> queue1: ok
service1 -> service1: process(msg)

service1 -> queue1: Ack
activate queue1
queue1 - -> service1: ok
deactivate service1

deactivate queue1
@enduml

PlantUML version 1.2022.2beta5(Unknown compile time)
(GPL source distribution)
Java Runtime: Java(TM) SE Runtime Environment
JVM: Java HotSpot(TM) 64-Bit Server VM
Default Encoding: UTF-8
Language: en
Country: US
--></g></svg>