<?xml version="1.0" encoding="UTF-8" standalone="no"?><svg xmlns="http://www.w3.org/2000/svg" xmlns:xlink="http://www.w3.org/1999/xlink" contentScriptType="application/ecmascript" contentStyleType="text/css" height="508px" preserveAspectRatio="none" style="width:892px;height:508px;background:#FFFFFF;" version="1.1" viewBox="0 0 892 508" width="892px" zoomAndPan="magnify"><defs><filter height="300%" id="f1m1iw7xo04xqc" width="300%" x="-1" y="-1"><feGaussianBlur result="blurOut" stdDeviation="2.0"/><feColorMatrix in="blurOut" result="blurOut2" type="matrix" values="0 0 0 0 0 0 0 0 0 0 0 0 0 0 0 0 0 0 .4 0"/><feOffset dx="4.0" dy="4.0" in="blurOut2" result="blurOut3"/><feBlend in="SourceGraphic" in2="blurOut3" mode="normal"/></filter></defs><g><!--MD5=[09cebf8940f732fa2133abd0579f057b]
cluster Domain1--><rect fill="#FFFFFF" filter="url(#f1m1iw7xo04xqc)" height="489" style="stroke:#000000;stroke-width:1.5;" width="701" x="7" y="7"/><path d="M88,7 L88,16.2969 L78,26.2969 L7,26.2969 " fill="none" style="stroke:#000000;stroke-width:1.5;"/><text fill="#000000" font-family="sans-serif" font-size="14" font-weight="bold" lengthAdjust="spacing" textLength="71" x="10" y="20.9951">Domain1</text><!--MD5=[e7bb1ce819be22e00281b07453b4636a]
cluster VCT--><rect fill="#FFFFFF" filter="url(#f1m1iw7xo04xqc)" height="350.5" style="stroke:#000000;stroke-width:1.5;" width="354" x="31" y="121.5"/><path d="M73,121.5 L73,130.7969 L63,140.7969 L31,140.7969 " fill="none" style="stroke:#000000;stroke-width:1.5;"/><text fill="#000000" font-family="sans-serif" font-size="14" font-weight="bold" lengthAdjust="spacing" textLength="32" x="34" y="135.4951">VCT</text><!--MD5=[d67631dab7f8d9d7e82207d41f22d56e]
entity orbdb--><path d="M419.5,404 C419.5,394 496,394 496,394 C496,394 572.5,394 572.5,404 L572.5,445.5938 C572.5,455.5938 496,455.5938 496,455.5938 C496,455.5938 419.5,455.5938 419.5,445.5938 L419.5,404 " fill="#FEFECE" filter="url(#f1m1iw7xo04xqc)" style="stroke:#000000;stroke-width:1.5;"/><path d="M419.5,404 C419.5,414 496,414 496,414 C496,414 572.5,414 572.5,404 " fill="none" style="stroke:#000000;stroke-width:1.5;"/><text fill="#000000" font-family="sans-serif" font-size="14" lengthAdjust="spacing" textLength="133" x="429.5" y="430.9951">AWS DocumentDB</text><text fill="#000000" font-family="sans-serif" font-size="14" lengthAdjust="spacing" textLength="69" x="429.5" y="447.292">MongoDB</text><!--MD5=[da9ddd925abb6ab6ff4457f497e7de3b]
entity orb1--><rect fill="#FEFECE" filter="url(#f1m1iw7xo04xqc)" height="46.2969" style="stroke:#A80036;stroke-width:1.5;" width="67" x="571.5" y="42"/><rect fill="#FEFECE" height="10" style="stroke:#A80036;stroke-width:1.5;" width="15" x="618.5" y="47"/><rect fill="#FEFECE" height="2" style="stroke:#A80036;stroke-width:1.5;" width="4" x="616.5" y="49"/><rect fill="#FEFECE" height="2" style="stroke:#A80036;stroke-width:1.5;" width="4" x="616.5" y="53"/><text fill="#000000" font-family="sans-serif" font-size="14" lengthAdjust="spacing" textLength="27" x="586.5" y="74.9951">Orb</text><!--MD5=[c18b59ba149be49dee2e712c1ad1eaff]
entity rest1--><ellipse cx="683" cy="65" fill="#FEFECE" filter="url(#f1m1iw7xo04xqc)" rx="8" ry="8" style="stroke:#A80036;stroke-width:1.5;"/><text fill="#000000" font-family="sans-serif" font-size="14" lengthAdjust="spacing" textLength="46" x="660" y="94.9951">HTTPS</text><!--MD5=[db2b32c9320867cbbbdda186e73c54cc]
entity amqp--><rect fill="#FEFECE" filter="url(#f1m1iw7xo04xqc)" height="62.5938" style="stroke:#A80036;stroke-width:1.5;" width="112" x="438" y="148"/><rect fill="#FEFECE" height="10" style="stroke:#A80036;stroke-width:1.5;" width="15" x="530" y="153"/><rect fill="#FEFECE" height="2" style="stroke:#A80036;stroke-width:1.5;" width="4" x="528" y="155"/><rect fill="#FEFECE" height="2" style="stroke:#A80036;stroke-width:1.5;" width="4" x="528" y="159"/><text fill="#000000" font-family="sans-serif" font-size="14" lengthAdjust="spacing" textLength="42" x="453" y="180.9951">AMQP</text><text fill="#000000" font-family="sans-serif" font-size="14" lengthAdjust="spacing" textLength="72" x="453" y="197.292">RabbitMQ</text><!--MD5=[d73fd630ced0fe73a4ad473b74a33a42]
entity ipfs--><rect fill="#FEFECE" filter="url(#f1m1iw7xo04xqc)" height="46.2969" style="stroke:#A80036;stroke-width:1.5;" width="70" x="585" y="156.5"/><rect fill="#FEFECE" height="10" style="stroke:#A80036;stroke-width:1.5;" width="15" x="635" y="161.5"/><rect fill="#FEFECE" height="2" style="stroke:#A80036;stroke-width:1.5;" width="4" x="633" y="163.5"/><rect fill="#FEFECE" height="2" style="stroke:#A80036;stroke-width:1.5;" width="4" x="633" y="167.5"/><text fill="#000000" font-family="sans-serif" font-size="14" lengthAdjust="spacing" textLength="30" x="600" y="189.4951">IPFS</text><!--MD5=[f141b8d23c47a078a0c2dc56c0ec508d]
entity kms--><rect fill="#FEFECE" filter="url(#f1m1iw7xo04xqc)" height="46.2969" style="stroke:#A80036;stroke-width:1.5;" width="148" x="492" y="279.5"/><rect fill="#FEFECE" height="10" style="stroke:#A80036;stroke-width:1.5;" width="15" x="620" y="284.5"/><rect fill="#FEFECE" height="2" style="stroke:#A80036;stroke-width:1.5;" width="4" x="618" y="286.5"/><rect fill="#FEFECE" height="2" style="stroke:#A80036;stroke-width:1.5;" width="4" x="618" y="290.5"/><text fill="#000000" font-family="sans-serif" font-size="14" lengthAdjust="spacing" textLength="108" x="507" y="312.4951">Aries Web KMS</text><!--MD5=[f2fbfbe476ce02d5477f243163075997]
entity vct--><rect fill="#FEFECE" filter="url(#f1m1iw7xo04xqc)" height="46.2969" style="stroke:#A80036;stroke-width:1.5;" width="69" x="243.5" y="156.5"/><rect fill="#FEFECE" height="10" style="stroke:#A80036;stroke-width:1.5;" width="15" x="292.5" y="161.5"/><rect fill="#FEFECE" height="2" style="stroke:#A80036;stroke-width:1.5;" width="4" x="290.5" y="163.5"/><rect fill="#FEFECE" height="2" style="stroke:#A80036;stroke-width:1.5;" width="4" x="290.5" y="167.5"/><text fill="#000000" font-family="sans-serif" font-size="14" lengthAdjust="spacing" textLength="29" x="258.5" y="189.4951">VCT</text><!--MD5=[43d2a4e855be7e8c0c8e391d7b05c3f4]
entity vct_log--><rect fill="#FEFECE" filter="url(#f1m1iw7xo04xqc)" height="62.5938" style="stroke:#A80036;stroke-width:1.5;" width="143" x="47.5" y="271"/><rect fill="#FEFECE" height="10" style="stroke:#A80036;stroke-width:1.5;" width="15" x="170.5" y="276"/><rect fill="#FEFECE" height="2" style="stroke:#A80036;stroke-width:1.5;" width="4" x="168.5" y="278"/><rect fill="#FEFECE" height="2" style="stroke:#A80036;stroke-width:1.5;" width="4" x="168.5" y="282"/><text fill="#000000" font-family="sans-serif" font-size="14" lengthAdjust="spacing" textLength="59" x="62.5" y="303.9951">VCT Log</text><text fill="#000000" font-family="sans-serif" font-size="14" lengthAdjust="spacing" textLength="103" x="62.5" y="320.292">Google Trillian</text><!--MD5=[6c7961e3b16ae1ceddb6de6b49c7a981]
entity vct_signer--><rect fill="#FEFECE" filter="url(#f1m1iw7xo04xqc)" height="62.5938" style="stroke:#A80036;stroke-width:1.5;" width="143" x="225.5" y="271"/><rect fill="#FEFECE" height="10" style="stroke:#A80036;stroke-width:1.5;" width="15" x="348.5" y="276"/><rect fill="#FEFECE" height="2" style="stroke:#A80036;stroke-width:1.5;" width="4" x="346.5" y="278"/><rect fill="#FEFECE" height="2" style="stroke:#A80036;stroke-width:1.5;" width="4" x="346.5" y="282"/><text fill="#000000" font-family="sans-serif" font-size="14" lengthAdjust="spacing" textLength="79" x="240.5" y="303.9951">VCT Signer</text><text fill="#000000" font-family="sans-serif" font-size="14" lengthAdjust="spacing" textLength="103" x="240.5" y="320.292">Google Trillian</text><!--MD5=[673484195135c08ddadbe04df07d5f98]
entity vctdb--><path d="M156,404 C156,394 208,394 208,394 C208,394 260,394 260,404 L260,445.5938 C260,455.5938 208,455.5938 208,455.5938 C208,455.5938 156,455.5938 156,445.5938 L156,404 " fill="#FEFECE" filter="url(#f1m1iw7xo04xqc)" style="stroke:#000000;stroke-width:1.5;"/><path d="M156,404 C156,414 208,414 208,414 C208,414 260,414 260,404 " fill="none" style="stroke:#000000;stroke-width:1.5;"/><text fill="#000000" font-family="sans-serif" font-size="14" lengthAdjust="spacing" textLength="84" x="166" y="430.9951">PostgreSQL</text><text fill="#000000" font-family="sans-serif" font-size="14" lengthAdjust="spacing" textLength="48" x="166" y="447.292">MySQL</text><!--MD5=[9a187b14aadfe2445e750cc8ca448c6d]
entity vct_rest--><ellipse cx="357" cy="179.5" fill="#FEFECE" filter="url(#f1m1iw7xo04xqc)" rx="8" ry="8" style="stroke:#A80036;stroke-width:1.5;"/><text fill="#000000" font-family="sans-serif" font-size="14" lengthAdjust="spacing" textLength="46" x="334" y="209.4951">HTTPS</text><!--MD5=[68ee199d46f3ce3c48339370f100a1e5]
entity domain2--><path d="M797.8558,289.6178 C801.6328,282.3454 806.0181,281.136 811.8656,287.489 C814.9916,281.0084 820.1872,280.3522 825.0285,285.5568 C828.6776,279.5593 833.078,278.781 837.5518,284.6894 C842.2304,279.2671 847.0902,281.6251 848.8567,287.5823 C852.8876,281.468 858.0018,282.2472 861.6884,287.9559 C865.5185,282.3781 871.9779,282.3525 874.8549,288.9836 C882.121,293.6104 882.0109,298.2338 876.1925,304.0242 C882.1846,308.0697 883.899,314.5987 876.0478,318.5059 C872.6071,325.2215 868.2383,326.6251 862.817,320.5556 C860.6251,326.663 854.6494,329.185 849.7989,323.4873 C846.316,330.8663 841.8405,332.4151 836.1226,325.648 C830.9731,331.0059 827.3636,330.0723 824.706,323.3022 C819.4871,329.8318 814.1187,327.3093 811.1485,320.939 C806.9553,326.6868 801.9782,326.617 798.8662,319.8757 C790.0715,316.8122 789.6873,310.3821 796.0161,304.5129 C790.1795,298.6284 789.477,293.7466 797.8558,289.6178 " fill="#FEFECE" filter="url(#f1m1iw7xo04xqc)" style="stroke:#000000;stroke-width:1.5;"/><text fill="#000000" font-family="sans-serif" font-size="14" lengthAdjust="spacing" textLength="63" x="804.5" y="307.4951">Domain2</text><!--MD5=[fd7328753abf7908d775959b6a79cb2d]
entity rest2--><ellipse cx="745" cy="302.5" fill="#FEFECE" filter="url(#f1m1iw7xo04xqc)" rx="8" ry="8" style="stroke:#A80036;stroke-width:1.5;"/><text fill="#000000" font-family="sans-serif" font-size="14" lengthAdjust="spacing" textLength="46" x="722" y="332.4951">HTTPS</text><!--MD5=[de459b4515f3b440caf8e354e9d5f652]
entity domain3--><path d="M733.2848,411.2422 C736.6913,405.2222 741.7778,404.798 746.2648,409.9914 C750.1155,402.5682 754.5452,403.2754 759.4916,408.8788 C762.6267,402.741 768.6695,401.4549 773.0234,407.5281 C777.2839,403.5765 781.6492,403.5556 784.2709,409.4082 C788.9527,404.1287 793.5909,403.3408 797.2357,410.49 C802.6609,403.414 807.934,403.5954 811.7428,412.0043 C818.0059,415.6676 817.5563,422.5038 811.2825,425.7472 C818.1422,430.0456 818.4352,436.0842 811.9589,440.9749 C809.333,447.7954 803.4268,448.6808 799.0614,442.7319 C795.2363,450.2351 790.3675,451.3464 784.2406,445.2384 C782.3623,450.5799 777.0128,453.0236 772.9165,447.5637 C767.0803,453.7683 762.1226,452.9023 758.6133,445.1747 C754.2255,451.6567 748.8427,450.2168 745.1772,444.3866 C740.496,449.391 734.8958,448.5466 733.4044,441.3171 C723.6807,440.3977 720.3849,434.637 725.2937,425.9797 C721.9775,417.934 724.0923,412.5053 733.2848,411.2422 " fill="#FEFECE" filter="url(#f1m1iw7xo04xqc)" style="stroke:#000000;stroke-width:1.5;"/><text fill="#000000" font-family="sans-serif" font-size="14" lengthAdjust="spacing" textLength="64" x="739" y="429.9951">Domain3</text><!--MD5=[98ffb7722e6de6cdf870d33bfbb7236e]
entity rest3--><ellipse cx="862" cy="425" fill="#FEFECE" filter="url(#f1m1iw7xo04xqc)" rx="8" ry="8" style="stroke:#A80036;stroke-width:1.5;"/><text fill="#000000" font-family="sans-serif" font-size="14" lengthAdjust="spacing" textLength="46" x="839" y="454.9951">HTTPS</text><!--MD5=[9ae847914c95faf755d332c356880d1c]
link orb1 to orbdb--><path d="M571.404,69.736 C523.257,75.861 438.393,89.788 420,113.5 C355.392,196.792 428.495,327.417 470.524,389.284 " fill="none" id="orb1-to-orbdb" style="stroke:#A80036;stroke-width:1.0;"/><polygon fill="#A80036" points="473.494,393.618,471.7047,383.933,470.667,389.4939,465.1061,388.4563,473.494,393.618" style="stroke:#A80036;stroke-width:1.0;"/><!--MD5=[fc5e9795bcdca8c9a285281afa75aa5a]
link orb1 to rest1--><path d="M638.516,65 C650.332,65 662.148,65 673.964,65 " fill="none" id="orb1-rest1" style="stroke:#A80036;stroke-width:1.0;"/><!--MD5=[52b5ee74e2ae998fa7cc7cb5c140764a]
link orb1 to amqp--><path d="M583.07,88.226 C567.314,104.195 545.777,126.024 527.827,144.216 " fill="none" id="orb1-to-amqp" style="stroke:#A80036;stroke-width:1.0;"/><polygon fill="#A80036" points="524.288,147.803,533.4566,144.2063,527.7999,144.244,527.7622,138.5872,524.288,147.803" style="stroke:#A80036;stroke-width:1.0;"/><!--MD5=[7b9b264c1151c36c2376a6ffe826efad]
link kms to orbdb--><path d="M553.161,325.602 C542.813,343.415 528.075,368.785 516.156,389.303 " fill="none" id="kms-to-orbdb" style="stroke:#A80036;stroke-width:1.0;"/><polygon fill="#A80036" points="513.503,393.87,521.4819,388.0962,516.0141,389.5463,514.564,384.0785,513.503,393.87" style="stroke:#A80036;stroke-width:1.0;"/><!--MD5=[f41f22365c531796310ac099414b3b7c]
link orb1 to kms--><path d="M638.845,81.342 C651.658,89.033 664.864,99.693 672,113.5 C691.897,151.995 690.145,171.649 672,211 C659.218,238.72 633.294,261.096 610.284,276.664 " fill="none" id="orb1-to-kms" style="stroke:#A80036;stroke-width:1.0;"/><polygon fill="#A80036" points="606.025,279.491,615.7354,277.8454,610.1905,276.7254,611.3105,271.1805,606.025,279.491" style="stroke:#A80036;stroke-width:1.0;"/><!--MD5=[a3d30a16d9984b519c29598295226bde]
link orb1 to ipfs--><path d="M607.964,88.226 C610.367,106.254 613.767,131.751 616.34,151.052 " fill="none" id="orb1-to-ipfs" style="stroke:#A80036;stroke-width:1.0;stroke-dasharray:7.0,7.0;"/><polygon fill="#A80036" points="617.043,156.32,619.8172,146.8699,616.3815,151.3639,611.8875,147.9283,617.043,156.32" style="stroke:#A80036;stroke-width:1.0;"/><!--MD5=[cd9c3f311f043d62c70f4b2111240c75]
link vct to vct_rest--><path d="M312.562,179.5 C324.366,179.5 336.17,179.5 347.974,179.5 " fill="none" id="vct-vct_rest" style="stroke:#A80036;stroke-width:1.0;"/><!--MD5=[8e23453b8f21c25d249e254e93cd0b45]
link vct to vct_log--><path d="M248.837,202.693 C225.009,220.826 190.932,246.759 163.668,267.507 " fill="none" id="vct-to-vct_log" style="stroke:#A80036;stroke-width:1.0;"/><polygon fill="#A80036" points="159.354,270.791,168.9386,268.5247,163.3332,267.7634,164.0944,262.158,159.354,270.791" style="stroke:#A80036;stroke-width:1.0;"/><!--MD5=[24c39599ffd372180808af11f01876f5]
link vct to vct_signer--><path d="M281.485,202.693 C284.25,220.304 288.171,245.271 291.379,265.701 " fill="none" id="vct-to-vct_signer" style="stroke:#A80036;stroke-width:1.0;"/><polygon fill="#A80036" points="292.178,270.791,294.7334,261.2794,291.4024,265.8515,286.8303,262.5205,292.178,270.791" style="stroke:#A80036;stroke-width:1.0;"/><!--MD5=[8320ea271ba71440d910bab419504a00]
link vct_log to vctdb--><path d="M141.689,334.219 C154.128,351.061 169.588,371.992 182.45,389.407 " fill="none" id="vct_log-to-vctdb" style="stroke:#A80036;stroke-width:1.0;"/><polygon fill="#A80036" points="185.661,393.754,183.5318,384.138,182.6906,389.732,177.0966,388.8907,185.661,393.754" style="stroke:#A80036;stroke-width:1.0;"/><!--MD5=[33badaeaba0a15a38281f8e13bbd3f4c]
link vct_signer to vctdb--><path d="M274.311,334.219 C261.872,351.061 246.412,371.992 233.55,389.407 " fill="none" id="vct_signer-to-vctdb" style="stroke:#A80036;stroke-width:1.0;"/><polygon fill="#A80036" points="230.339,393.754,238.9034,388.8907,233.3094,389.732,232.4682,384.138,230.339,393.754" style="stroke:#A80036;stroke-width:1.0;"/><!--MD5=[54c5942ccaa746320f368d45bf762ad6]
link orb1 to vct_rest--><path d="M571.306,68.299 C513.241,72.969 397.859,85.584 370,113.5 C356.508,127.02 355.046,150.33 355.687,165.053 " fill="none" id="orb1-to-vct_rest" style="stroke:#A80036;stroke-width:1.0;"/><polygon fill="#A80036" points="356.029,170.419,359.4475,161.1824,355.7104,165.4292,351.4637,161.6921,356.029,170.419" style="stroke:#A80036;stroke-width:1.0;"/><!--MD5=[969850586299010ff16630eca9dd981e]
link rest2 to domain2--><path d="M754.242,302.5 C765.952,302.5 777.662,302.5 789.372,302.5 " fill="none" id="rest2-domain2" style="stroke:#A80036;stroke-width:1.0;"/><!--MD5=[0e2626071656d308733b890596dfb262]
link domain3 to rest3--><path d="M818.277,425 C829.777,425 841.277,425 852.777,425 " fill="none" id="domain3-rest3" style="stroke:#A80036;stroke-width:1.0;"/><!--MD5=[0b522532cf907099069cd3b9af83d349]
link orb1 to rest2--><path d="M638.835,81.876 C658.978,91.93 681.952,104.656 689,113.5 C732.336,167.883 742.168,255.115 744.372,288.197 " fill="none" id="orb1-to-rest2" style="stroke:#A80036;stroke-width:1.0;"/><polygon fill="#A80036" points="744.683,293.378,748.1357,284.1542,744.3829,288.387,740.1501,284.6343,744.683,293.378" style="stroke:#A80036;stroke-width:1.0;"/><!--MD5=[0e0cc88cce17ba09297ea309bef87ba1]
link domain2 to rest1--><path d="M827.482,279.406 C812.652,242.626 779.56,167.55 737,113.5 C725.167,98.473 708.16,84.422 696.408,75.559 " fill="none" id="domain2-to-rest1" style="stroke:#A80036;stroke-width:1.0;"/><polygon fill="#A80036" points="692.335,72.536,697.1787,81.1115,696.3502,75.5156,701.9461,74.6872,692.335,72.536" style="stroke:#A80036;stroke-width:1.0;"/><!--MD5=[2d7624cd3a6827128ff3bc95d78ca235]
link domain2 to rest3--><path d="M840.769,325.602 C846.152,350.55 854.734,390.323 859.157,410.825 " fill="none" id="domain2-to-rest3" style="stroke:#A80036;stroke-width:1.0;"/><polygon fill="#A80036" points="860.238,415.8359,862.2502,406.1948,859.1836,410.9483,854.4301,407.8818,860.238,415.8359" style="stroke:#A80036;stroke-width:1.0;"/><!--MD5=[20d3bdb74505f8ca7797a23b1446064a]
@startuml
'https://plantuml.com/component-diagram

'!theme materia

frame "Domain1" {
  database "AWS DocumentDB\nMongoDB" as orbdb

  component Orb as orb1

  orb1 - -> orbdb

  interface "HTTPS" as rest1

  orb1 - rest1

  component "AMQP\nRabbitMQ" as amqp

  orb1 - -> amqp

  component "IPFS" as ipfs

  component "Aries Web KMS" as kms

  kms - -> orbdb

  orb1 - - -> kms

  orb1 ..> ipfs

  frame "VCT" {
    component "VCT" as vct
    component "VCT Log\nGoogle Trillian" as vct_log

    component "VCT Signer\nGoogle Trillian" as vct_signer

    database "PostgreSQL\nMySQL" as vctdb

    interface "HTTPS" as vct_rest
    vct - vct_rest

    vct - -> vct_log
    vct - -> vct_signer
    vct_log - -> vctdb
    vct_signer - -> vctdb
  }

  orb1 - -> vct_rest
}

cloud "Domain2" as domain2

interface "HTTPS" as rest2

domain2 -left- rest2

cloud Domain3 as domain3

interface "HTTPS" as rest3

domain3 -right- rest3

orb1 - - -> rest2
domain2 - -> rest1
domain2 - -> rest3
@enduml

@startuml


frame "Domain1" {
  database "AWS DocumentDB\nMongoDB" as orbdb

  component Orb as orb1

  orb1 - -> orbdb

  interface "HTTPS" as rest1

  orb1 - rest1

  component "AMQP\nRabbitMQ" as amqp

  orb1 - -> amqp

  component "IPFS" as ipfs

  component "Aries Web KMS" as kms

  kms - -> orbdb

  orb1 - - -> kms

  orb1 ..> ipfs

  frame "VCT" {
    component "VCT" as vct
    component "VCT Log\nGoogle Trillian" as vct_log

    component "VCT Signer\nGoogle Trillian" as vct_signer

    database "PostgreSQL\nMySQL" as vctdb

    interface "HTTPS" as vct_rest
    vct - vct_rest

    vct - -> vct_log
    vct - -> vct_signer
    vct_log - -> vctdb
    vct_signer - -> vctdb
  }

  orb1 - -> vct_rest
}

cloud "Domain2" as domain2

interface "HTTPS" as rest2

domain2 -left- rest2

cloud Domain3 as domain3

interface "HTTPS" as rest3

domain3 -right- rest3

orb1 - - -> rest2
domain2 - -> rest1
domain2 - -> rest3
@enduml

PlantUML version 1.2022.1beta3(Unknown compile time)
(GPL source distribution)
Java Runtime: Java(TM) SE Runtime Environment
JVM: Java HotSpot(TM) 64-Bit Server VM
Default Encoding: UTF-8
Language: en
Country: US
--></g></svg>