<?xml version="1.0" encoding="UTF-8" standalone="no"?><svg xmlns="http://www.w3.org/2000/svg" xmlns:xlink="http://www.w3.org/1999/xlink" contentStyleType="text/css" height="502px" preserveAspectRatio="none" style="width:902px;height:502px;" version="1.1" viewBox="0 0 902 502" width="902px" zoomAndPan="magnify"><defs><style type="text/css"><![CDATA[*.s_181818_e7e7e7 {stroke:#181818;}*.f_000000_ffffff {fill:#000000;}*.f_f1f1f1_070707 {fill:#f1f1f1;}*.f_181818_e7e7e7 {fill:#181818;}@media (prefers-color-scheme:dark) {*.s_181818_e7e7e7 {stroke:#e7e7e7;}*.f_000000_ffffff {fill:#ffffff;}*.f_f1f1f1_070707 {fill:#070707;}*.f_181818_e7e7e7 {fill:#e7e7e7;}}]]></style></defs><g><!--MD5=[09cebf8940f732fa2133abd0579f057b]
cluster Domain1--><rect class="s_181818_e7e7e7" height="489" style="stroke-width:1.0;fill:none;" width="701" x="7" y="7"/><path class="s_181818_e7e7e7" d="M88,7 L88,16.2969 L78,26.2969 L7,26.2969 " fill="none" style="stroke-width:1.0;"/><text class="f_000000_ffffff" font-family="sans-serif" font-size="14" font-weight="bold" lengthAdjust="spacing" textLength="71" x="10" y="20.9951">Domain1</text><!--MD5=[e7bb1ce819be22e00281b07453b4636a]
cluster VCT--><rect class="s_181818_e7e7e7" height="350.5" style="stroke-width:1.0;fill:none;" width="354" x="31" y="121.5"/><path class="s_181818_e7e7e7" d="M73,121.5 L73,130.7969 L63,140.7969 L31,140.7969 " fill="none" style="stroke-width:1.0;"/><text class="f_000000_ffffff" font-family="sans-serif" font-size="14" font-weight="bold" lengthAdjust="spacing" textLength="32" x="34" y="135.4951">VCT</text><!--MD5=[d67631dab7f8d9d7e82207d41f22d56e]
entity orbdb--><path class="f_f1f1f1_070707 s_181818_e7e7e7" d="M419.5,404 C419.5,394 496,394 496,394 C496,394 572.5,394 572.5,404 L572.5,445.5938 C572.5,455.5938 496,455.5938 496,455.5938 C496,455.5938 419.5,455.5938 419.5,445.5938 L419.5,404 " style="stroke-width:0.5;"/><path class="s_181818_e7e7e7" d="M419.5,404 C419.5,414 496,414 496,414 C496,414 572.5,414 572.5,404 " fill="none" style="stroke-width:0.5;"/><text class="f_000000_ffffff" font-family="sans-serif" font-size="14" lengthAdjust="spacing" textLength="133" x="429.5" y="430.9951">AWS DocumentDB</text><text class="f_000000_ffffff" font-family="sans-serif" font-size="14" lengthAdjust="spacing" textLength="69" x="429.5" y="447.292">MongoDB</text><!--MD5=[da9ddd925abb6ab6ff4457f497e7de3b]
entity orb1--><rect class="f_f1f1f1_070707 s_181818_e7e7e7" height="46.2969" rx="2.5" ry="2.5" style="stroke-width:0.5;" width="67" x="571.5" y="42"/><rect class="f_f1f1f1_070707 s_181818_e7e7e7" height="10" style="stroke-width:0.5;" width="15" x="618.5" y="47"/><rect class="f_f1f1f1_070707 s_181818_e7e7e7" height="2" style="stroke-width:0.5;" width="4" x="616.5" y="49"/><rect class="f_f1f1f1_070707 s_181818_e7e7e7" height="2" style="stroke-width:0.5;" width="4" x="616.5" y="53"/><text class="f_000000_ffffff" font-family="sans-serif" font-size="14" lengthAdjust="spacing" textLength="27" x="586.5" y="74.9951">Orb</text><!--MD5=[c18b59ba149be49dee2e712c1ad1eaff]
entity rest1--><ellipse class="f_f1f1f1_070707 s_181818_e7e7e7" cx="683" cy="65" rx="8" ry="8" style="stroke-width:0.5;"/><text class="f_000000_ffffff" font-family="sans-serif" font-size="14" lengthAdjust="spacing" textLength="46" x="660" y="94.9951">HTTPS</text><!--MD5=[db2b32c9320867cbbbdda186e73c54cc]
entity amqp--><rect class="f_f1f1f1_070707 s_181818_e7e7e7" height="62.5938" rx="2.5" ry="2.5" style="stroke-width:0.5;" width="112" x="438" y="148"/><rect class="f_f1f1f1_070707 s_181818_e7e7e7" height="10" style="stroke-width:0.5;" width="15" x="530" y="153"/><rect class="f_f1f1f1_070707 s_181818_e7e7e7" height="2" style="stroke-width:0.5;" width="4" x="528" y="155"/><rect class="f_f1f1f1_070707 s_181818_e7e7e7" height="2" style="stroke-width:0.5;" width="4" x="528" y="159"/><text class="f_000000_ffffff" font-family="sans-serif" font-size="14" lengthAdjust="spacing" textLength="42" x="453" y="180.9951">AMQP</text><text class="f_000000_ffffff" font-family="sans-serif" font-size="14" lengthAdjust="spacing" textLength="72" x="453" y="197.292">RabbitMQ</text><!--MD5=[d73fd630ced0fe73a4ad473b74a33a42]
entity ipfs--><rect class="f_f1f1f1_070707 s_181818_e7e7e7" height="46.2969" rx="2.5" ry="2.5" style="stroke-width:0.5;" width="70" x="585" y="156.5"/><rect class="f_f1f1f1_070707 s_181818_e7e7e7" height="10" style="stroke-width:0.5;" width="15" x="635" y="161.5"/><rect class="f_f1f1f1_070707 s_181818_e7e7e7" height="2" style="stroke-width:0.5;" width="4" x="633" y="163.5"/><rect class="f_f1f1f1_070707 s_181818_e7e7e7" height="2" style="stroke-width:0.5;" width="4" x="633" y="167.5"/><text class="f_000000_ffffff" font-family="sans-serif" font-size="14" lengthAdjust="spacing" textLength="30" x="600" y="189.4951">IPFS</text><!--MD5=[f141b8d23c47a078a0c2dc56c0ec508d]
entity kms--><rect class="f_f1f1f1_070707 s_181818_e7e7e7" height="46.2969" rx="2.5" ry="2.5" style="stroke-width:0.5;" width="148" x="492" y="279.5"/><rect class="f_f1f1f1_070707 s_181818_e7e7e7" height="10" style="stroke-width:0.5;" width="15" x="620" y="284.5"/><rect class="f_f1f1f1_070707 s_181818_e7e7e7" height="2" style="stroke-width:0.5;" width="4" x="618" y="286.5"/><rect class="f_f1f1f1_070707 s_181818_e7e7e7" height="2" style="stroke-width:0.5;" width="4" x="618" y="290.5"/><text class="f_000000_ffffff" font-family="sans-serif" font-size="14" lengthAdjust="spacing" textLength="108" x="507" y="312.4951">Aries Web KMS</text><!--MD5=[f2fbfbe476ce02d5477f243163075997]
entity vct--><rect class="f_f1f1f1_070707 s_181818_e7e7e7" height="46.2969" rx="2.5" ry="2.5" style="stroke-width:0.5;" width="69" x="243.5" y="156.5"/><rect class="f_f1f1f1_070707 s_181818_e7e7e7" height="10" style="stroke-width:0.5;" width="15" x="292.5" y="161.5"/><rect class="f_f1f1f1_070707 s_181818_e7e7e7" height="2" style="stroke-width:0.5;" width="4" x="290.5" y="163.5"/><rect class="f_f1f1f1_070707 s_181818_e7e7e7" height="2" style="stroke-width:0.5;" width="4" x="290.5" y="167.5"/><text class="f_000000_ffffff" font-family="sans-serif" font-size="14" lengthAdjust="spacing" textLength="29" x="258.5" y="189.4951">VCT</text><!--MD5=[43d2a4e855be7e8c0c8e391d7b05c3f4]
entity vct_log--><rect class="f_f1f1f1_070707 s_181818_e7e7e7" height="62.5938" rx="2.5" ry="2.5" style="stroke-width:0.5;" width="143" x="47.5" y="271"/><rect class="f_f1f1f1_070707 s_181818_e7e7e7" height="10" style="stroke-width:0.5;" width="15" x="170.5" y="276"/><rect class="f_f1f1f1_070707 s_181818_e7e7e7" height="2" style="stroke-width:0.5;" width="4" x="168.5" y="278"/><rect class="f_f1f1f1_070707 s_181818_e7e7e7" height="2" style="stroke-width:0.5;" width="4" x="168.5" y="282"/><text class="f_000000_ffffff" font-family="sans-serif" font-size="14" lengthAdjust="spacing" textLength="59" x="62.5" y="303.9951">VCT Log</text><text class="f_000000_ffffff" font-family="sans-serif" font-size="14" lengthAdjust="spacing" textLength="103" x="62.5" y="320.292">Google Trillian</text><!--MD5=[6c7961e3b16ae1ceddb6de6b49c7a981]
entity vct_signer--><rect class="f_f1f1f1_070707 s_181818_e7e7e7" height="62.5938" rx="2.5" ry="2.5" style="stroke-width:0.5;" width="143" x="225.5" y="271"/><rect class="f_f1f1f1_070707 s_181818_e7e7e7" height="10" style="stroke-width:0.5;" width="15" x="348.5" y="276"/><rect class="f_f1f1f1_070707 s_181818_e7e7e7" height="2" style="stroke-width:0.5;" width="4" x="346.5" y="278"/><rect class="f_f1f1f1_070707 s_181818_e7e7e7" height="2" style="stroke-width:0.5;" width="4" x="346.5" y="282"/><text class="f_000000_ffffff" font-family="sans-serif" font-size="14" lengthAdjust="spacing" textLength="79" x="240.5" y="303.9951">VCT Signer</text><text class="f_000000_ffffff" font-family="sans-serif" font-size="14" lengthAdjust="spacing" textLength="103" x="240.5" y="320.292">Google Trillian</text><!--MD5=[673484195135c08ddadbe04df07d5f98]
entity vctdb--><path class="f_f1f1f1_070707 s_181818_e7e7e7" d="M156,404 C156,394 208,394 208,394 C208,394 260,394 260,404 L260,445.5938 C260,455.5938 208,455.5938 208,455.5938 C208,455.5938 156,455.5938 156,445.5938 L156,404 " style="stroke-width:0.5;"/><path class="s_181818_e7e7e7" d="M156,404 C156,414 208,414 208,414 C208,414 260,414 260,404 " fill="none" style="stroke-width:0.5;"/><text class="f_000000_ffffff" font-family="sans-serif" font-size="14" lengthAdjust="spacing" textLength="84" x="166" y="430.9951">PostgreSQL</text><text class="f_000000_ffffff" font-family="sans-serif" font-size="14" lengthAdjust="spacing" textLength="48" x="166" y="447.292">MySQL</text><!--MD5=[9a187b14aadfe2445e750cc8ca448c6d]
entity vct_rest--><ellipse class="f_f1f1f1_070707 s_181818_e7e7e7" cx="357" cy="179.5" rx="8" ry="8" style="stroke-width:0.5;"/><text class="f_000000_ffffff" font-family="sans-serif" font-size="14" lengthAdjust="spacing" textLength="46" x="334" y="209.4951">HTTPS</text><!--MD5=[68ee199d46f3ce3c48339370f100a1e5]
entity domain2--><rect class="s_181818_e7e7e7" fill="#F0FFFF" height="46.2969" rx="2.5" ry="2.5" style="stroke-width:0.5;" width="103" x="789.5" y="279.5"/><path class="s_181818_e7e7e7" d="M823.8333,279.5 L823.8333,284.5 L816.8333,291.5 L789.5,291.5 " fill="none" style="stroke-width:0.5;"/><text class="f_000000_ffffff" font-family="sans-serif" font-size="14" lengthAdjust="spacing" textLength="63" x="804.5" y="312.4951">Domain2</text><!--MD5=[fd7328753abf7908d775959b6a79cb2d]
entity rest2--><ellipse class="s_181818_e7e7e7" cx="745" cy="302.5" fill="#F0FFFF" rx="8" ry="8" style="stroke-width:0.5;"/><text class="f_000000_ffffff" font-family="sans-serif" font-size="14" lengthAdjust="spacing" textLength="46" x="722" y="332.4951">HTTPS</text><!--MD5=[de459b4515f3b440caf8e354e9d5f652]
entity domain3--><rect class="s_181818_e7e7e7" fill="#F0FFFF" height="46.2969" rx="2.5" ry="2.5" style="stroke-width:0.5;" width="104" x="724" y="402"/><path class="s_181818_e7e7e7" d="M758.6667,402 L758.6667,407 L751.6667,414 L724,414 " fill="none" style="stroke-width:0.5;"/><text class="f_000000_ffffff" font-family="sans-serif" font-size="14" lengthAdjust="spacing" textLength="64" x="739" y="434.9951">Domain3</text><!--MD5=[98ffb7722e6de6cdf870d33bfbb7236e]
entity rest3--><ellipse class="s_181818_e7e7e7" cx="872" cy="425" fill="#F0FFFF" rx="8" ry="8" style="stroke-width:0.5;"/><text class="f_000000_ffffff" font-family="sans-serif" font-size="14" lengthAdjust="spacing" textLength="46" x="849" y="454.9951">HTTPS</text><!--MD5=[9ae847914c95faf755d332c356880d1c]
link orb1 to orbdb--><path class="s_181818_e7e7e7" d="M571.498,74.602 C518.186,88.29 420,113.5 420,113.5 C420,113.5 420,211 420,211 C420,211 461.932,328.52 483.503,388.975 " fill="none" id="orb1-to-orbdb" style="stroke-width:1.0;"/><polygon class="f_181818_e7e7e7 s_181818_e7e7e7" points="485.272,393.934,486.015,384.1132,483.5918,389.2248,478.4802,386.8016,485.272,393.934" style="stroke-width:1.0;"/><!--MD5=[fc5e9795bcdca8c9a285281afa75aa5a]
link orb1 to rest1--><path class="s_181818_e7e7e7" d="M638.66,65 C646.33,65 657,65 657,65 C657,65 666.409,65 673.906,65 " fill="none" id="orb1-rest1" style="stroke-width:1.0;"/><!--MD5=[52b5ee74e2ae998fa7cc7cb5c140764a]
link orb1 to amqp--><path class="s_181818_e7e7e7" d="M583.07,88.226 C567.314,104.195 545.777,126.024 527.827,144.216 " fill="none" id="orb1-to-amqp" style="stroke-width:1.0;"/><polygon class="f_181818_e7e7e7 s_181818_e7e7e7" points="524.288,147.803,533.4566,144.2063,527.7999,144.244,527.7622,138.5872,524.288,147.803" style="stroke-width:1.0;"/><!--MD5=[7b9b264c1151c36c2376a6ffe826efad]
link kms to orbdb--><path class="s_181818_e7e7e7" d="M553.161,325.602 C542.813,343.415 528.075,368.785 516.156,389.303 " fill="none" id="kms-to-orbdb" style="stroke-width:1.0;"/><polygon class="f_181818_e7e7e7 s_181818_e7e7e7" points="513.503,393.87,521.4819,388.0962,516.0141,389.5463,514.564,384.0785,513.503,393.87" style="stroke-width:1.0;"/><!--MD5=[f41f22365c531796310ac099414b3b7c]
link orb1 to kms--><path class="s_181818_e7e7e7" d="M636.146,88.081 C653.643,100.486 672,113.5 672,113.5 C672,113.5 672,211 672,211 C672,211 627.406,249.073 596.066,275.83 " fill="none" id="orb1-to-kms" style="stroke-width:1.0;"/><polygon class="f_181818_e7e7e7 s_181818_e7e7e7" points="591.931,279.361,601.3734,276.5608,595.7341,276.1151,596.1799,270.4758,591.931,279.361" style="stroke-width:1.0;"/><!--MD5=[a3d30a16d9984b519c29598295226bde]
link orb1 to ipfs--><path class="s_181818_e7e7e7" d="M607.964,88.226 C610.367,106.254 613.767,131.751 616.34,151.052 " fill="none" id="orb1-to-ipfs" style="stroke-width:1.0;stroke-dasharray:7.0,7.0;"/><polygon class="f_181818_e7e7e7 s_181818_e7e7e7" points="617.043,156.32,619.8172,146.8699,616.3815,151.3639,611.8875,147.9283,617.043,156.32" style="stroke-width:1.0;"/><!--MD5=[cd9c3f311f043d62c70f4b2111240c75]
link vct to vct_rest--><path class="s_181818_e7e7e7" d="M312.665,179.5 C320.38,179.5 330.667,179.5 330.667,179.5 C330.667,179.5 340.196,179.5 347.79,179.5 " fill="none" id="vct-vct_rest" style="stroke-width:1.0;"/><!--MD5=[8e23453b8f21c25d249e254e93cd0b45]
link vct to vct_log--><path class="s_181818_e7e7e7" d="M248.837,202.693 C225.009,220.826 190.932,246.759 163.668,267.507 " fill="none" id="vct-to-vct_log" style="stroke-width:1.0;"/><polygon class="f_181818_e7e7e7 s_181818_e7e7e7" points="159.354,270.791,168.9386,268.5247,163.3332,267.7634,164.0944,262.158,159.354,270.791" style="stroke-width:1.0;"/><!--MD5=[24c39599ffd372180808af11f01876f5]
link vct to vct_signer--><path class="s_181818_e7e7e7" d="M281.485,202.693 C284.25,220.304 288.171,245.271 291.379,265.701 " fill="none" id="vct-to-vct_signer" style="stroke-width:1.0;"/><polygon class="f_181818_e7e7e7 s_181818_e7e7e7" points="292.178,270.791,294.7334,261.2794,291.4024,265.8515,286.8303,262.5205,292.178,270.791" style="stroke-width:1.0;"/><!--MD5=[8320ea271ba71440d910bab419504a00]
link vct_log to vctdb--><path class="s_181818_e7e7e7" d="M141.689,334.219 C154.128,351.061 169.588,371.992 182.45,389.407 " fill="none" id="vct_log-to-vctdb" style="stroke-width:1.0;"/><polygon class="f_181818_e7e7e7 s_181818_e7e7e7" points="185.661,393.754,183.5318,384.138,182.6906,389.732,177.0966,388.8907,185.661,393.754" style="stroke-width:1.0;"/><!--MD5=[33badaeaba0a15a38281f8e13bbd3f4c]
link vct_signer to vctdb--><path class="s_181818_e7e7e7" d="M274.311,334.219 C261.872,351.061 246.412,371.992 233.55,389.407 " fill="none" id="vct_signer-to-vctdb" style="stroke-width:1.0;"/><polygon class="f_181818_e7e7e7 s_181818_e7e7e7" points="230.339,393.754,238.9034,388.8907,233.3094,389.732,232.4682,384.138,230.339,393.754" style="stroke-width:1.0;"/><!--MD5=[54c5942ccaa746320f368d45bf762ad6]
link orb1 to vct_rest--><path class="s_181818_e7e7e7" d="M571.33,72.806 C506.351,85.94 370,113.5 370,113.5 C370,113.5 363.437,146.316 359.637,165.314 " fill="none" id="orb1-to-vct_rest" style="stroke-width:1.0;"/><polygon class="f_181818_e7e7e7 s_181818_e7e7e7" points="358.646,170.268,364.3325,162.2266,359.626,165.365,356.4876,160.6586,358.646,170.268" style="stroke-width:1.0;"/><!--MD5=[969850586299010ff16630eca9dd981e]
link rest2 to domain2--><path class="s_181818_e7e7e7" d="M754.084,302.5 C763.545,302.5 777,302.5 777,302.5 C777,302.5 782.695,302.5 789.281,302.5 " fill="none" id="rest2-domain2" style="stroke-width:1.0;"/><!--MD5=[0e2626071656d308733b890596dfb262]
link domain3 to rest3--><path class="s_181818_e7e7e7" d="M828.084,425 C834.514,425 840,425 840,425 C840,425 853.455,425 862.916,425 " fill="none" id="domain3-rest3" style="stroke-width:1.0;"/><!--MD5=[0b522532cf907099069cd3b9af83d349]
link orb1 to rest2--><path class="s_181818_e7e7e7" d="M638.556,86.972 C658.915,99.697 681,113.5 681,113.5 C681,113.5 726.063,245.872 740.563,288.467 " fill="none" id="orb1-to-rest2" style="stroke-width:1.0;"/><polygon class="f_181818_e7e7e7 s_181818_e7e7e7" points="742.25,293.422,743.1358,283.6131,740.6385,288.6888,735.5627,286.1915,742.25,293.422" style="stroke-width:1.0;"/><!--MD5=[0e0cc88cce17ba09297ea309bef87ba1]
link domain2 to rest1--><path class="s_181818_e7e7e7" d="M827,279.196 C795.743,229.396 723,113.5 723,113.5 C723,113.5 705.283,92.461 693.431,78.387 " fill="none" id="domain2-to-rest1" style="stroke-width:1.0;"/><polygon class="f_181818_e7e7e7 s_181818_e7e7e7" points="689.967,74.274,692.706,83.7343,693.1883,78.0981,698.8245,78.5803,689.967,74.274" style="stroke-width:1.0;"/><!--MD5=[2d7624cd3a6827128ff3bc95d78ca235]
link domain2 to rest3--><path class="s_181818_e7e7e7" d="M846.686,325.602 C853.104,350.55 863.336,390.323 868.611,410.825 " fill="none" id="domain2-to-rest3" style="stroke-width:1.0;"/><polygon class="f_181818_e7e7e7 s_181818_e7e7e7" points="869.9,415.8359,871.5318,406.1232,868.6544,410.9935,863.784,408.1161,869.9,415.8359" style="stroke-width:1.0;"/><!--MD5=[dd21bf71231edf2a6a7e3a419737193d]
@startuml
'https://plantuml.com/component-diagram

skinparam linetype polyline

frame "Domain1" {
  database "AWS DocumentDB\nMongoDB" as orbdb

  component Orb as orb1

  orb1 - -> orbdb

  interface "HTTPS" as rest1

  orb1 - rest1

  component "AMQP\nRabbitMQ" as amqp

  orb1 - -> amqp

  component "IPFS" as ipfs

  component "Aries Web KMS" as kms

  kms - -> orbdb

  orb1 - - -> kms

  orb1 ..> ipfs

  frame "VCT" {
    component "VCT" as vct
    component "VCT Log\nGoogle Trillian" as vct_log

    component "VCT Signer\nGoogle Trillian" as vct_signer

    database "PostgreSQL\nMySQL" as vctdb

    interface "HTTPS" as vct_rest
    vct - vct_rest

    vct - -> vct_log
    vct - -> vct_signer
    vct_log - -> vctdb
    vct_signer - -> vctdb
  }

  orb1 - -> vct_rest
}

frame "Domain2" as domain2 #Azure

interface "HTTPS" as rest2 #Azure

domain2 -left- rest2

frame Domain3 as domain3 #Azure

interface "HTTPS" as rest3 #Azure

domain3 -right- rest3

orb1 - - -> rest2
domain2 - -> rest1
domain2 - -> rest3
@enduml

@startuml

skinparam linetype polyline

frame "Domain1" {
  database "AWS DocumentDB\nMongoDB" as orbdb

  component Orb as orb1

  orb1 - -> orbdb

  interface "HTTPS" as rest1

  orb1 - rest1

  component "AMQP\nRabbitMQ" as amqp

  orb1 - -> amqp

  component "IPFS" as ipfs

  component "Aries Web KMS" as kms

  kms - -> orbdb

  orb1 - - -> kms

  orb1 ..> ipfs

  frame "VCT" {
    component "VCT" as vct
    component "VCT Log\nGoogle Trillian" as vct_log

    component "VCT Signer\nGoogle Trillian" as vct_signer

    database "PostgreSQL\nMySQL" as vctdb

    interface "HTTPS" as vct_rest
    vct - vct_rest

    vct - -> vct_log
    vct - -> vct_signer
    vct_log - -> vctdb
    vct_signer - -> vctdb
  }

  orb1 - -> vct_rest
}

frame "Domain2" as domain2 #Azure

interface "HTTPS" as rest2 #Azure

domain2 -left- rest2

frame Domain3 as domain3 #Azure

interface "HTTPS" as rest3 #Azure

domain3 -right- rest3

orb1 - - -> rest2
domain2 - -> rest1
domain2 - -> rest3
@enduml

PlantUML version 1.2022.2beta5(Unknown compile time)
(GPL source distribution)
Java Runtime: Java(TM) SE Runtime Environment
JVM: Java HotSpot(TM) 64-Bit Server VM
Default Encoding: UTF-8
Language: en
Country: US
--></g></svg>